<svg width="24" height="24" viewBox="0 0 24 24" fill="none" xmlns="http://www.w3.org/2000/svg">
<path fill-rule="evenodd" clip-rule="evenodd" d="M12 23C18.0751 23 23 18.0751 23 12C23 5.92487 18.0751 1 12 1C5.92487 1 1 5.92487 1 12C1 18.0751 5.92487 23 12 23ZM10.885 7.84926C10.6131 8.05149 10.3678 8.39165 10.2211 8.9887C10.0893 9.52502 9.54761 9.85292 9.01129 9.72109C8.47497 9.58926 8.14707 9.04762 8.2789 8.5113C8.51109 7.5667 8.96893 6.78186 9.69134 6.24451C10.4069 5.71225 11.2783 5.5 12.2 5.5C14.4615 5.5 15.75 7.27421 15.75 9C15.75 10.826 14.546 11.8605 13.5999 12.3757C13.0227 12.69 12.75 13.131 12.75 13.466V13.5C12.75 14.0523 12.3023 14.5 11.75 14.5C11.1977 14.5 10.75 14.0523 10.75 13.5V13.466C10.75 12.1047 11.7307 11.1163 12.6434 10.6193C13.2778 10.2738 13.75 9.78095 13.75 9C13.75 8.22629 13.2104 7.5 12.2 7.5C11.5778 7.5 11.1637 7.64192 10.885 7.84926ZM11.75 18.25C12.4404 18.25 13 17.6904 13 17C13 16.3096 12.4404 15.75 11.75 15.75C11.0596 15.75 10.5 16.3096 10.5 17C10.5 17.6904 11.0596 18.25 11.75 18.25Z" fill="#1A1A1A"/>
</svg>
