<svg width="24" height="24" viewBox="0 0 24 24" fill="none" xmlns="http://www.w3.org/2000/svg">
<path d="M7 2C5.19826 2 3.66616 2.7609 2.60307 4.05179C1.55275 5.32718 1 7.06605 1 9C1 13.1964 3.78175 16.5753 6.3415 18.8151C7.64238 19.9534 8.93854 20.844 9.9075 21.4496C10.393 21.753 10.7991 21.9866 11.086 22.1454C11.1255 22.1673 11.1652 22.1898 11.205 22.2125C11.3445 22.2918 11.4864 22.3726 11.634 22.4306C11.7515 22.4767 11.8758 22.4998 12 22.4998C12.1243 22.4999 12.2486 22.4768 12.3661 22.4306C12.5137 22.3725 12.6556 22.2918 12.795 22.2125C12.8349 22.1898 12.8745 22.1673 12.914 22.1454C13.2009 21.9866 13.607 21.753 14.0925 21.4496C15.0615 20.844 16.3576 19.9534 17.6585 18.8151C20.2183 16.5753 23 13.1964 23 9C23 7.06605 22.4472 5.32718 21.3969 4.05179C20.3338 2.7609 18.8017 2 17 2C14.5539 2 13.0314 3.40009 12.1679 4.6953C12.1092 4.78335 12.0533 4.87127 12 4.95865C11.9467 4.87127 11.8908 4.78335 11.8321 4.6953C10.9686 3.40009 9.44609 2 7 2Z" fill="#1A1A1A"/>
</svg>
