<svg width="24" height="24" viewBox="0 0 24 24" fill="none" xmlns="http://www.w3.org/2000/svg">
<path fill-rule="evenodd" clip-rule="evenodd" d="M7 2C5.19826 2 3.66616 2.7609 2.60307 4.05179C1.55275 5.32718 1 7.06605 1 9C1 13.1964 3.78175 16.5753 6.3415 18.8151C7.64238 19.9534 8.93854 20.844 9.9075 21.4496C10.393 21.753 10.7991 21.9866 11.086 22.1454C11.1255 22.1673 11.1652 22.1898 11.205 22.2125C11.3445 22.2919 11.4864 22.3726 11.634 22.4306C11.7515 22.4767 11.8758 22.4998 12 22.4998C12.1243 22.4999 12.2486 22.4768 12.3661 22.4306C12.5137 22.3725 12.6556 22.2918 12.795 22.2125C12.8349 22.1898 12.8745 22.1673 12.914 22.1454C13.2009 21.9866 13.607 21.753 14.0925 21.4496C15.0615 20.844 16.3576 19.9534 17.6585 18.8151C20.2183 16.5753 23 13.1964 23 9C23 7.06605 22.4472 5.32718 21.3969 4.05179C20.3338 2.7609 18.8017 2 17 2C14.662 2 13.1485 3.04012 12.2407 4.09921C12.155 4.19922 12.0749 4.29913 12 4.39805C11.9251 4.29913 11.845 4.19922 11.7593 4.09921C10.8515 3.04012 9.33801 2 7 2ZM17 4C17.8856 4 18.6453 4.26714 19.2588 4.74324C19.4754 4.91134 19.6738 5.10557 19.8531 5.32321C20.5528 6.17282 21 7.43395 21 9C21 12.3036 18.7817 15.1747 16.3415 17.3099C15.1424 18.3591 13.9385 19.1873 13.0325 19.7536C12.6113 20.0168 12.2567 20.2221 12 20.3653C11.7433 20.2221 11.3887 20.0168 10.9675 19.7536C10.0615 19.1873 8.85762 18.3591 7.6585 17.3099C5.21825 15.1747 3 12.3036 3 9C3 7.43395 3.44725 6.17282 4.14693 5.32321C4.32616 5.10557 4.52452 4.91142 4.74112 4.74332C5.3546 4.26721 6.11444 4 7 4C8.66199 4 9.64853 4.70988 10.2407 5.40079C10.5457 5.75655 10.7507 6.11483 10.8784 6.38306C10.9394 6.51118 11.0003 6.64383 11.04 6.78063C11.0884 6.94541 11.1775 7.09212 11.2927 7.20717C11.4782 7.39238 11.7325 7.50039 12 7.50026C12.2719 7.50039 12.5293 7.38551 12.7073 7.20717C12.8259 7.08834 12.913 6.94082 12.9601 6.78017C12.9997 6.64352 13.0607 6.51102 13.1216 6.38306C13.2493 6.11483 13.4543 5.75655 13.7593 5.40079C14.3515 4.70988 15.338 4 17 4Z" fill="#1A1A1A"/>
</svg>
