<svg width="24" height="24" viewBox="0 0 24 24" fill="none" xmlns="http://www.w3.org/2000/svg">
<path fill-rule="evenodd" clip-rule="evenodd" d="M12 0C13.3807 0 14.5 1.11929 14.5 2.5H15.5C16.0523 2.5 16.5 2.94772 16.5 3.5V4.5C16.5 5.05228 16.0523 5.5 15.5 5.5H8.5C7.94772 5.5 7.5 5.05228 7.5 4.5V3.5C7.5 2.94772 7.94772 2.5 8.5 2.5H9.5C9.5 1.11929 10.6193 0 12 0ZM12 1.5C12.5523 1.5 13 1.94772 13 2.5C13 3.05228 12.5523 3.5 12 3.5C11.4477 3.5 11 3.05228 11 2.5C11 1.94772 11.4477 1.5 12 1.5Z" fill="#1A1A1A"/>
<path fill-rule="evenodd" clip-rule="evenodd" d="M6.05001 3H6C4.34315 3 3 4.34315 3 6V20C3 21.6569 4.34315 23 6 23H18C19.6569 23 21 21.6569 21 20V6C21 4.34315 19.6569 3 18 3H17.95C17.9828 3.16156 18 3.32877 18 3.5V4.5C18 5.88071 16.8807 7 15.5 7H8.5C7.11929 7 6 5.88071 6 4.5V3.5C6 3.32877 6.01722 3.16156 6.05001 3ZM9 10.25C9 10.8023 8.55229 11.25 8 11.25C7.44772 11.25 7 10.8023 7 10.25C7 9.69771 7.44772 9.25 8 9.25C8.55229 9.25 9 9.69771 9 10.25ZM10.25 10.25C10.25 9.83579 10.5858 9.5 11 9.5H16.25C16.6642 9.5 17 9.83579 17 10.25C17 10.6642 16.6642 11 16.25 11H11C10.5858 11 10.25 10.6642 10.25 10.25ZM11 13.5C10.5858 13.5 10.25 13.8358 10.25 14.25C10.25 14.6642 10.5858 15 11 15H16.25C16.6642 15 17 14.6642 17 14.25C17 13.8358 16.6642 13.5 16.25 13.5H11ZM11 17.5C10.5858 17.5 10.25 17.8358 10.25 18.25C10.25 18.6642 10.5858 19 11 19H16.25C16.6642 19 17 18.6642 17 18.25C17 17.8358 16.6642 17.5 16.25 17.5H11ZM9 14.25C9 14.8023 8.55229 15.25 8 15.25C7.44772 15.25 7 14.8023 7 14.25C7 13.6977 7.44772 13.25 8 13.25C8.55229 13.25 9 13.6977 9 14.25ZM9 18.25C9 18.8023 8.55229 19.25 8 19.25C7.44772 19.25 7 18.8023 7 18.25C7 17.6977 7.44772 17.25 8 17.25C8.55229 17.25 9 17.6977 9 18.25Z" fill="#1A1A1A"/>
</svg>
