<svg width="24" height="24" viewBox="0 0 24 24" fill="none" xmlns="http://www.w3.org/2000/svg">
<path d="M13 17C13 17.6904 12.4404 18.25 11.75 18.25C11.0596 18.25 10.5 17.6904 10.5 17C10.5 16.3096 11.0596 15.75 11.75 15.75C12.4404 15.75 13 16.3096 13 17Z" fill="#1A1A1A"/>
<path d="M10.2211 9.2387C10.3678 8.64165 10.6131 8.30149 10.885 8.09926C11.1637 7.89192 11.5778 7.75 12.2 7.75C13.2104 7.75 13.75 8.47629 13.75 9.25C13.75 10.031 13.2778 10.5238 12.6434 10.8693C11.7307 11.3663 10.75 12.3547 10.75 13.716V13.75C10.75 14.3023 11.1977 14.75 11.75 14.75C12.3023 14.75 12.75 14.3023 12.75 13.75V13.716C12.75 13.381 13.0227 12.94 13.5999 12.6257C14.546 12.1105 15.75 11.076 15.75 9.25C15.75 7.52421 14.4615 5.75 12.2 5.75C11.2783 5.75 10.4069 5.96225 9.69134 6.49451C8.96893 7.03186 8.51109 7.8167 8.2789 8.7613C8.14706 9.29762 8.47497 9.83926 9.01129 9.97109C9.54761 10.1029 10.0893 9.77502 10.2211 9.2387Z" fill="#1A1A1A"/>
<path fill-rule="evenodd" clip-rule="evenodd" d="M12 23C18.0751 23 23 18.0751 23 12C23 5.92487 18.0751 1 12 1C5.92487 1 1 5.92487 1 12C1 18.0751 5.92487 23 12 23ZM12 21C16.9706 21 21 16.9706 21 12C21 7.02944 16.9706 3 12 3C7.02944 3 3 7.02944 3 12C3 16.9706 7.02944 21 12 21Z" fill="#1A1A1A"/>
</svg>
