<svg width="24" height="24" viewBox="0 0 24 24" fill="none" xmlns="http://www.w3.org/2000/svg">
<path d="M11.9997 16C12.69 16 13.2497 16.5596 13.2497 17.25C13.2497 17.9404 12.69 18.5 11.9997 18.5C11.3094 18.4999 10.7497 17.9403 10.7497 17.25C10.7497 16.5597 11.3094 16.0001 11.9997 16Z" fill="#1A1A1A"/>
<path d="M11.9997 7.25C12.552 7.25 12.9997 7.69771 12.9997 8.25V13.75C12.9997 14.3023 12.552 14.75 11.9997 14.75C11.4475 14.7499 10.9997 14.3022 10.9997 13.75V8.25C10.9997 7.6978 11.4475 7.25014 11.9997 7.25Z" fill="#1A1A1A"/>
<path fill-rule="evenodd" clip-rule="evenodd" d="M9.8073 2.42187C10.756 0.690126 13.2433 0.690207 14.1921 2.42187L23.1608 18.7988C24.0731 20.4647 22.8677 22.4997 20.9684 22.5H3.03094C1.13184 22.4996 -0.0735948 20.4647 0.838553 18.7988L9.8073 2.42187ZM12.4382 3.38281C12.2484 3.03649 11.7509 3.03642 11.5612 3.38281L2.59246 19.7598C2.41026 20.0928 2.65146 20.4996 3.03094 20.5H20.9684C21.3481 20.4997 21.5893 20.0928 21.4069 19.7598L12.4382 3.38281Z" fill="#1A1A1A"/>
</svg>
