<svg width="24" height="24" viewBox="0 0 24 24" fill="none" xmlns="http://www.w3.org/2000/svg">
<path d="M11.9997 16C12.6901 16 13.2497 16.5596 13.2497 17.25C13.2497 17.9404 12.6901 18.5 11.9997 18.5C11.3095 18.4999 10.7497 17.9403 10.7497 17.25C10.7497 16.5597 11.3095 16.0001 11.9997 16Z" fill="#1A1A1A"/>
<path d="M11.9997 7.25C12.552 7.25 12.9997 7.69771 12.9997 8.25V13.75C12.9997 14.3023 12.552 14.75 11.9997 14.75C11.4476 14.7499 10.9997 14.3022 10.9997 13.75V8.25C10.9997 7.6978 11.4476 7.25014 11.9997 7.25Z" fill="#1A1A1A"/>
<path fill-rule="evenodd" clip-rule="evenodd" d="M9.80736 2.42187C10.7561 0.690126 13.2434 0.690207 14.1921 2.42187L23.1609 18.7988C24.0732 20.4648 22.8678 22.4997 20.9685 22.5H3.03099C1.1319 22.4995 -0.0735414 20.4647 0.838607 18.7988L9.80736 2.42187ZM12.4382 3.38281C12.2484 3.03649 11.751 3.03642 11.5613 3.38281L2.59251 19.7598C2.41031 20.0928 2.65152 20.4995 3.03099 20.5H20.9685C21.3481 20.4997 21.5893 20.0928 21.407 19.7598L12.4382 3.38281Z" fill="#1A1A1A"/>
</svg>
