<svg width="24" height="24" viewBox="0 0 24 24" fill="none" xmlns="http://www.w3.org/2000/svg">
<path fill-rule="evenodd" clip-rule="evenodd" d="M9.80744 2.42193C10.7561 0.690179 13.2434 0.69026 14.1922 2.42193L23.161 18.7989C24.0732 20.4648 22.8678 22.4998 20.9686 22.5H3.03108C1.13208 22.4995 -0.0733234 20.4647 0.838693 18.7989L9.80744 2.42193ZM11.9998 16.0001C11.3095 16.0001 10.7498 16.5598 10.7498 17.25C10.7499 17.9403 11.3096 18.5 11.9998 18.5C12.6902 18.5 13.2498 17.9404 13.2498 17.25C13.2498 16.5597 12.6902 16.0001 11.9998 16.0001ZM11.9998 7.25005C11.4476 7.25014 10.9998 7.69782 10.9998 8.25005V13.7501C10.9999 14.3023 11.4476 14.75 11.9998 14.7501C12.5521 14.7501 12.9998 14.3023 12.9998 13.7501V8.25005C12.9998 7.69777 12.5521 7.25005 11.9998 7.25005Z" fill="#1A1A1A"/>
</svg>
