<svg width="24" height="24" viewBox="0 0 24 24" fill="none" xmlns="http://www.w3.org/2000/svg">
<path fill-rule="evenodd" clip-rule="evenodd" d="M21.5 19.5C21.5 21.1569 20.1569 22.5 18.5 22.5H5.5C3.84315 22.5 2.5 21.1569 2.5 19.5V9.5H21.5V19.5ZM9 11.5C8.44772 11.5 8 11.9477 8 12.5C8 13.0523 8.44772 13.5 9 13.5H15C15.5523 13.5 16 13.0523 16 12.5C16 11.9477 15.5523 11.5 15 11.5H9Z" fill="#1A1A1A"/>
<path d="M21 2.5C22.1046 2.5 23 3.39543 23 4.5V6.5C23 7.05228 22.5523 7.5 22 7.5H2C1.44772 7.5 1 7.05228 1 6.5V4.5C1 3.39543 1.89543 2.5 3 2.5H21Z" fill="#1A1A1A"/>
</svg>
