<svg width="24" height="24" viewBox="0 0 24 24" fill="none" xmlns="http://www.w3.org/2000/svg">
<path d="M15 11C15.5523 11 16 11.4477 16 12C16 12.5523 15.5523 13 15 13H9C8.44772 13 8 12.5523 8 12C8 11.4477 8.44772 11 9 11H15Z" fill="#1A1A1A"/>
<path fill-rule="evenodd" clip-rule="evenodd" d="M20.5 2.5C21.8807 2.5 23 3.61929 23 5V7C23 7.93162 22.3622 8.71129 21.5 8.93359V19.5C21.5 21.1569 20.1569 22.5 18.5 22.5H5.5C3.84315 22.5 2.5 21.1569 2.5 19.5V8.93359C1.6378 8.71129 1 7.93162 1 7V5C1 3.61929 2.11929 2.5 3.5 2.5H20.5ZM4.5 19.5C4.5 20.0523 4.94772 20.5 5.5 20.5H18.5C19.0523 20.5 19.5 20.0523 19.5 19.5V9H4.5V19.5ZM3.5 4.5C3.22386 4.5 3 4.72386 3 5V7H21V5C21 4.72386 20.7761 4.5 20.5 4.5H3.5Z" fill="#1A1A1A"/>
</svg>
