<svg width="24" height="24" viewBox="0 0 24 24" fill="none" xmlns="http://www.w3.org/2000/svg">
<path fill-rule="evenodd" clip-rule="evenodd" d="M12 1C18.0751 1 23 5.92487 23 12C23 18.0751 18.0751 23 12 23C5.92487 23 1 18.0751 1 12C1 5.92487 5.92487 1 12 1ZM6.70703 9.79297C6.34093 9.42689 5.76191 9.40432 5.36914 9.72461L5.29297 9.79297L2.79297 12.293C2.40248 12.6835 2.40248 13.3165 2.79297 13.707C3.18349 14.0975 3.81652 14.0975 4.20703 13.707L5.05371 12.8594C5.47746 16.3198 8.42515 18.9999 12 19C13.8229 18.9999 15.4856 18.3019 16.7305 17.1602C17.1372 16.787 17.1648 16.154 16.792 15.7471C16.4188 15.3402 15.7859 15.3126 15.3789 15.6855C14.4884 16.5024 13.3031 16.9999 12 17C9.58739 16.9999 7.57359 15.291 7.10352 13.0176L7.79297 13.707C8.18349 14.0975 8.81652 14.0975 9.20703 13.707C9.59749 13.3165 9.5975 12.6835 9.20703 12.293L6.70703 9.79297ZM12 5C10.1771 5.00005 8.51446 5.69808 7.26953 6.83984C6.86276 7.21305 6.8351 7.84595 7.20801 8.25293C7.58122 8.65982 8.21408 8.68744 8.62109 8.31445C9.51165 7.4976 10.6969 7.00005 12 7C14.4122 7.00008 16.425 8.70861 16.8955 10.9814L16.207 10.293C15.8165 9.90248 15.1835 9.90249 14.793 10.293C14.4025 10.6835 14.4025 11.3165 14.793 11.707L17.293 14.207L17.3691 14.2754C17.7619 14.5957 18.3409 14.5731 18.707 14.207L21.207 11.707C21.5975 11.3165 21.5975 10.6835 21.207 10.293C20.8165 9.90248 20.1835 9.90249 19.793 10.293L18.9453 11.1396C18.5211 7.67976 15.5745 5.00008 12 5Z" fill="#1A1A1A"/>
</svg>
