<svg width="24" height="24" viewBox="0 0 24 24" fill="none" xmlns="http://www.w3.org/2000/svg">
<path fill-rule="evenodd" clip-rule="evenodd" d="M23 12C23 18.0751 18.0751 23 12 23C5.92487 23 1 18.0751 1 12C1 5.92487 5.92487 1 12 1C18.0751 1 23 5.92487 23 12ZM10.7071 12.2929C11.0976 12.6834 11.0976 13.3166 10.7071 13.7071L9.41421 15H17C17.5523 15 18 15.4477 18 16C18 16.5523 17.5523 17 17 17H9.41421L10.7071 18.2929C11.0976 18.6834 11.0976 19.3166 10.7071 19.7071C10.3166 20.0976 9.68342 20.0976 9.29289 19.7071L6.29289 16.7071C5.90237 16.3166 5.90237 15.6834 6.29289 15.2929L9.29289 12.2929C9.68342 11.9024 10.3166 11.9024 10.7071 12.2929ZM14.7071 4.29289C14.3166 3.90237 13.6834 3.90237 13.2929 4.29289C12.9024 4.68342 12.9024 5.31658 13.2929 5.70711L14.5858 7H7C6.44772 7 6 7.44772 6 8C6 8.55228 6.44772 9 7 9H14.5858L13.2929 10.2929C12.9024 10.6834 12.9024 11.3166 13.2929 11.7071C13.6834 12.0976 14.3166 12.0976 14.7071 11.7071L17.7071 8.70711C18.0976 8.31658 18.0976 7.68342 17.7071 7.29289L14.7071 4.29289Z" fill="#1A1A1A"/>
</svg>
