<svg width="24" height="24" viewBox="0 0 24 24" fill="none" xmlns="http://www.w3.org/2000/svg">
<path fill-rule="evenodd" clip-rule="evenodd" d="M12 1C18.0751 1 23 5.92487 23 12C23 18.0751 18.0751 23 12 23C5.92487 23 1 18.0751 1 12C1 5.92487 5.92487 1 12 1ZM6.50879 12.5C6.09481 12.5002 5.75895 12.836 5.75879 13.25C5.75894 13.664 6.09481 13.9998 6.50879 14H8.94043L5.78125 17.1602C5.48836 17.453 5.48837 17.9278 5.78125 18.2207C6.07415 18.5135 6.54894 18.5136 6.8418 18.2207L10.002 15.0605V17.4932C10.0022 17.9069 10.3373 18.2428 10.751 18.2432C11.165 18.2432 11.5007 17.9071 11.501 17.4932V13.25C11.5009 13.0512 11.4227 12.8603 11.2822 12.7197C11.1416 12.5791 10.9499 12.5 10.751 12.5H6.50879ZM18.2207 5.78125C17.9278 5.48838 17.453 5.48836 17.1602 5.78125L14.002 8.93945V6.50781C14.002 6.0937 13.666 5.75797 13.252 5.75781C12.8378 5.75786 12.502 6.09363 12.502 6.50781V10.75C12.502 10.9489 12.5811 11.1396 12.7217 11.2803C12.8623 11.4208 13.0531 11.5 13.252 11.5H17.4941C17.9083 11.5 18.2441 11.1642 18.2441 10.75C18.2441 10.3358 17.9083 10 17.4941 10H15.0625L18.2207 6.8418C18.5136 6.54894 18.5135 6.07415 18.2207 5.78125Z" fill="#1A1A1A"/>
</svg>
