<svg width="24" height="24" viewBox="0 0 24 24" fill="none" xmlns="http://www.w3.org/2000/svg">
<path d="M8.29289 1.29289C8.68342 0.902369 9.31658 0.902369 9.70711 1.29289C10.0976 1.68342 10.0976 2.31658 9.70711 2.70711L6.41421 6H20C20.5523 6 21 6.44772 21 7C21 7.55228 20.5523 8 20 8H6.41421L9.70711 11.2929C10.0976 11.6834 10.0976 12.3166 9.70711 12.7071C9.31658 13.0976 8.68342 13.0976 8.29289 12.7071L3.29289 7.70711C2.90237 7.31658 2.90237 6.68342 3.29289 6.29289L8.29289 1.29289Z" fill="#1A1A1A"/>
<path d="M15.7071 11.2929C15.3166 10.9024 14.6834 10.9024 14.2929 11.2929C13.9024 11.6834 13.9024 12.3166 14.2929 12.7071L17.5858 16H4C3.44772 16 3 16.4477 3 17C3 17.5523 3.44772 18 4 18H17.5858L14.2929 21.2929C13.9024 21.6834 13.9024 22.3166 14.2929 22.7071C14.6834 23.0976 15.3166 23.0976 15.7071 22.7071L20.7071 17.7071C21.0976 17.3166 21.0976 16.6834 20.7071 16.2929L15.7071 11.2929Z" fill="#1A1A1A"/>
</svg>
