<svg width="24" height="24" viewBox="0 0 24 24" fill="none" xmlns="http://www.w3.org/2000/svg">
<path fill-rule="evenodd" clip-rule="evenodd" d="M12 1C18.0751 1 23 5.92487 23 12C23 18.0751 18.0751 23 12 23C5.92487 23 1 18.0751 1 12C1 5.92487 5.92487 1 12 1ZM11.2822 12.7197C10.9894 12.4269 10.5146 12.4269 10.2217 12.7197L7.06152 15.8799V13.4473C7.06125 13.0334 6.72544 12.6974 6.31152 12.6973C5.89752 12.6973 5.5618 13.0333 5.56152 13.4473V17.6904C5.5616 17.8892 5.64067 18.0801 5.78125 18.2207C5.92187 18.3613 6.11269 18.4404 6.31152 18.4404H10.5547C10.9685 18.44 11.3036 18.1043 11.3037 17.6904C11.3036 17.2766 10.9685 16.9408 10.5547 16.9404H8.12207L11.2822 13.7803C11.575 13.4874 11.575 13.0126 11.2822 12.7197ZM13.4482 5.56152C13.0341 5.56152 12.6983 5.89735 12.6982 6.31152C12.6984 6.7256 13.0341 7.06152 13.4482 7.06152H15.8799L12.7217 10.2197C12.4288 10.5126 12.4288 10.9874 12.7217 11.2803C13.0146 11.573 13.4894 11.5731 13.7822 11.2803L16.9404 8.12207V10.5537C16.9404 10.9679 17.2762 11.3037 17.6904 11.3037C18.1046 11.3037 18.4404 10.9679 18.4404 10.5537V6.31152C18.4404 6.1127 18.3613 5.92187 18.2207 5.78125C18.0801 5.64062 17.8893 5.56155 17.6904 5.56152H13.4482Z" fill="#1A1A1A"/>
</svg>
