<svg width="24" height="24" viewBox="0 0 24 24" fill="none" xmlns="http://www.w3.org/2000/svg">
<path fill-rule="evenodd" clip-rule="evenodd" d="M12 1C5.92487 1 1 5.92487 1 12C1 18.0751 5.92487 23 12 23C18.0751 23 23 18.0751 23 12C23 5.92487 18.0751 1 12 1ZM17.293 9.79297C17.6591 9.42689 18.2381 9.40432 18.6309 9.72461L18.707 9.79297L21.207 12.293C21.5975 12.6835 21.5975 13.3165 21.207 13.707C20.8165 14.0975 20.1835 14.0975 19.793 13.707L18.9463 12.8594C18.5225 16.3198 15.5748 18.9999 12 19C10.1771 18.9999 8.51444 18.3019 7.26953 17.1602C6.86283 16.787 6.83517 16.154 7.20801 15.7471C7.58121 15.3402 8.21408 15.3126 8.62109 15.6855C9.51162 16.5024 10.6969 16.9999 12 17C14.4126 16.9999 16.4264 15.291 16.8965 13.0176L16.207 13.707C15.8165 14.0975 15.1835 14.0975 14.793 13.707C14.4025 13.3165 14.4025 12.6835 14.793 12.293L17.293 9.79297ZM12 5C13.8229 5.00005 15.4855 5.69808 16.7305 6.83984C17.1372 7.21305 17.1649 7.84595 16.792 8.25293C16.4188 8.65982 15.7859 8.68744 15.3789 8.31445C14.4883 7.4976 13.3031 7.00005 12 7C9.58776 7.00008 7.575 8.70861 7.10449 10.9814L7.79297 10.293C8.18348 9.90248 8.81651 9.90249 9.20703 10.293C9.59752 10.6835 9.59752 11.3165 9.20703 11.707L6.70703 14.207L6.63086 14.2754C6.23809 14.5957 5.65907 14.5731 5.29297 14.207L2.79297 11.707C2.4025 11.3165 2.40251 10.6835 2.79297 10.293C3.18348 9.90248 3.81651 9.90249 4.20703 10.293L5.05469 11.1396C5.47891 7.67976 8.4255 5.00008 12 5Z" fill="#1A1A1A"/>
</svg>
