<svg width="24" height="24" viewBox="0 0 24 24" fill="none" xmlns="http://www.w3.org/2000/svg">
<path fill-rule="evenodd" clip-rule="evenodd" d="M12 1C18.0751 1 23 5.92487 23 12C23 18.0751 18.0751 23 12 23C5.92487 23 1 18.0751 1 12C1 5.92487 5.92487 1 12 1ZM11.084 12.917C10.7911 12.6246 10.3162 12.6244 10.0234 12.917L7.06152 15.8799V14C7.06143 13.586 6.72554 13.2502 6.31152 13.25C5.89742 13.2501 5.56162 13.5859 5.56152 14V17.6904C5.56153 17.8893 5.64066 18.0801 5.78125 18.2207C5.92187 18.3612 6.11272 18.4404 6.31152 18.4404H10C10.4142 18.4404 10.75 18.1046 10.75 17.6904C10.75 17.2763 10.4142 16.9405 10 16.9404H8.12207L11.084 13.9785C11.3769 13.6856 11.3769 13.2099 11.084 12.917ZM13.9775 12.917C13.6848 12.6244 13.2099 12.6246 12.917 12.917C12.6241 13.2099 12.6241 13.6856 12.917 13.9785L15.8789 16.9404H14.001C13.5868 16.9405 13.251 17.2763 13.251 17.6904C13.251 18.1046 13.5868 18.4404 14.001 18.4404H17.6895C17.8883 18.4404 18.0791 18.3613 18.2197 18.2207C18.3603 18.0801 18.4394 17.8893 18.4395 17.6904V14C18.4394 13.5859 18.1036 13.2501 17.6895 13.25C17.2754 13.2501 16.9396 13.5859 16.9395 14V15.8799L13.9775 12.917ZM6.31055 5.56152C5.89637 5.56154 5.5606 5.89736 5.56055 6.31152V10C5.5606 10.4142 5.89636 10.75 6.31055 10.75C6.72467 10.7499 7.0605 10.4141 7.06055 10V8.12207L10.0225 11.084C10.3154 11.3769 10.7911 11.3769 11.084 11.084C11.3764 10.7911 11.3765 10.3162 11.084 10.0234L8.12109 7.06152H10.001C10.415 7.06139 10.7508 6.7255 10.751 6.31152C10.751 5.89738 10.4151 5.56163 10.001 5.56152H6.31055ZM14 5.56152C13.5858 5.56156 13.25 5.89734 13.25 6.31152C13.2502 6.72555 13.5859 7.06147 14 7.06152H15.8799L12.917 10.0234C12.6244 10.3162 12.6245 10.7911 12.917 11.084C13.2098 11.3768 13.6846 11.3768 13.9775 11.084L16.9404 8.12207V10C16.9405 10.4141 17.2763 10.7499 17.6904 10.75C18.1046 10.7499 18.4404 10.4141 18.4404 10V6.31152C18.4404 5.89741 18.1045 5.56161 17.6904 5.56152H14Z" fill="#1A1A1A"/>
</svg>
