<svg width="24" height="24" viewBox="0 0 24 24" fill="none" xmlns="http://www.w3.org/2000/svg">
<path d="M14.207 12.793C13.8165 12.4028 13.1834 12.4026 12.793 12.793C12.4027 13.1834 12.4029 13.8165 12.793 14.207L18.5879 20.002H15.002C14.4497 20.002 14.002 20.4497 14.002 21.002C14.0022 21.5541 14.4498 22.002 15.002 22.002H21.002C21.5541 22.002 22.0018 21.5541 22.002 21.002V15.002C22.002 14.4497 21.5542 14.002 21.002 14.002C20.4497 14.002 20.002 14.4497 20.002 15.002V18.5879L14.207 12.793Z" fill="#1A1A1A"/>
<path d="M3 2C2.73492 2.0001 2.48042 2.10552 2.29297 2.29297C2.10555 2.48049 2 2.73487 2 3V9C2 9.55216 2.44789 9.99979 3 10C3.55228 10 4 9.55228 4 9V5.41406L9.79297 11.207C10.1834 11.5975 10.8165 11.5974 11.207 11.207C11.5976 10.8165 11.5976 10.1835 11.207 9.79297L5.41406 4H9C9.55228 4 10 3.55228 10 3C10 2.44772 9.55228 2 9 2H3Z" fill="#1A1A1A"/>
</svg>
