<svg width="24" height="24" viewBox="0 0 24 24" fill="none" xmlns="http://www.w3.org/2000/svg">
<path fill-rule="evenodd" clip-rule="evenodd" d="M23 12C23 18.0751 18.0751 23 12 23C5.92487 23 1 18.0751 1 12C1 5.92487 5.92487 1 12 1C18.0751 1 23 5.92487 23 12ZM13.2929 12.2929C13.6834 11.9024 14.3166 11.9024 14.7071 12.2929L17.7071 15.2929C18.0976 15.6834 18.0976 16.3166 17.7071 16.7071L14.7071 19.7071C14.3166 20.0976 13.6834 20.0976 13.2929 19.7071C12.9024 19.3166 12.9024 18.6834 13.2929 18.2929L14.5858 17H7C6.44772 17 6 16.5523 6 16C6 15.4477 6.44772 15 7 15H14.5858L13.2929 13.7071C12.9024 13.3166 12.9024 12.6834 13.2929 12.2929ZM9.29289 4.29289C9.68342 3.90237 10.3166 3.90237 10.7071 4.29289C11.0976 4.68342 11.0976 5.31658 10.7071 5.70711L9.41421 7H17C17.5523 7 18 7.44772 18 8C18 8.55228 17.5523 9 17 9H9.41421L10.7071 10.2929C11.0976 10.6834 11.0976 11.3166 10.7071 11.7071C10.3166 12.0976 9.68342 12.0976 9.29289 11.7071L6.29289 8.70711C5.90237 8.31658 5.90237 7.68342 6.29289 7.29289L9.29289 4.29289Z" fill="#1A1A1A"/>
</svg>
