<svg width="24" height="24" viewBox="0 0 24 24" fill="none" xmlns="http://www.w3.org/2000/svg">
<path d="M19.0012 13.0001C19.5533 13.0003 20.0012 13.4479 20.0012 14.0001C20.0011 14.5522 19.5532 14.9998 19.0012 15.0001H16.4153L21.7082 20.295C22.0983 20.6856 22.0985 21.3187 21.7082 21.7091C21.3178 22.0993 20.6847 22.099 20.2942 21.7091L15.0012 16.4141V19.0001C15.0011 19.5522 14.5532 19.9998 14.0012 20.0001C13.449 20.0001 13.0013 19.5523 13.0012 19.0001V14.0001C13.0012 13.4478 13.4489 13.0001 14.0012 13.0001H19.0012Z" fill="#1A1A1A"/>
<path d="M10.0002 13.0001C10.5524 13.0002 11.0002 13.4479 11.0002 14.0001V19.0001C11.0001 19.5522 10.5523 19.9999 10.0002 20.0001C9.44803 20.0001 9.00036 19.5523 9.00023 19.0001V16.4141L3.70726 21.7091C3.31688 22.0992 2.68371 22.0991 2.2932 21.7091C1.90267 21.3186 1.90283 20.6856 2.2932 20.295L7.58617 15.0001H5.00023C4.44803 15.0001 4.00036 14.5523 4.00023 14.0001C4.00023 13.4478 4.44795 13.0001 5.00023 13.0001H10.0002Z" fill="#1A1A1A"/>
<path d="M2.29222 2.29305C2.68268 1.90268 3.31576 1.90273 3.70628 2.29305L9.00121 7.587V5.00008C9.00121 4.4478 9.44892 4.00008 10.0012 4.00008C10.5533 4.00032 11.0012 4.44795 11.0012 5.00008V10.0001C11.0011 10.5522 10.5532 10.9998 10.0012 11.0001H5.00121C4.44897 11.0001 4.00128 10.5523 4.00121 10.0001C4.00121 9.4478 4.44893 9.00009 5.00121 9.00008H7.58714L2.29222 3.70712C1.90195 3.31665 1.90193 2.68354 2.29222 2.29305Z" fill="#1A1A1A"/>
<path d="M20.2952 2.29305C20.6857 1.90274 21.3188 1.90254 21.7092 2.29305C22.0993 2.68354 22.0994 3.31671 21.7092 3.70712L16.4143 9.00008H19.0002C19.5524 9.00023 20.0002 9.44789 20.0002 10.0001C20.0002 10.5522 19.5524 10.9999 19.0002 11.0001H14.0002C13.448 11.0001 13.0003 10.5523 13.0002 10.0001V5.00008C13.0002 4.4478 13.4479 4.00008 14.0002 4.00008C14.5524 4.00022 15.0002 4.44789 15.0002 5.00008V7.587L20.2952 2.29305Z" fill="#1A1A1A"/>
</svg>
