<svg width="24" height="24" viewBox="0 0 24 24" fill="none" xmlns="http://www.w3.org/2000/svg">
<path d="M3.36919 9.72461C3.76196 9.40429 4.34097 9.42686 4.70708 9.79297L7.20708 12.293C7.59757 12.6835 7.59756 13.3165 7.20708 13.707C6.81656 14.0975 6.18354 14.0975 5.79302 13.707L5.06938 12.9834C5.54753 16.3837 8.46794 18.9999 12 19C14.1826 18.9999 16.1317 18.0017 17.417 16.4336C17.7672 16.0068 18.3973 15.9449 18.8243 16.2949C19.2511 16.645 19.3138 17.2751 18.9639 17.7021C17.315 19.7137 14.8071 20.9999 12 21C7.32344 20.9999 3.4802 17.4329 3.04204 12.8711L2.20708 13.707C1.81656 14.0975 1.18354 14.0975 0.793015 13.707C0.402491 13.3165 0.402491 12.6835 0.793015 12.293L3.29302 9.79297L3.36919 9.72461Z" fill="#1A1A1A"/>
<path d="M12 3C16.6763 3.00008 20.5184 6.56667 20.9571 11.1279L21.793 10.293C22.1835 9.90247 22.8166 9.90245 23.2071 10.293C23.5976 10.6835 23.5976 11.3165 23.2071 11.707L20.7071 14.207C20.341 14.5731 19.762 14.5957 19.3692 14.2754L19.293 14.207L16.793 11.707C16.4025 11.3165 16.4025 10.6835 16.793 10.293C17.1835 9.90247 17.8166 9.90245 18.2071 10.293L18.9297 11.0156C18.4511 7.61588 15.5318 5.00008 12 5C9.81739 5.00003 7.86838 5.99829 6.58305 7.56641C6.2329 7.99327 5.60286 8.0551 5.17583 7.70508C4.74885 7.35496 4.68616 6.72493 5.03618 6.29785C6.68508 4.28625 9.19296 3.00003 12 3Z" fill="#1A1A1A"/>
</svg>
