<svg width="24" height="24" viewBox="0 0 24 24" fill="none" xmlns="http://www.w3.org/2000/svg">
<path d="M13 3C13 2.44772 12.5523 2 12 2C11.4477 2 11 2.44772 11 3V21C11 21.5523 11.4477 22 12 22C12.5523 22 13 21.5523 13 21V3Z" fill="#1A1A1A"/>
<path d="M5.20717 7.79289C4.81664 7.40237 4.18348 7.40237 3.79295 7.79289L0.292893 11.293C0.105357 11.4805 0 11.7348 0 12.0001C0 12.2653 0.105357 12.5196 0.292893 12.7072L3.79295 16.2072C4.18348 16.5978 4.81664 16.5978 5.20717 16.2072C5.59769 15.8167 5.59769 15.1835 5.20717 14.793L3.41421 13.0001H8.5C9.05229 13.0001 9.5 12.5523 9.5 12.0001C9.5 11.4478 9.05229 11.0001 8.5 11.0001H3.41421L5.20717 9.20711C5.59769 8.81658 5.59769 8.18342 5.20717 7.79289Z" fill="#1A1A1A"/>
<path d="M18.7928 7.79289C19.1834 7.40237 19.8165 7.40237 20.207 7.79289L23.7071 11.293C23.8946 11.4805 24 11.7348 24 12.0001C24 12.2653 23.8946 12.5196 23.7071 12.7072L20.207 16.2072C19.8165 16.5978 19.1834 16.5978 18.7928 16.2072C18.4023 15.8167 18.4023 15.1835 18.7928 14.793L20.5858 13.0001H15.5C14.9477 13.0001 14.5 12.5523 14.5 12.0001C14.5 11.4478 14.9477 11.0001 15.5 11.0001H20.5858L18.7928 9.20711C18.4023 8.81658 18.4023 8.18342 18.7928 7.79289Z" fill="#1A1A1A"/>
</svg>
