<svg width="24" height="24" viewBox="0 0 24 24" fill="none" xmlns="http://www.w3.org/2000/svg">
<path d="M1.29289 8.29289C0.902369 8.68342 0.902369 9.31658 1.29289 9.70711C1.68342 10.0976 2.31658 10.0976 2.70711 9.70711L6 6.41421L6 20C6 20.5523 6.44772 21 7 21C7.55229 21 8 20.5523 8 20L8 6.41421L11.2929 9.70711C11.6834 10.0976 12.3166 10.0976 12.7071 9.70711C13.0976 9.31658 13.0976 8.68342 12.7071 8.29289L7.70711 3.29289C7.31658 2.90237 6.68342 2.90237 6.29289 3.29289L1.29289 8.29289Z" fill="#1A1A1A"/>
<path d="M12.7071 14.2929C12.3166 13.9024 11.6834 13.9024 11.2929 14.2929C10.9024 14.6834 10.9024 15.3166 11.2929 15.7071L16.2929 20.7071C16.6834 21.0976 17.3166 21.0976 17.7071 20.7071L22.7071 15.7071C23.0976 15.3166 23.0976 14.6834 22.7071 14.2929C22.3166 13.9024 21.6834 13.9024 21.2929 14.2929L18 17.5858V4C18 3.44772 17.5523 3 17 3C16.4477 3 16 3.44772 16 4V17.5858L12.7071 14.2929Z" fill="#1A1A1A"/>
</svg>
