<svg width="24" height="24" viewBox="0 0 24 24" fill="none" xmlns="http://www.w3.org/2000/svg">
<rect width="24" height="24" fill="white"/>
<path fill-rule="evenodd" clip-rule="evenodd" d="M12 1C18.0751 1 23 5.92487 23 12C23 18.0751 18.0751 23 12 23C5.92487 23 1 18.0751 1 12C1 5.92487 5.92487 1 12 1ZM6.86426 12.6973C6.45012 12.6974 6.11426 13.0331 6.11426 13.4473C6.11441 13.8613 6.45021 14.1972 6.86426 14.1973H8.74219L5.78027 17.1592C5.48742 17.452 5.4875 17.9268 5.78027 18.2197C6.07317 18.5125 6.54796 18.5126 6.84082 18.2197L9.80371 15.2578V17.1377C9.80394 17.5516 10.1389 17.8865 10.5527 17.8867C10.9668 17.8867 11.3025 17.5517 11.3027 17.1377V13.4473C11.3027 13.2486 11.2244 13.0576 11.084 12.917C10.9434 12.7764 10.7516 12.6973 10.5527 12.6973H6.86426ZM13.4473 12.6973C13.2485 12.6974 13.0575 12.7765 12.917 12.917C12.7766 13.0576 12.6982 13.2486 12.6982 13.4473V17.1367C12.6982 17.5508 13.0333 17.8864 13.4473 17.8867C13.8615 17.8867 14.1973 17.5509 14.1973 17.1367V15.2578L17.1602 18.2197C17.453 18.5126 17.9278 18.5125 18.2207 18.2197C18.5135 17.9268 18.5136 17.452 18.2207 17.1592L15.2578 14.1973H17.1367C17.5507 14.1971 17.8865 13.8612 17.8867 13.4473C17.8867 13.0331 17.5508 12.6974 17.1367 12.6973H13.4473ZM6.8418 5.78027C6.54894 5.48742 6.07415 5.48749 5.78125 5.78027C5.48848 6.07318 5.4884 6.54797 5.78125 6.84082L8.74316 9.80371H6.86328C6.44943 9.80396 6.1145 10.1389 6.11426 10.5527C6.11427 10.9668 6.44927 11.3025 6.86328 11.3027H10.5537C10.9679 11.3027 11.3037 10.9669 11.3037 10.5527V6.86426C11.3036 6.45012 10.9679 6.11426 10.5537 6.11426C10.1397 6.11444 9.8038 6.45024 9.80371 6.86426V8.74219L6.8418 5.78027ZM18.2197 5.78027C17.9268 5.48743 17.4521 5.4874 17.1592 5.78027L14.1973 8.74219V6.86426C14.1972 6.45028 13.8612 6.1145 13.4473 6.11426C13.0331 6.11426 12.6974 6.45012 12.6973 6.86426V10.5527C12.6973 10.9669 13.0331 11.3027 13.4473 11.3027H17.1367C17.5509 11.3027 17.8867 10.9669 17.8867 10.5527C17.8865 10.1387 17.5508 9.80372 17.1367 9.80371H15.2578L18.2197 6.84082C18.5126 6.54797 18.5125 6.07318 18.2197 5.78027Z" fill="#1A1A1A"/>
</svg>
