<svg width="24" height="24" viewBox="0 0 24 24" fill="none" xmlns="http://www.w3.org/2000/svg">
<path d="M10.5013 12.5001C11.0536 12.5001 11.5013 12.9478 11.5013 13.5001V19.5001C11.5012 20.0523 11.0535 20.5001 10.5013 20.5001C9.94921 20.4999 9.50137 20.0522 9.50127 19.5001V15.9142L3.70635 21.7091C3.31578 22.099 2.68261 22.0994 2.29229 21.7091C1.90207 21.3188 1.90242 20.6856 2.29229 20.295L8.08721 14.5001H4.50127C3.94921 14.4999 3.50137 14.0522 3.50127 13.5001C3.50127 12.948 3.94915 12.5003 4.50127 12.5001H10.5013Z" fill="#1A1A1A"/>
<path d="M20.2942 2.29309C20.6847 1.9026 21.3178 1.90266 21.7083 2.29309C22.0988 2.68361 22.0988 3.31663 21.7083 3.70715L15.9153 9.50012H19.5013C20.0536 9.50012 20.5013 9.94784 20.5013 10.5001C20.5012 11.0523 20.0535 11.5001 19.5013 11.5001H13.5013C13.2362 11.5 12.9817 11.3946 12.7942 11.2072C12.6068 11.0197 12.5013 10.7652 12.5013 10.5001V4.50012C12.5013 3.94795 12.9492 3.50031 13.5013 3.50012C14.0536 3.50012 14.5013 3.94783 14.5013 4.50012V8.08606L20.2942 2.29309Z" fill="#1A1A1A"/>
</svg>
