<svg width="24" height="24" viewBox="0 0 24 24" fill="none" xmlns="http://www.w3.org/2000/svg">
<path d="M20.6309 9.72461C20.2381 9.40429 19.6591 9.42686 19.293 9.79297L16.793 12.293C16.4025 12.6835 16.4025 13.3165 16.793 13.707C17.1835 14.0975 17.8165 14.0975 18.2071 13.707L18.9307 12.9834C18.4525 16.3837 15.5321 18.9999 12 19C9.81742 18.9999 7.86833 18.0017 6.58303 16.4336C6.23286 16.0068 5.60281 15.9449 5.1758 16.2949C4.74892 16.645 4.68622 17.2751 5.03615 17.7021C6.68503 19.7137 9.19298 20.9999 12 21C16.6766 20.9999 20.5199 17.4329 20.958 12.8711L21.793 13.707C22.1835 14.0975 22.8165 14.0975 23.2071 13.707C23.5976 13.3165 23.5976 12.6835 23.2071 12.293L20.7071 9.79297L20.6309 9.72461Z" fill="#1A1A1A"/>
<path d="M12 3C7.32377 3.00008 3.48164 6.56667 3.04299 11.1279L2.20705 10.293C1.81653 9.90247 1.18351 9.90245 0.792989 10.293C0.402503 10.6835 0.402497 11.3165 0.792989 11.707L3.29299 14.207C3.65909 14.5731 4.23811 14.5957 4.63088 14.2754L4.70705 14.207L7.20705 11.707C7.59758 11.3165 7.59758 10.6835 7.20705 10.293C6.81653 9.90247 6.18351 9.90245 5.79299 10.293L5.07033 11.0156C5.54895 7.61588 8.46829 5.00008 12 5C14.1827 5.00003 16.1317 5.99829 17.417 7.56641C17.7672 7.99327 18.3972 8.0551 18.8242 7.70508C19.2512 7.35496 19.3139 6.72493 18.9639 6.29785C17.315 4.28625 14.8071 3.00003 12 3Z" fill="#1A1A1A"/>
</svg>
