<svg width="24" height="24" viewBox="0 0 24 24" fill="none" xmlns="http://www.w3.org/2000/svg">
<path d="M13.4996 12.5001C12.9474 12.5001 12.4996 12.9478 12.4996 13.5001V19.5001C12.4997 20.0523 12.9474 20.5001 13.4996 20.5001C14.0517 20.4999 14.4995 20.0522 14.4996 19.5001V15.9142L20.2946 21.7091C20.6851 22.099 21.3183 22.0994 21.7086 21.7091C22.0989 21.3188 22.0985 20.6856 21.7086 20.295L15.9137 14.5001H19.4996C20.0517 14.4999 20.4995 14.0522 20.4996 13.5001C20.4996 12.948 20.0518 12.5003 19.4996 12.5001H13.4996Z" fill="#1A1A1A"/>
<path d="M3.70667 2.29309C3.31618 1.9026 2.68314 1.90266 2.29261 2.29309C1.90209 2.68361 1.90209 3.31663 2.29261 3.70715L8.08558 9.50012H4.49964C3.94736 9.50012 3.49964 9.94784 3.49964 10.5001C3.49973 11.0523 3.94742 11.5001 4.49964 11.5001H10.4996C10.7647 11.5 11.0192 11.3946 11.2067 11.2072C11.3941 11.0197 11.4996 10.7652 11.4996 10.5001V4.50012C11.4996 3.94795 11.0518 3.50031 10.4996 3.50012C9.94736 3.50012 9.49964 3.94783 9.49964 4.50012V8.08606L3.70667 2.29309Z" fill="#1A1A1A"/>
</svg>
