<svg width="24" height="24" viewBox="0 0 24 24" fill="none" xmlns="http://www.w3.org/2000/svg">
<path d="M1 5C1 4.44772 1.44772 4 2 4C2.55228 4 3 4.44772 3 5V19C3 19.5523 2.55228 20 2 20C1.44772 20 1 19.5523 1 19V5Z" fill="#1A1A1A"/>
<path d="M11.7929 4.79289C12.1834 4.40237 12.8166 4.40237 13.2071 4.79289C13.5976 5.18342 13.5976 5.81658 13.2071 6.20711L8.41421 11H22.5C23.0523 11 23.5 11.4477 23.5 12C23.5 12.5523 23.0523 13 22.5 13H8.41421L13.2071 17.7929C13.5976 18.1834 13.5976 18.8166 13.2071 19.2071C12.8166 19.5976 12.1834 19.5976 11.7929 19.2071L5.29289 12.7071C4.90237 12.3166 4.90237 11.6834 5.29289 11.2929L11.7929 4.79289Z" fill="#1A1A1A"/>
</svg>
