<svg width="24" height="24" viewBox="0 0 24 24" fill="none" xmlns="http://www.w3.org/2000/svg">
<g clip-path="url(#clip0_1092_1127)">
<path d="M16.2072 5.20723C16.5977 4.8167 16.5977 4.18354 16.2072 3.79302L12.7071 0.292954C12.5196 0.105418 12.2652 6.10352e-05 12 6.10352e-05C11.7348 6.10352e-05 11.4804 0.105418 11.2929 0.292954L7.79283 3.79302C7.40231 4.18354 7.40231 4.8167 7.79283 5.20723C8.18336 5.59775 8.81652 5.59775 9.20705 5.20723L11 3.41427V8.50006C11 9.05235 11.4477 9.50006 12 9.50006C12.5523 9.50006 13 9.05235 13 8.50006L13 3.41427L14.793 5.20723C15.1835 5.59775 15.8166 5.59775 16.2072 5.20723Z" fill="#1A1A1A"/>
<path d="M16.2072 18.7929C16.5977 19.1834 16.5977 19.8166 16.2072 20.2071L12.7071 23.7072C12.5196 23.8947 12.2652 24.0001 12 24.0001C11.7348 24.0001 11.4804 23.8947 11.2929 23.7072L7.79283 20.2071C7.40231 19.8166 7.40231 19.1834 7.79283 18.7929C8.18336 18.4024 8.81652 18.4024 9.20705 18.7929L11 20.5858V15.5001C11 14.9478 11.4477 14.5001 12 14.5001C12.5523 14.5001 13 14.9478 13 15.5001V20.5858L14.793 18.7929C15.1835 18.4024 15.8166 18.4024 16.2072 18.7929Z" fill="#1A1A1A"/>
<path d="M21 13C21.5523 13 22 12.5523 22 12C22 11.4477 21.5523 11 21 11L3 11C2.44772 11 2 11.4477 2 12C2 12.5523 2.44772 13 3 13L21 13Z" fill="#1A1A1A"/>
</g>
<defs>
<clipPath id="clip0_1092_1127">
<rect width="24" height="24" fill="white"/>
</clipPath>
</defs>
</svg>
