<svg width="24" height="24" viewBox="0 0 24 24" fill="none" xmlns="http://www.w3.org/2000/svg">
<path fill-rule="evenodd" clip-rule="evenodd" d="M12 23C18.0751 23 23 18.0751 23 12C23 5.92487 18.0751 1 12 1C5.92487 1 1 5.92487 1 12C1 18.0751 5.92487 23 12 23ZM10.7929 6.29289C11.1834 5.90237 11.8166 5.90237 12.2071 6.29289C12.5976 6.68342 12.5976 7.31658 12.2071 7.70711L8.91421 11H18.5C19.0523 11 19.5 11.4477 19.5 12C19.5 12.5523 19.0523 13 18.5 13H8.91421L12.2071 16.2929C12.5976 16.6834 12.5976 17.3166 12.2071 17.7071C11.8166 18.0976 11.1834 18.0976 10.7929 17.7071L5.79289 12.7071C5.40237 12.3166 5.40237 11.6834 5.79289 11.2929L10.7929 6.29289Z" fill="#1A1A1A"/>
</svg>
