<svg width="24" height="24" viewBox="0 0 24 24" fill="none" xmlns="http://www.w3.org/2000/svg">
<path d="M9.79492 12.793C10.1855 12.4028 10.8186 12.4026 11.209 12.793C11.5992 13.1834 11.5991 13.8165 11.209 14.207L5.41406 20.002H9C9.55228 20.002 10 20.4497 10 21.002C9.9998 21.5541 9.55216 22.002 9 22.002H3C2.44784 22.002 2.0002 21.5541 2 21.002V15.002C2 14.4497 2.44772 14.002 3 14.002C3.55228 14.002 4 14.4497 4 15.002V18.5879L9.79492 12.793Z" fill="#1A1A1A"/>
<path d="M21.002 2C21.267 2.0001 21.5215 2.10552 21.709 2.29297C21.8964 2.48049 22.002 2.73487 22.002 3V9C22.002 9.55216 21.5541 9.99979 21.002 10C20.4497 10 20.002 9.55228 20.002 9V5.41406L14.209 11.207C13.8185 11.5975 13.1855 11.5974 12.7949 11.207C12.4044 10.8165 12.4044 10.1835 12.7949 9.79297L18.5879 4H15.002C14.4497 4 14.002 3.55228 14.002 3C14.002 2.44772 14.4497 2 15.002 2H21.002Z" fill="#1A1A1A"/>
</svg>
