<svg width="24" height="24" viewBox="0 0 24 24" fill="none" xmlns="http://www.w3.org/2000/svg">
<path fill-rule="evenodd" clip-rule="evenodd" d="M12 1C18.0751 1 23 5.92487 23 12C23 18.0751 18.0751 23 12 23C5.92487 23 1 18.0751 1 12C1 5.92487 5.92487 1 12 1ZM9.1716 17.2426C8.61931 17.2426 8.1716 16.7949 8.1716 16.2426C8.1716 15.6904 8.61931 15.2426 9.1716 15.2426H13.8285L7.05028 8.46447C6.65975 8.07394 6.65975 7.44078 7.05028 7.05025C7.4408 6.65973 8.07397 6.65973 8.46449 7.05025L15.2427 13.8284V9.17157C15.2427 8.61929 15.6904 8.17157 16.2427 8.17157C16.795 8.17157 17.2427 8.61929 17.2427 9.17157V16.2426C17.2427 16.7949 16.795 17.2426 16.2427 17.2426H9.1716Z" fill="#1A1A1A"/>
</svg>
