<svg width="24" height="24" viewBox="0 0 24 24" fill="none" xmlns="http://www.w3.org/2000/svg">
<path fill-rule="evenodd" clip-rule="evenodd" d="M12 23C18.0751 23 23 18.0751 23 12C23 5.92487 18.0751 1 12 1C5.92487 1 1 5.92487 1 12C1 18.0751 5.92487 23 12 23ZM13 5C13 4.44772 12.5523 4 12 4C11.4477 4 11 4.44772 11 5V19C11 19.5523 11.4477 20 12 20C12.5523 20 13 19.5523 13 19V5ZM5.71967 8.46967C6.01256 8.17678 6.48744 8.17678 6.78033 8.46967C7.07322 8.76256 7.07322 9.23744 6.78033 9.53033L5.06066 11.25H8.75C9.16421 11.25 9.5 11.5858 9.5 12C9.5 12.4142 9.16421 12.75 8.75 12.75H5.06066L6.78033 14.4697C7.07322 14.7626 7.07322 15.2374 6.78033 15.5303C6.48744 15.8232 6.01256 15.8232 5.71967 15.5303L2.71967 12.5303C2.42678 12.2374 2.42678 11.7626 2.71967 11.4697L5.71967 8.46967ZM17.2197 8.46967C17.5126 8.17678 17.9874 8.17678 18.2803 8.46967L21.2803 11.4697C21.5732 11.7626 21.5732 12.2374 21.2803 12.5303L18.2803 15.5303C17.9874 15.8232 17.5126 15.8232 17.2197 15.5303C16.9268 15.2374 16.9268 14.7626 17.2197 14.4697L18.9393 12.75H15.25C14.8358 12.75 14.5 12.4142 14.5 12C14.5 11.5858 14.8358 11.25 15.25 11.25H18.9393L17.2197 9.53033C16.9268 9.23744 16.9268 8.76256 17.2197 8.46967Z" fill="#1A1A1A"/>
</svg>
