<svg width="24" height="24" viewBox="0 0 24 24" fill="none" xmlns="http://www.w3.org/2000/svg">
<path fill-rule="evenodd" clip-rule="evenodd" d="M12 23C18.0751 23 23 18.0751 23 12C23 5.92487 18.0751 1 12 1C5.92487 1 1 5.92487 1 12C1 18.0751 5.92487 23 12 23ZM5.81281 10.8055C5.3986 10.8055 5.06281 10.4697 5.06281 10.0555V5.81287C5.06281 5.39865 5.3986 5.06287 5.81281 5.06287H10.0555C10.4697 5.06287 10.8055 5.39865 10.8055 5.81287C10.8055 6.22708 10.4697 6.56287 10.0555 6.56287H7.62347L10.2322 9.17162C10.5251 9.46452 10.5251 9.93939 10.2322 10.2323C9.93934 10.5252 9.46446 10.5252 9.17157 10.2323L6.56281 7.62353L6.56281 10.0555C6.56281 10.4697 6.22703 10.8055 5.81281 10.8055ZM17.6568 7.75739C18.0474 7.36687 18.0474 6.7337 17.6568 6.34318C17.2663 5.95265 16.6332 5.95265 16.2426 6.34318L6.34314 16.2427C5.95262 16.6332 5.95262 17.2664 6.34314 17.6569C6.73367 18.0474 7.36683 18.0474 7.75736 17.6569L17.6568 7.75739ZM13.9445 18.9372C13.5303 18.9372 13.1945 18.6014 13.1945 18.1872C13.1945 17.773 13.5303 17.4372 13.9445 17.4372L16.3765 17.4372L13.7678 14.8285C13.4749 14.5356 13.4749 14.0607 13.7678 13.7678C14.0607 13.4749 14.5355 13.4749 14.8284 13.7678L17.4372 16.3766V13.9446C17.4372 13.5304 17.773 13.1946 18.1872 13.1946C18.6014 13.1946 18.9372 13.5304 18.9372 13.9446L18.9372 18.1872C18.9372 18.6014 18.6014 18.9372 18.1872 18.9372L13.9445 18.9372Z" fill="#1A1A1A"/>
</svg>
