<svg width="24" height="24" viewBox="0 0 24 24" fill="none" xmlns="http://www.w3.org/2000/svg">
<path fill-rule="evenodd" clip-rule="evenodd" d="M12 1C18.0751 1 23 5.92487 23 12C23 18.0751 18.0751 23 12 23C5.92487 23 1 18.0751 1 12C1 5.92487 5.92487 1 12 1ZM12.2929 13.2929C12.6834 12.9024 13.3166 12.9024 13.7071 13.2929L15 14.5858V7C15 6.44772 15.4477 6 16 6C16.5523 6 17 6.44772 17 7V14.5858L18.2929 13.2929C18.6834 12.9024 19.3166 12.9024 19.7071 13.2929C20.0976 13.6834 20.0976 14.3166 19.7071 14.7071L16.7071 17.7071C16.3166 18.0976 15.6834 18.0976 15.2929 17.7071L12.2929 14.7071C11.9024 14.3166 11.9024 13.6834 12.2929 13.2929ZM4.29289 9.29289C3.90237 9.68342 3.90237 10.3166 4.29289 10.7071C4.68342 11.0976 5.31658 11.0976 5.70711 10.7071L7 9.41421V17C7 17.5523 7.44772 18 8 18C8.55228 18 9 17.5523 9 17V9.41421L10.2929 10.7071C10.6834 11.0976 11.3166 11.0976 11.7071 10.7071C12.0976 10.3166 12.0976 9.68342 11.7071 9.29289L8.70711 6.29289C8.31658 5.90237 7.68342 5.90237 7.29289 6.29289L4.29289 9.29289Z" fill="#1A1A1A"/>
</svg>
