<svg width="24" height="24" viewBox="0 0 24 24" fill="none" xmlns="http://www.w3.org/2000/svg">
<path fill-rule="evenodd" clip-rule="evenodd" d="M12 1C5.92487 1 1 5.92487 1 12C1 18.0751 5.92487 23 12 23C18.0751 23 23 18.0751 23 12C23 5.92487 18.0751 1 12 1ZM17.4912 12.5C17.9052 12.5002 18.2411 12.836 18.2412 13.25C18.2411 13.664 17.9052 13.9998 17.4912 14H15.0596L18.2188 17.1602C18.5116 17.453 18.5116 17.9278 18.2188 18.2207C17.9258 18.5135 17.4511 18.5136 17.1582 18.2207L13.998 15.0605V17.4932C13.9978 17.9069 13.6627 18.2428 13.249 18.2432C12.835 18.2432 12.4993 17.9071 12.499 17.4932V13.25C12.4991 13.0512 12.5773 12.8603 12.7178 12.7197C12.8584 12.5791 13.0501 12.5 13.249 12.5H17.4912ZM5.7793 5.78125C6.07219 5.48838 6.54696 5.48836 6.83984 5.78125L9.99805 8.93945V6.50781C9.99805 6.0937 10.334 5.75797 10.748 5.75781C11.1622 5.75786 11.498 6.09363 11.498 6.50781V10.75C11.498 10.9489 11.4189 11.1396 11.2783 11.2803C11.1377 11.4208 10.9469 11.5 10.748 11.5H6.50586C6.09168 11.5 5.75591 11.1642 5.75586 10.75C5.75589 10.3358 6.09167 10 6.50586 10H8.9375L5.7793 6.8418C5.48644 6.54894 5.48652 6.07415 5.7793 5.78125Z" fill="#1A1A1A"/>
</svg>
