<svg width="24" height="24" viewBox="0 0 24 24" fill="none" xmlns="http://www.w3.org/2000/svg">
<path fill-rule="evenodd" clip-rule="evenodd" d="M12 1C5.92487 1 1 5.92487 1 12C1 18.0751 5.92487 23 12 23C18.0751 23 23 18.0751 23 12C23 5.92487 18.0751 1 12 1ZM12.7178 12.7197C13.0106 12.4269 13.4854 12.4269 13.7783 12.7197L16.9385 15.8799V13.4473C16.9388 13.0334 17.2746 12.6974 17.6885 12.6973C18.1025 12.6973 18.4382 13.0333 18.4385 13.4473V17.6904C18.4384 17.8892 18.3593 18.0801 18.2188 18.2207C18.0781 18.3613 17.8873 18.4404 17.6885 18.4404H13.4453C13.0315 18.44 12.6964 18.1043 12.6963 17.6904C12.6964 17.2766 13.0315 16.9408 13.4453 16.9404H15.8779L12.7178 13.7803C12.425 13.4874 12.425 13.0126 12.7178 12.7197ZM10.5518 5.56152C10.9659 5.56152 11.3017 5.89735 11.3018 6.31152C11.3016 6.7256 10.9659 7.06152 10.5518 7.06152H8.12012L11.2783 10.2197C11.5712 10.5126 11.5712 10.9874 11.2783 11.2803C10.9854 11.573 10.5106 11.5731 10.2178 11.2803L7.05957 8.12207V10.5537C7.05957 10.9679 6.72375 11.3037 6.30957 11.3037C5.8954 11.3037 5.55957 10.9679 5.55957 10.5537V6.31152C5.5596 6.1127 5.63874 5.92187 5.7793 5.78125C5.91993 5.64062 6.11069 5.56155 6.30957 5.56152H10.5518Z" fill="#1A1A1A"/>
</svg>
