<svg width="24" height="24" viewBox="0 0 24 24" fill="none" xmlns="http://www.w3.org/2000/svg">
<path d="M15.7071 1.29289C15.3166 0.902369 14.6834 0.902369 14.2929 1.29289C13.9024 1.68342 13.9024 2.31658 14.2929 2.70711L17.5858 6H4C3.44772 6 3 6.44772 3 7C3 7.55228 3.44772 8 4 8H17.5858L14.2929 11.2929C13.9024 11.6834 13.9024 12.3166 14.2929 12.7071C14.6834 13.0976 15.3166 13.0976 15.7071 12.7071L20.7071 7.70711C21.0976 7.31658 21.0976 6.68342 20.7071 6.29289L15.7071 1.29289Z" fill="#1A1A1A"/>
<path d="M9.70711 12.7071C10.0976 12.3166 10.0976 11.6834 9.70711 11.2929C9.31658 10.9024 8.68342 10.9024 8.29289 11.2929L3.29289 16.2929C2.90237 16.6834 2.90237 17.3166 3.29289 17.7071L8.29289 22.7071C8.68342 23.0976 9.31658 23.0976 9.70711 22.7071C10.0976 22.3166 10.0976 21.6834 9.70711 21.2929L6.41421 18H20C20.5523 18 21 17.5523 21 17C21 16.4477 20.5523 16 20 16H6.41421L9.70711 12.7071Z" fill="#1A1A1A"/>
</svg>
