<svg width="24" height="24" viewBox="0 0 24 24" fill="none" xmlns="http://www.w3.org/2000/svg">
<path d="M1.79289 1.79289C1.98043 1.60536 2.23478 1.5 2.5 1.5H8.49999C9.05228 1.5 9.49999 1.94772 9.49999 2.5C9.49999 3.05228 9.05228 3.5 8.49999 3.5H4.91421L9.87867 8.46446C10.2692 8.85498 10.2692 9.48815 9.87867 9.87867C9.48815 10.2692 8.85498 10.2692 8.46446 9.87867L3.5 4.91421V8.5C3.5 9.05228 3.05228 9.5 2.5 9.5C1.94772 9.5 1.5 9.05228 1.5 8.5V2.5C1.5 2.23478 1.60536 1.98043 1.79289 1.79289Z" fill="#1A1A1A"/>
<path d="M22.5 21.5C22.5 22.0523 22.0523 22.5 21.5 22.5H15.5C14.9477 22.5 14.5 22.0523 14.5 21.5C14.5 20.9477 14.9477 20.5 15.5 20.5H19.0858L14.1213 15.5355C13.7308 15.145 13.7308 14.5118 14.1213 14.1213C14.5118 13.7308 15.145 13.7308 15.5355 14.1213L20.5 19.0858V15.5C20.5 14.9477 20.9477 14.5 21.5 14.5C22.0523 14.5 22.5 14.9477 22.5 15.5V21.5Z" fill="#1A1A1A"/>
<path d="M20.2071 5.20714C20.5976 4.81661 20.5976 4.18345 20.2071 3.79292C19.8166 3.4024 19.1834 3.4024 18.7929 3.79292L3.79289 18.7929C3.40237 19.1834 3.40237 19.8166 3.79289 20.2071C4.18342 20.5977 4.81658 20.5977 5.20711 20.2071L20.2071 5.20714Z" fill="#1A1A1A"/>
</svg>
