<svg width="24" height="24" viewBox="0 0 24 24" fill="none" xmlns="http://www.w3.org/2000/svg">
<path d="M9.29297 13.293C9.68344 12.9027 10.3165 12.9027 10.707 13.293C11.0973 13.6834 11.0973 14.3165 10.707 14.707L5.41406 20.002H8C8.55228 20.002 9 20.4497 9 21.002C8.99974 21.554 8.55212 22.002 8 22.002H3C2.44788 22.0019 2.00026 21.554 2 21.002V16.002C2 15.4497 2.44772 15.002 3 15.002C3.55228 15.002 4 15.4497 4 16.002V18.5879L9.29297 13.293Z" fill="#1A1A1A"/>
<path d="M13.2939 13.293C13.6844 12.9027 14.3175 12.9027 14.708 13.293L20.001 18.5879V16.002C20.001 15.4497 20.4487 15.002 21.001 15.002C21.5532 15.0021 22.001 15.4497 22.001 16.002V21.002C22.0008 21.554 21.5531 22.0019 21.001 22.002H16.001C15.4488 22.002 15.0012 21.5541 15.001 21.002C15.001 20.4497 15.4487 20.002 16.001 20.002H18.5869L13.2939 14.707C12.9036 14.3165 12.9035 13.6834 13.2939 13.293Z" fill="#1A1A1A"/>
<path d="M7.99902 2C8.5513 2 8.99902 2.44772 8.99902 3C8.99902 3.55228 8.5513 4 7.99902 4H5.41309L10.708 9.29297C11.0983 9.68344 11.0983 10.3165 10.708 10.707C10.3176 11.0975 9.68449 11.0974 9.29395 10.707L3.99902 5.41309V8C3.99902 8.55228 3.55131 9 2.99902 9C2.44682 8.9999 1.99902 8.55222 1.99902 8V3C1.99902 2.44778 2.44682 2.0001 2.99902 2H7.99902Z" fill="#1A1A1A"/>
<path d="M21.002 2C21.5541 2.0002 22.002 2.44784 22.002 3V8C22.002 8.55216 21.5541 8.9998 21.002 9C20.4497 9 20.002 8.55228 20.002 8V5.41309L14.707 10.707C14.3165 11.0973 13.6834 11.0974 13.293 10.707C12.9027 10.3165 12.9027 9.68344 13.293 9.29297L18.5879 4H16.002C15.4497 4 15.002 3.55228 15.002 3C15.002 2.44772 15.4497 2 16.002 2H21.002Z" fill="#1A1A1A"/>
</svg>
