<svg width="24" height="24" viewBox="0 0 24 24" fill="none" xmlns="http://www.w3.org/2000/svg">
<path fill-rule="evenodd" clip-rule="evenodd" d="M12 1C18.0751 1 23 5.92487 23 12C23 18.0751 18.0751 23 12 23C5.92487 23 1 18.0751 1 12C1 5.92487 5.92487 1 12 1ZM12.2929 10.7071C11.9024 10.3166 11.9024 9.68342 12.2929 9.29289L15.2929 6.29289C15.6834 5.90237 16.3166 5.90237 16.7071 6.29289L19.7071 9.29289C20.0976 9.68342 20.0976 10.3166 19.7071 10.7071C19.3166 11.0976 18.6834 11.0976 18.2929 10.7071L17 9.41421V17C17 17.5523 16.5523 18 16 18C15.4477 18 15 17.5523 15 17V9.41421L13.7071 10.7071C13.3166 11.0976 12.6834 11.0976 12.2929 10.7071ZM4.29289 14.7071C3.90237 14.3166 3.90237 13.6834 4.29289 13.2929C4.68342 12.9024 5.31658 12.9024 5.70711 13.2929L7 14.5858V7C7 6.44772 7.44771 6 8 6C8.55228 6 9 6.44772 9 7V14.5858L10.2929 13.2929C10.6834 12.9024 11.3166 12.9024 11.7071 13.2929C12.0976 13.6834 12.0976 14.3166 11.7071 14.7071L8.70711 17.7071C8.31658 18.0976 7.68342 18.0976 7.29289 17.7071L4.29289 14.7071Z" fill="#1A1A1A"/>
</svg>
