<svg width="24" height="24" viewBox="0 0 24 24" fill="none" xmlns="http://www.w3.org/2000/svg">
<path fill-rule="evenodd" clip-rule="evenodd" d="M12 23C18.0751 23 23 18.0751 23 12C23 5.92487 18.0751 1 12 1C5.92487 1 1 5.92487 1 12C1 18.0751 5.92487 23 12 23ZM8.46967 6.78033C8.17678 6.48744 8.17678 6.01256 8.46967 5.71967L11.4697 2.71967C11.7626 2.42678 12.2374 2.42678 12.5303 2.71967L15.5303 5.71967C15.8232 6.01256 15.8232 6.48744 15.5303 6.78033C15.2374 7.07322 14.7626 7.07322 14.4697 6.78033L12.75 5.06066V8.75C12.75 9.16421 12.4142 9.5 12 9.5C11.5858 9.5 11.25 9.16421 11.25 8.75V5.06066L9.53033 6.78033C9.23744 7.07322 8.76256 7.07322 8.46967 6.78033ZM19 13C19.5523 13 20 12.5523 20 12C20 11.4477 19.5523 11 19 11L5 11C4.44772 11 4 11.4477 4 12C4 12.5523 4.44772 13 5 13L19 13ZM8.46967 18.2803C8.17678 17.9874 8.17678 17.5126 8.46967 17.2197C8.76256 16.9268 9.23744 16.9268 9.53033 17.2197L11.25 18.9393V15.25C11.25 14.8358 11.5858 14.5 12 14.5C12.4142 14.5 12.75 14.8358 12.75 15.25V18.9393L14.4697 17.2197C14.7626 16.9268 15.2374 16.9268 15.5303 17.2197C15.8232 17.5126 15.8232 17.9874 15.5303 18.2803L12.5303 21.2803C12.2374 21.5732 11.7626 21.5732 11.4697 21.2803L8.46967 18.2803Z" fill="#1A1A1A"/>
</svg>
