<svg width="24" height="24" viewBox="0 0 24 24" fill="none" xmlns="http://www.w3.org/2000/svg">
<path fill-rule="evenodd" clip-rule="evenodd" d="M13 2C14.1046 2 15 2.89543 15 4V19.5H16.5V10C16.5 8.89543 17.3954 8 18.5 8H20.5C21.6046 8 22.5 8.89543 22.5 10V19.5L22.6025 19.5049C23.1067 19.5562 23.5 19.9823 23.5 20.5C23.5 21.0523 23.0523 21.5 22.5 21.5H1.5C0.947716 21.5 0.500001 21.0523 0.5 20.5C0.5 19.9823 0.893332 19.5562 1.39746 19.5049L1.5 19.5V8C1.5 6.89543 2.39543 6 3.5 6H5.5C6.60457 6 7.5 6.89543 7.5 8V19.5H9V4C9 2.89543 9.89543 2 11 2H13ZM18.5 19.5H20.5V10H18.5V19.5ZM3.5 19.5H5.5V8H3.5V19.5ZM11 19.5H13V4H11V19.5Z" fill="#1A1A1A"/>
</svg>
