<svg width="24" height="24" viewBox="0 0 24 24" fill="none" xmlns="http://www.w3.org/2000/svg">
<path fill-rule="evenodd" clip-rule="evenodd" d="M16.048 4.9627C16.082 4.9824 16.1157 5.00235 16.1491 5.02253L14.6709 6.50069C14.002 6.19657 13.1345 6 12 6C10.6407 6 9.66467 6.28224 8.95421 6.69356C8.2466 7.10322 7.74357 7.67486 7.38051 8.3491C6.63226 9.73873 6.50004 11.5191 6.50004 13C6.50004 13.6471 6.45176 14.248 6.36912 14.8025L2.59326 18.5783C2.64075 18.4762 2.70595 18.3811 2.78791 18.298L2.79297 18.2926C2.80004 18.2851 2.81383 18.2701 2.8334 18.2478C2.87258 18.203 2.93477 18.1287 3.01254 18.025C3.1682 17.8175 3.38537 17.4933 3.60562 17.0528C4.04447 16.1751 4.50004 14.8272 4.50004 13C4.50004 11.4809 4.61783 9.26128 5.61957 7.4009C6.13152 6.45014 6.87849 5.58429 7.95213 4.9627C8.45089 4.67395 9.0073 4.44532 9.62524 4.28346C9.54398 4.03703 9.50001 3.77365 9.50001 3.5C9.50001 2.11929 10.6193 1 12 1C13.3807 1 14.5 2.11929 14.5 3.5C14.5 3.77364 14.456 4.03702 14.3748 4.28345C14.9928 4.44531 15.5492 4.67394 16.048 4.9627ZM12.8292 4.05911C12.6495 4.32511 12.3452 4.5 12 4.5C11.6433 4.5 11.3302 4.31324 11.1532 4.03217C11.0562 3.87805 11 3.69558 11 3.5C11 2.94772 11.4477 2.5 12 2.5C12.5523 2.5 13 2.94772 13 3.5C13 3.69558 12.9439 3.87805 12.8468 4.03217C12.8411 4.04125 12.8352 4.05023 12.8292 4.05911Z" fill="#1A1A1A"/>
<path fill-rule="evenodd" clip-rule="evenodd" d="M17.1402 9.68826L18.7159 8.11253C19.4098 9.80465 19.5 11.6706 19.5 13C19.5 14.8272 19.9556 16.1751 20.3945 17.0528C20.6147 17.4933 20.8319 17.8175 20.9875 18.025C21.0653 18.1287 21.1275 18.203 21.1667 18.2478L21.1793 18.2621L21.1908 18.2749L21.2071 18.2926L21.2112 18.297L21.2122 18.298C21.4941 18.584 21.5778 19.0112 21.4239 19.3827C21.2691 19.7564 20.9045 20 20.5 20H15.4912C15.363 21.8163 13.8489 23.25 12 23.25C10.1511 23.25 8.637 21.8163 8.50881 20H6.82843L8.82843 18H18.6322L18.6056 17.9472C18.0445 16.8249 17.5 15.1728 17.5 13C17.5 11.9639 17.4353 10.7812 17.1402 9.68826ZM12 21.75C10.9801 21.75 10.1385 20.9866 10.0155 20H13.9845C13.8615 20.9866 13.0199 21.75 12 21.75Z" fill="#1A1A1A"/>
<path d="M21.5303 3.53032C21.8232 3.23743 21.8232 2.76255 21.5303 2.46966C21.2374 2.17677 20.7626 2.17677 20.4697 2.46966L2.46967 20.4697C2.17678 20.7626 2.17678 21.2374 2.46967 21.5303C2.76256 21.8232 3.23744 21.8232 3.53033 21.5303L21.5303 3.53032Z" fill="#1A1A1A"/>
</svg>
