<svg width="24" height="24" viewBox="0 0 24 24" fill="none" xmlns="http://www.w3.org/2000/svg">
<path fill-rule="evenodd" clip-rule="evenodd" d="M14.3748 4.28345C14.456 4.03702 14.5 3.77364 14.5 3.5C14.5 2.11929 13.3807 1 12 1C10.6193 1 9.5 2.11929 9.5 3.5C9.5 3.77365 9.54397 4.03703 9.62522 4.28346C9.00728 4.44532 8.45088 4.67395 7.95212 4.9627C6.87848 5.58429 6.13151 6.45014 5.61956 7.4009C4.61782 9.26128 4.50003 11.4809 4.50003 13C4.50003 14.8272 4.04446 16.1751 3.6056 17.0528C3.38536 17.4933 3.16818 17.8175 3.01253 18.025C2.93475 18.1287 2.87257 18.203 2.83339 18.2478C2.81381 18.2701 2.80002 18.2851 2.79295 18.2926L2.7879 18.298C2.50593 18.584 2.42228 19.0112 2.57615 19.3827C2.73093 19.7564 3.09557 20 3.50003 20H8.50879C8.63699 21.8163 10.1511 23.25 12 23.25C13.8489 23.25 15.363 21.8163 15.4912 20H20.5C20.9045 20 21.2691 19.7564 21.4239 19.3827C21.5778 19.0112 21.4941 18.584 21.2122 18.298L21.2112 18.297L21.2071 18.2926L21.1908 18.2749C21.1873 18.2711 21.1835 18.2668 21.1793 18.2621C21.1754 18.2577 21.1712 18.2529 21.1667 18.2478C21.1275 18.203 21.0653 18.1287 20.9875 18.025C20.8319 17.8175 20.6147 17.4933 20.3945 17.0528C19.9556 16.1751 19.5 14.8272 19.5 13C19.5 11.4809 19.3822 9.26128 18.3805 7.4009C17.8686 6.45014 17.1216 5.58429 16.0479 4.9627C15.5492 4.67394 14.9927 4.44531 14.3748 4.28345ZM12.8292 4.05911C12.6495 4.32511 12.3452 4.5 12 4.5C11.6433 4.5 11.3302 4.31324 11.1532 4.03217C11.0561 3.87805 11 3.69558 11 3.5C11 2.94772 11.4477 2.5 12 2.5C12.5523 2.5 13 2.94772 13 3.5C13 3.69558 12.9439 3.87805 12.8468 4.03217C12.8411 4.04125 12.8352 4.05023 12.8292 4.05911ZM12 21.75C10.9801 21.75 10.1385 20.9866 10.0155 20H13.9845C13.8615 20.9866 13.0199 21.75 12 21.75ZM6.50003 13C6.50003 11.5191 6.63224 9.73873 7.3805 8.3491C7.74355 7.67486 8.24658 7.10322 8.95419 6.69356C9.66465 6.28224 10.6407 6 12 6C13.3594 6 14.3354 6.28224 15.0459 6.69356C15.7535 7.10322 16.2565 7.67486 16.6196 8.3491C17.3678 9.73873 17.5 11.5191 17.5 13C17.5 15.1728 18.0445 16.8249 18.6056 17.9472L18.6322 18H5.36785L5.39446 17.9472C5.9556 16.8249 6.50003 15.1728 6.50003 13Z" fill="#1A1A1A"/>
</svg>
