<svg width="24" height="24" viewBox="0 0 24 24" fill="none" xmlns="http://www.w3.org/2000/svg">
<path fill-rule="evenodd" clip-rule="evenodd" d="M14.382 3.76127C14.4586 3.52124 14.5 3.26545 14.5 3C14.5 1.61929 13.3807 0.5 12 0.5C10.6193 0.5 9.5 1.61929 9.5 3C9.5 3.26546 9.54137 3.52125 9.61802 3.76128C7.70124 4.22326 6.42735 5.26496 5.63625 6.62113C4.6159 8.37029 4.50003 10.4843 4.50003 12C4.50003 13.8272 4.04446 15.1751 3.6056 16.0528C3.38536 16.4933 3.16818 16.8175 3.01253 17.025C2.93475 17.1287 2.87257 17.203 2.83339 17.2477C2.81381 17.2701 2.80002 17.2851 2.79295 17.2926L2.7879 17.298C2.50593 17.5839 2.42228 18.0112 2.57615 18.3827C2.59658 18.432 2.62066 18.479 2.648 18.5236L16.5126 4.65892C15.913 4.26639 15.2071 3.96012 14.382 3.76127ZM12.8484 3.52954C12.9445 3.37598 13 3.19447 13 3C13 2.44772 12.5523 2 12 2C11.4477 2 11 2.44772 11 3C11 3.19448 11.0555 3.37598 11.1516 3.52955C11.3283 3.81208 11.6422 4 12 4C12.3452 4 12.6495 3.82511 12.8292 3.55911C12.8358 3.54937 12.8422 3.53952 12.8484 3.52954Z" fill="#1A1A1A"/>
<path d="M20.5 19H7.82842L18.9391 7.88932C19.4318 9.32172 19.5 10.837 19.5 12C19.5 13.8272 19.9556 15.1751 20.3945 16.0528C20.6147 16.4933 20.8319 16.8175 20.9875 17.025C21.0653 17.1287 21.1275 17.203 21.1667 17.2477C21.1862 17.2701 21.2 17.2851 21.2071 17.2926L21.2122 17.2979C21.4941 17.5839 21.5778 18.0112 21.4239 18.3827C21.2691 18.7564 20.9045 19 20.5 19Z" fill="#1A1A1A"/>
<path d="M12 23.25C10.4622 23.25 9.14068 22.3244 8.56201 21H15.4379C14.8593 22.3244 13.5377 23.25 12 23.25Z" fill="#1A1A1A"/>
<path d="M21.5303 3.53032C21.8232 3.23743 21.8232 2.76255 21.5303 2.46966C21.2374 2.17677 20.7626 2.17677 20.4697 2.46966L2.46967 20.4697C2.17678 20.7626 2.17678 21.2374 2.46967 21.5303C2.76256 21.8232 3.23744 21.8232 3.53033 21.5303L21.5303 3.53032Z" fill="#1A1A1A"/>
</svg>
