<svg width="24" height="24" viewBox="0 0 24 24" fill="none" xmlns="http://www.w3.org/2000/svg">
<path d="M13.8902 1.07926C14.3228 1.2626 14.5695 1.72244 14.4829 2.18429L13.4434 7.72819L11.0127 10.1589C10.9946 10.0464 10.9956 9.93033 11.0171 9.81571L11.6751 6.30633L6.93379 13H8.17159L6.17159 15H5C4.62613 15 4.28348 14.7914 4.11174 14.4593C3.94001 14.1272 3.96787 13.7271 4.18398 13.422L12.684 1.42198C12.9556 1.03853 13.4575 0.895916 13.8902 1.07926Z" fill="#1A1A1A"/>
<path d="M15.8284 11L17.8284 9H19C19.3739 9 19.7165 9.20856 19.8883 9.54066C20.06 9.87276 20.0321 10.2729 19.816 10.578L11.316 22.578C11.0444 22.9615 10.5425 23.1041 10.1098 22.9207C9.67718 22.7374 9.43053 22.2776 9.51713 21.8157L10.5566 16.2718L12.9873 13.8411C13.0054 13.9536 13.0044 14.0697 12.9829 14.1843L12.3249 17.6937L17.0662 11H15.8284Z" fill="#1A1A1A"/>
<path d="M21.5303 3.53034C21.8232 3.23745 21.8232 2.76258 21.5303 2.46968C21.2374 2.17679 20.7626 2.17679 20.4697 2.46968L2.46967 20.4697C2.17678 20.7626 2.17678 21.2374 2.46967 21.5303C2.76256 21.8232 3.23744 21.8232 3.53033 21.5303L21.5303 3.53034Z" fill="#1A1A1A"/>
</svg>
