<svg width="24" height="24" viewBox="0 0 24 24" fill="none" xmlns="http://www.w3.org/2000/svg">
<path fill-rule="evenodd" clip-rule="evenodd" d="M13.8902 1.07926C14.3228 1.2626 14.5695 1.72244 14.4829 2.18429L13.2049 9H19C19.3739 9 19.7165 9.20856 19.8883 9.54066C20.06 9.87276 20.0321 10.2729 19.816 10.578L11.316 22.578C11.0444 22.9615 10.5425 23.1041 10.1098 22.9207C9.67718 22.7374 9.43053 22.2776 9.51713 21.8157L10.7951 15H5C4.62613 15 4.28348 14.7914 4.11174 14.4593C3.94001 14.1272 3.96787 13.7271 4.18398 13.422L12.684 1.42198C12.9556 1.03853 13.4575 0.895916 13.8902 1.07926ZM6.93379 13H12C12.2975 13 12.5795 13.1324 12.7695 13.3614C12.9595 13.5903 13.0377 13.8919 12.9829 14.1843L12.3249 17.6937L17.0662 11H12C11.7025 11 11.4205 10.8676 11.2305 10.6386C11.0405 10.4097 10.9623 10.1081 11.0171 9.81571L11.6751 6.30633L6.93379 13Z" fill="#1A1A1A"/>
</svg>
