<svg width="24" height="24" viewBox="0 0 24 24" fill="none" xmlns="http://www.w3.org/2000/svg">
<path d="M14.4829 2.18429C14.5695 1.72244 14.3228 1.2626 13.8902 1.07926C13.4575 0.895916 12.9556 1.03853 12.684 1.42198L4.18398 13.422C3.96787 13.7271 3.94001 14.1272 4.11174 14.4593C4.28348 14.7914 4.62613 15 5 15H10.7951L9.51713 21.8157C9.43053 22.2776 9.67718 22.7374 10.1098 22.9207C10.5425 23.1041 11.0444 22.9615 11.316 22.578L19.816 10.578C20.0321 10.2729 20.06 9.87276 19.8883 9.54066C19.7165 9.20856 19.3739 9 19 9H13.2049L14.4829 2.18429Z" fill="#1A1A1A"/>
</svg>
