<svg width="24" height="24" viewBox="0 0 24 24" fill="none" xmlns="http://www.w3.org/2000/svg">
<path fill-rule="evenodd" clip-rule="evenodd" d="M11.9921 22.5C11.7387 22.4979 11.4901 22.3996 11.3018 22.2159C11.2931 22.2078 11.2356 22.1556 11.1266 22.0772C10.9793 21.9711 10.7375 21.8167 10.3934 21.658C9.70925 21.3422 8.60195 21 7 21C5.34674 21 4.19603 21.236 3.48159 21.4558C3.12375 21.5659 2.87317 21.6726 2.72179 21.7453C2.64604 21.7816 2.59491 21.8096 2.56743 21.8253C2.55498 21.8324 2.54736 21.837 2.5445 21.8388C2.23913 22.037 1.84971 22.0538 1.52814 21.8817C1.20298 21.7077 1 21.3688 1 21V5C1 4.73478 1.10536 4.48043 1.29289 4.29289C1.32796 4.25787 1.36205 4.22639 1.4205 4.17629C1.48876 4.11778 1.58316 4.04164 1.70476 3.95409C1.94806 3.77891 2.29997 3.55826 2.76844 3.34204C3.70925 2.90782 5.10195 2.5 7 2.5C8.95164 2.5 10.3812 3.06042 11.3366 3.64834C11.5928 3.80598 11.8134 3.96468 12 4.1136C12.1866 3.96468 12.4072 3.80598 12.6634 3.64834C13.6188 3.06042 15.0484 2.5 17 2.5C18.898 2.5 20.2907 2.90782 21.2316 3.34204C21.7 3.55826 22.0519 3.77891 22.2952 3.95409C22.4168 4.04164 22.5112 4.11778 22.5795 4.17629C22.6379 4.22639 22.672 4.25787 22.7071 4.29289C22.8946 4.48043 23 4.73478 23 5V21C23 21.3688 22.797 21.7077 22.4719 21.8817C22.1503 22.0538 21.7609 22.037 21.4555 21.8388C21.4555 21.8388 21.4517 21.8365 21.4483 21.8344C21.4444 21.8321 21.4392 21.829 21.4326 21.8253C21.4051 21.8096 21.354 21.7816 21.2782 21.7453C21.1268 21.6726 20.8763 21.5659 20.5184 21.4558C19.804 21.236 18.6533 21 17 21C15.398 21 14.2907 21.3422 13.6066 21.658C13.2625 21.8167 13.0207 21.9711 12.8734 22.0772C12.7671 22.1537 12.7098 22.2052 12.6989 22.2152C12.5149 22.3951 12.2528 22.4999 12.0009 22.5M3 19.5121V5.49035C3.14644 5.39454 3.34754 5.27751 3.60656 5.15796C4.29075 4.84218 5.39805 4.5 7 4.5C8.54836 4.5 9.61877 4.93958 10.2884 5.35166C10.6131 5.55147 10.8484 5.74793 11 5.89135V19.7398C10.0675 19.3459 8.74804 19 7 19C5.22401 19 3.90808 19.2442 3 19.5121ZM13 19.7398C13.9325 19.3459 15.252 19 17 19C18.776 19 20.0919 19.2442 21 19.5121V5.49035C20.8536 5.39454 20.6525 5.27751 20.3934 5.15796C19.7093 4.84218 18.602 4.5 17 4.5C15.4516 4.5 14.3812 4.93958 13.7116 5.35166C13.3869 5.55147 13.1516 5.74793 13 5.89135V19.7398Z" fill="#1A1A1A"/>
</svg>
