<svg width="24" height="24" viewBox="0 0 24 24" fill="none" xmlns="http://www.w3.org/2000/svg">
<path d="M11.25 5C11.25 4.86739 11.1973 4.74021 11.1036 4.64645C11.0732 4.61623 11.0412 4.58745 11.0089 4.55926C10.9532 4.51049 10.8731 4.44392 10.7688 4.36563C10.56 4.20908 10.2534 4.00516 9.84861 3.80279C9.03746 3.39721 7.83638 3 6.25 3C4.63285 3 3.41297 3.54043 2.59765 4.08397C2.19096 4.3551 1.88452 4.62713 1.6777 4.83395C1.57416 4.93748 1.49518 5.02509 1.44068 5.08867C1.40954 5.12501 1.37876 5.16173 1.35 5.2C1.28509 5.28655 1.25 5.39181 1.25 5.5V21.5C1.25 21.7022 1.37182 21.8846 1.55866 21.9619C1.74535 22.0393 1.95993 21.9969 2.10293 21.8542C2.15491 21.8051 2.2136 21.7539 2.33125 21.6656C2.49752 21.5409 2.75336 21.3698 3.09861 21.1972C3.78746 20.8528 4.83638 20.5 6.25 20.5C7.69341 20.5 8.7651 20.7404 9.46689 20.9743C9.81813 21.0914 10.0775 21.2072 10.2451 21.291C10.3637 21.3503 10.4228 21.383 10.4746 21.4173C10.6277 21.5184 10.824 21.5275 10.9859 21.4408C11.1485 21.3538 11.25 21.1844 11.25 21V5Z" fill="#1A1A1A"/>
<path d="M12.75 5C12.75 4.86739 12.8027 4.74021 12.8964 4.64645C12.9268 4.61623 12.9588 4.58745 12.9911 4.55926C13.0468 4.51049 13.1269 4.44392 13.2312 4.36563C13.44 4.20908 13.7466 4.00516 14.1514 3.80279C14.9625 3.39721 16.1636 3 17.75 3C19.3672 3 20.587 3.54043 21.4023 4.08397C21.809 4.3551 22.1155 4.62713 22.3223 4.83395C22.4258 4.93748 22.5048 5.02509 22.5593 5.08867C22.5905 5.12501 22.6212 5.16173 22.65 5.2C22.7149 5.28655 22.75 5.39181 22.75 5.5V21.5C22.75 21.7022 22.6282 21.8846 22.4413 21.9619C22.2546 22.0393 22.0401 21.9969 21.8971 21.8542C21.8451 21.8051 21.7864 21.7539 21.6688 21.6656C21.5025 21.5409 21.2466 21.3698 20.9014 21.1972C20.2125 20.8528 19.1636 20.5 17.75 20.5C16.3066 20.5 15.2349 20.7404 14.5331 20.9743C14.1819 21.0914 13.9225 21.2072 13.7549 21.291C13.6363 21.3503 13.5772 21.383 13.5254 21.4173C13.3723 21.5184 13.176 21.5275 13.0141 21.4408C12.8515 21.3538 12.75 21.1844 12.75 21V5Z" fill="#1A1A1A"/>
</svg>
