<svg width="24" height="24" viewBox="0 0 24 24" fill="none" xmlns="http://www.w3.org/2000/svg">
<path fill-rule="evenodd" clip-rule="evenodd" d="M8.81282 11.2114C7.88322 12.141 7.2867 12.9947 6.98709 13.7737C6.82623 13.7557 6.66011 13.7464 6.48895 13.7464C5.74256 13.7464 5.15457 13.933 4.67199 14.2742C4.21176 14.5997 3.89944 15.0318 3.64873 15.4048C3.59794 15.4804 3.54868 15.5547 3.50028 15.6278C3.05169 16.3051 2.67729 16.8703 1.8396 17.2453C1.525 17.3861 1.18042 17.7587 1.26119 18.2796C1.38105 19.0525 1.96264 19.7957 2.74833 20.3245C3.5592 20.8702 4.66438 21.2464 5.98895 21.2464C8.5817 21.2464 9.99737 19.3949 10.104 17.5394C10.1154 17.3414 10.1121 17.1419 10.0936 16.9436C10.6621 16.7327 11.2707 16.3628 11.9198 15.8198C12.1743 15.6069 12.435 15.3674 12.7019 15.1005C16.0975 11.7048 20.3499 5.68004 21.988 3.29827C22.6143 2.38763 21.5257 1.29895 20.615 1.92528C18.2332 3.56341 12.2085 7.81575 8.81282 11.2114ZM9.87348 12.272C12.3261 9.81942 16.2451 6.86701 19.0705 4.84276C17.0463 7.66815 14.0939 11.5872 11.6413 14.0398C11.527 14.154 11.4159 14.2608 11.3079 14.3605C11.1609 14.1161 10.9923 13.8797 10.8011 13.6545C10.4439 13.2336 10.029 12.8766 9.5675 12.5894C9.66299 12.4865 9.76486 12.3807 9.87348 12.272ZM2.88648 18.3921C3.01537 18.5989 3.2374 18.8455 3.58583 19.08C4.13902 19.4523 4.95029 19.7464 5.98895 19.7464C7.70638 19.7464 8.54071 18.5979 8.6065 17.4533C8.64009 16.869 8.46912 16.3157 8.1326 15.9191C7.80854 15.5373 7.29 15.2464 6.48895 15.2464C6.0122 15.2464 5.73611 15.3589 5.538 15.499C5.31753 15.6549 5.13254 15.8862 4.89365 16.2416C4.84787 16.3097 4.80077 16.3817 4.75168 16.4567C4.36443 17.0486 3.85328 17.8299 2.88648 18.3921Z" fill="#1A1A1A"/>
<path d="M21.6582 18.2528C18.7343 20.8095 14.9116 21.6158 10.7362 21.1281C11.2099 20.5573 11.5657 19.9067 11.7965 19.222C15.2071 19.4631 18.1418 18.6708 20.3417 16.7472C20.7575 16.3836 21.3893 16.426 21.7528 16.8417C22.1163 17.2575 22.074 17.8892 21.6582 18.2528Z" fill="#1A1A1A"/>
</svg>
