<svg width="24" height="24" viewBox="0 0 24 24" fill="none" xmlns="http://www.w3.org/2000/svg">
<path d="M11.8386 15.5386C11.627 14.8713 11.2871 14.2272 10.8012 13.6547C10.1516 12.8892 9.31125 12.3355 8.34692 12.0277C8.53519 11.8168 8.74072 11.6001 8.96368 11.3771C12.3493 7.99155 18.1833 3.5707 20.5902 1.9153C21.5008 1.28897 22.5895 2.37765 21.9632 3.28829C20.448 5.49125 16.6151 10.5625 13.3809 14.0019C13.0811 14.3207 12.7865 14.6255 12.4993 14.9127C12.2727 15.1393 12.0526 15.3479 11.8386 15.5386Z" fill="#1A1A1A"/>
<path d="M4.67199 14.2744C5.15457 13.9332 5.74256 13.7465 6.48895 13.7465C7.69195 13.7465 8.64563 14.2056 9.27628 14.9488C9.89448 15.6772 10.1567 16.6238 10.104 17.5396C9.99737 19.395 8.5817 21.2465 5.98895 21.2465C4.66438 21.2465 3.5592 20.8704 2.74833 20.3246C1.96264 19.7959 1.38105 19.0527 1.26119 18.2798C1.18042 17.7589 1.525 17.3863 1.8396 17.2455C2.67729 16.8705 3.05169 16.3053 3.50028 15.628C3.54868 15.5549 3.59794 15.4806 3.64873 15.405C3.89944 15.032 4.21176 14.5998 4.67199 14.2744Z" fill="#1A1A1A"/>
<path d="M21.6583 18.2552C18.7338 20.8123 14.9105 21.6185 10.7344 21.1303C11.2084 20.5596 11.5646 19.9091 11.7957 19.2243C15.2067 19.4656 18.1417 18.6734 20.3418 16.7496C20.7575 16.3861 21.3893 16.4284 21.7528 16.8442C22.1163 17.2599 22.074 17.8917 21.6583 18.2552Z" fill="#1A1A1A"/>
</svg>
