<svg width="24" height="24" viewBox="0 0 24 24" fill="none" xmlns="http://www.w3.org/2000/svg">
<path fill-rule="evenodd" clip-rule="evenodd" d="M13.0244 0.59455C12.4568 0.0261817 11.5432 0.0261822 10.9756 0.59455C10.6701 0.900431 10.1989 1.40955 9.79762 2.0125C9.414 2.58892 9 3.38896 9 4.24998C9 4.94845 9.22143 5.53026 9.54521 5.99057C9.92057 6.52419 10.4412 6.87395 11 7.05957V7.99998H4.5C2.84315 7.99998 1.5 9.34313 1.5 11V15.5244C1.61589 15.5244 1.73178 15.4843 1.8254 15.404L3.37303 14.0775C4.30925 13.275 5.69076 13.275 6.62698 14.0775L8.17461 15.404C8.36185 15.5645 8.63815 15.5645 8.8254 15.404L10.373 14.0775C11.3092 13.275 12.6908 13.275 13.627 14.0775L15.1746 15.404C15.3619 15.5645 15.6382 15.5645 15.8254 15.404L17.373 14.0775C18.3092 13.275 19.6908 13.275 20.627 14.0775L22.1746 15.404C22.2682 15.4843 22.3841 15.5244 22.5 15.5244V11C22.5 9.34313 21.1569 7.99998 19.5 7.99998H13V7.05957C13.5588 6.87395 14.0794 6.52419 14.4548 5.99057C14.7786 5.53026 15 4.94845 15 4.24998C15 3.38896 14.586 2.58892 14.2024 2.0125C13.8011 1.40955 13.3299 0.900431 13.0244 0.59455ZM11.4626 3.12059C11.6302 2.8688 11.82 2.63129 12 2.42557C12.18 2.63129 12.3698 2.8688 12.5374 3.12059C12.8544 3.59687 13 3.98889 13 4.24998C13 4.5031 12.9257 4.68807 12.8189 4.8399C12.6588 5.06758 12.3606 5.22076 12 5.22076C11.6394 5.22076 11.3412 5.06758 11.1811 4.8399C11.0743 4.68807 11 4.5031 11 4.24998C11 3.98889 11.1456 3.59687 11.4626 3.12059Z" fill="#1A1A1A"/>
<path d="M22.5 17.5244C21.9206 17.5244 21.3411 17.3238 20.873 16.9225L19.3254 15.596C19.1382 15.4355 18.8619 15.4355 18.6746 15.596L17.127 16.9225C16.1908 17.725 14.8092 17.725 13.873 16.9225L12.3254 15.596C12.1382 15.4355 11.8619 15.4355 11.6746 15.596L10.127 16.9225C9.19076 17.725 7.80925 17.725 6.87303 16.9225L5.3254 15.596C5.13815 15.4355 4.86185 15.4355 4.67461 15.596L3.12698 16.9225C2.65887 17.3238 2.07943 17.5244 1.5 17.5244V21H1C0.447715 21 0 21.4477 0 22C0 22.5523 0.447715 23 1 23H23C23.5523 23 24 22.5523 24 22C24 21.4477 23.5523 21 23 21H22.5V17.5244Z" fill="#1A1A1A"/>
</svg>
