<svg width="24" height="24" viewBox="0 0 24 24" fill="none" xmlns="http://www.w3.org/2000/svg">
<path fill-rule="evenodd" clip-rule="evenodd" d="M13.0244 0.59455C12.4568 0.0261817 11.5432 0.0261822 10.9756 0.59455C10.6701 0.900431 10.1989 1.40955 9.79762 2.0125C9.414 2.58892 9 3.38896 9 4.24998C9 4.94845 9.22143 5.53026 9.54521 5.99057C9.92057 6.52419 10.4412 6.87395 11 7.05957V7.99998H4.5C2.84315 7.99998 1.5 9.34313 1.5 11V21H1C0.447715 21 0 21.4477 0 22C0 22.5523 0.447715 23 1 23H23C23.5523 23 24 22.5523 24 22C24 21.4477 23.5523 21 23 21H22.5V11C22.5 9.34313 21.1569 7.99998 19.5 7.99998H13V7.05957C13.5588 6.87395 14.0794 6.52419 14.4548 5.99057C14.7786 5.53026 15 4.94845 15 4.24998C15 3.38896 14.586 2.58892 14.2024 2.0125C13.8011 1.40955 13.3299 0.900431 13.0244 0.59455ZM11.4626 3.12059C11.6302 2.8688 11.82 2.63129 12 2.42557C12.18 2.63129 12.3698 2.8688 12.5374 3.12059C12.8544 3.59687 13 3.98889 13 4.24998C13 4.5031 12.9257 4.68807 12.8189 4.8399C12.6588 5.06758 12.3606 5.22076 12 5.22076C11.6394 5.22076 11.3412 5.06758 11.1811 4.8399C11.0743 4.68807 11 4.5031 11 4.24998C11 3.98889 11.1456 3.59687 11.4626 3.12059ZM4.5 9.99998C3.94772 9.99998 3.5 10.4477 3.5 11V15.5858L4.23224 14.8535C5.20855 13.8772 6.79146 13.8772 7.76777 14.8535L8.64645 15.7322C8.84172 15.9275 9.1583 15.9275 9.35356 15.7322L10.2322 14.8535C11.2086 13.8772 12.7915 13.8772 13.7678 14.8535L14.6465 15.7322C14.8417 15.9275 15.1583 15.9275 15.3536 15.7322L16.2322 14.8535C17.2085 13.8772 18.7915 13.8772 19.7678 14.8535L20.5 15.5858V11C20.5 10.4477 20.0523 9.99998 19.5 9.99998H4.5ZM3.5 21V17.8284C3.96456 17.7341 4.40747 17.5067 4.76777 17.1464L5.64645 16.2678C5.84172 16.0725 6.1583 16.0725 6.35356 16.2678L7.23224 17.1464C8.20855 18.1227 9.79146 18.1227 10.7678 17.1464L11.6465 16.2678C11.8417 16.0725 12.1583 16.0725 12.3536 16.2678L13.2322 17.1464C14.2086 18.1227 15.7915 18.1227 16.7678 17.1464L17.6465 16.2678C17.8417 16.0725 18.1583 16.0725 18.3536 16.2678L19.2322 17.1464C19.5925 17.5067 20.0354 17.7341 20.5 17.8284V21H3.5Z" fill="#1A1A1A"/>
</svg>
