<svg width="24" height="24" viewBox="0 0 24 24" fill="none" xmlns="http://www.w3.org/2000/svg">
<path fill-rule="evenodd" clip-rule="evenodd" d="M9 1C9 0.447715 8.55228 0 8 0C7.44772 0 7 0.447715 7 1V2.5H4C2.34315 2.5 1 3.84315 1 5.5V19.5C1 21.1569 2.34315 22.5 4 22.5H20C21.6569 22.5 23 21.1569 23 19.5V5.5C23 3.84315 21.6569 2.5 20 2.5H17V1C17 0.447715 16.5523 0 16 0C15.4477 0 15 0.447715 15 1V2.5H9V1ZM3 5.5C3 4.94772 3.44772 4.5 4 4.5H20C20.5523 4.5 21 4.94772 21 5.5V8H3V5.5ZM5.5 15.75C5.5 15.6119 5.61193 15.5 5.75 15.5H8.25C8.38807 15.5 8.5 15.6119 8.5 15.75V18.25C8.5 18.3881 8.38807 18.5 8.25 18.5H5.75C5.61193 18.5 5.5 18.3881 5.5 18.25V15.75ZM10.5 10.75C10.5 10.6119 10.6119 10.5 10.75 10.5H13.25C13.3881 10.5 13.5 10.6119 13.5 10.75V13.25C13.5 13.3881 13.3881 13.5 13.25 13.5H10.75C10.6119 13.5 10.5 13.3881 10.5 13.25V10.75ZM5.5 10.75C5.5 10.6119 5.61193 10.5 5.75 10.5H8.25C8.38807 10.5 8.5 10.6119 8.5 10.75V13.25C8.5 13.3881 8.38807 13.5 8.25 13.5H5.75C5.61193 13.5 5.5 13.3881 5.5 13.25V10.75ZM10.5 15.75C10.5 15.6119 10.6119 15.5 10.75 15.5H13.25C13.3881 15.5 13.5 15.6119 13.5 15.75V18.25C13.5 18.3881 13.3881 18.5 13.25 18.5H10.75C10.6119 18.5 10.5 18.3881 10.5 18.25V15.75ZM15.5 10.75C15.5 10.6119 15.6119 10.5 15.75 10.5H18.25C18.3881 10.5 18.5 10.6119 18.5 10.75V13.25C18.5 13.3881 18.3881 13.5 18.25 13.5H15.75C15.6119 13.5 15.5 13.3881 15.5 13.25V10.75Z" fill="#1A1A1A"/>
</svg>
