<svg width="24" height="24" viewBox="0 0 24 24" fill="none" xmlns="http://www.w3.org/2000/svg">
<path fill-rule="evenodd" clip-rule="evenodd" d="M12 8C9.51472 8 7.5 10.0147 7.5 12.5C7.5 14.9853 9.51472 17 12 17C14.4853 17 16.5 14.9853 16.5 12.5C16.5 10.0147 14.4853 8 12 8ZM9.5 12.5C9.5 11.1193 10.6193 10 12 10C13.3807 10 14.5 11.1193 14.5 12.5C14.5 13.8807 13.3807 15 12 15C10.6193 15 9.5 13.8807 9.5 12.5Z" fill="#1A1A1A"/>
<path fill-rule="evenodd" clip-rule="evenodd" d="M10.1324 2.5C9.07859 2.5 8.10207 3.0529 7.5599 3.95651L7.22511 4.5145C7.04439 4.8157 6.71888 5 6.36762 5H4C2.34315 5 1 6.34315 1 8V18C1 19.6569 2.34315 21 4 21H20C21.6569 21 23 19.6569 23 18V8C23 6.34315 21.6569 5 20 5H17.6324C17.2811 5 16.9556 4.8157 16.7749 4.5145L16.4401 3.95651C15.8979 3.0529 14.9214 2.5 13.8676 2.5H10.1324ZM9.27489 4.9855C9.45561 4.6843 9.78112 4.5 10.1324 4.5H13.8676C14.2189 4.5 14.5444 4.6843 14.7251 4.9855L15.0599 5.54349C15.6021 6.4471 16.5786 7 17.6324 7H20C20.5523 7 21 7.44772 21 8V18C21 18.5523 20.5523 19 20 19H4C3.44772 19 3 18.5523 3 18V8C3 7.44772 3.44772 7 4 7H6.36762C7.42141 7 8.39793 6.4471 8.9401 5.54349L9.27489 4.9855Z" fill="#1A1A1A"/>
</svg>
