<svg width="24" height="24" viewBox="0 0 24 24" fill="none" xmlns="http://www.w3.org/2000/svg">
<path fill-rule="evenodd" clip-rule="evenodd" d="M12 0C13.3807 0 14.5 1.11929 14.5 2.5H15.5C16.0523 2.5 16.5 2.94772 16.5 3.5V4.5C16.5 5.05228 16.0523 5.5 15.5 5.5H8.5C7.94772 5.5 7.5 5.05228 7.5 4.5V3.5C7.5 2.94772 7.94772 2.5 8.5 2.5H9.5C9.5 1.11929 10.6193 0 12 0ZM12 1.5C12.5523 1.5 13 1.94772 13 2.5C13 3.05228 12.5523 3.5 12 3.5C11.4477 3.5 11 3.05228 11 2.5C11 1.94772 11.4477 1.5 12 1.5Z" fill="#1A1A1A"/>
<path d="M6.05001 3H6C4.34315 3 3 4.34315 3 6V20C3 21.6569 4.34315 23 6 23H18C19.6569 23 21 21.6569 21 20V6C21 4.34315 19.6569 3 18 3H17.95C17.9828 3.16156 18 3.32877 18 3.5V4.5C18 4.67123 17.9828 4.83845 17.95 5H18C18.5523 5 19 5.44772 19 6V20C19 20.5523 18.5523 21 18 21H6C5.44772 21 5 20.5523 5 20V6C5 5.44772 5.44772 5 6 5H6.05001C6.01722 4.83845 6 4.67123 6 4.5V3.5C6 3.32877 6.01722 3.16156 6.05001 3Z" fill="#1A1A1A"/>
<path d="M9 9C9 9.55229 8.55229 10 8 10C7.44772 10 7 9.55229 7 9C7 8.44771 7.44772 8 8 8C8.55229 8 9 8.44771 9 9Z" fill="#1A1A1A"/>
<path d="M8 18C8.55229 18 9 17.5523 9 17C9 16.4477 8.55229 16 8 16C7.44772 16 7 16.4477 7 17C7 17.5523 7.44772 18 8 18Z" fill="#1A1A1A"/>
<path d="M8 14C8.55229 14 9 13.5523 9 13C9 12.4477 8.55229 12 8 12C7.44772 12 7 12.4477 7 13C7 13.5523 7.44772 14 8 14Z" fill="#1A1A1A"/>
<path d="M10.25 9C10.25 8.58579 10.5858 8.25 11 8.25H16.25C16.6642 8.25 17 8.58579 17 9C17 9.41421 16.6642 9.75 16.25 9.75H11C10.5858 9.75 10.25 9.41421 10.25 9Z" fill="#1A1A1A"/>
<path d="M10.25 13C10.25 12.5858 10.5858 12.25 11 12.25H16.25C16.6642 12.25 17 12.5858 17 13C17 13.4142 16.6642 13.75 16.25 13.75H11C10.5858 13.75 10.25 13.4142 10.25 13Z" fill="#1A1A1A"/>
<path d="M10.25 17C10.25 16.5858 10.5858 16.25 11 16.25H16.25C16.6642 16.25 17 16.5858 17 17C17 17.4142 16.6642 17.75 16.25 17.75H11C10.5858 17.75 10.25 17.4142 10.25 17Z" fill="#1A1A1A"/>
</svg>
