<svg width="24" height="24" viewBox="0 0 24 24" fill="none" xmlns="http://www.w3.org/2000/svg">
<path d="M15.5 13.5C14.6716 13.5 14 14.1716 14 15C14 15.8284 14.6716 16.5 15.5 16.5H17.5C18.3284 16.5 19 15.8284 19 15C19 14.1716 18.3284 13.5 17.5 13.5H15.5Z" fill="#1A1A1A"/>
<path fill-rule="evenodd" clip-rule="evenodd" d="M1 6.5V17.5C1 19.1569 2.34315 20.5 4 20.5H20C21.6569 20.5 23 19.1569 23 17.5V6.5C23 4.84315 21.6569 3.5 20 3.5H4C2.34315 3.5 1 4.84315 1 6.5ZM4 5.5C3.44772 5.5 3 5.94772 3 6.5V8.5H21V6.5C21 5.94772 20.5523 5.5 20 5.5H4ZM21 17.5V10.5H3V17.5C3 18.0523 3.44772 18.5 4 18.5H20C20.5523 18.5 21 18.0523 21 17.5Z" fill="#1A1A1A"/>
</svg>
