<svg width="24" height="24" viewBox="0 0 24 24" fill="none" xmlns="http://www.w3.org/2000/svg">
<g clip-path="url(#clip0_1092_1174)">
<path d="M12 0.5C12.5523 0.5 13 0.947715 13 1.5V5.5C13 6.05228 12.5523 6.5 12 6.5C11.4477 6.5 11 6.05228 11 5.5V1.5C11 0.947715 11.4477 0.5 12 0.5Z" fill="#1A1A1A"/>
<path fill-rule="evenodd" clip-rule="evenodd" d="M9.74998 2.76801C6.31059 3.60331 3.60331 6.31059 2.76801 9.74998H5.49998C6.74262 9.74998 7.74998 10.7573 7.74998 12C7.74998 13.2426 6.74262 14.25 5.49998 14.25H2.76801C3.60331 17.6894 6.31059 20.3966 9.74998 21.2319V18.5C9.74998 17.2573 10.7573 16.25 12 16.25C13.2426 16.25 14.25 17.2573 14.25 18.5V21.2319C17.6894 20.3966 20.3966 17.6894 21.2319 14.25H18.5C17.2573 14.25 16.25 13.2426 16.25 12C16.25 10.7573 17.2573 9.74998 18.5 9.74998H21.2319C20.3966 6.31059 17.6894 3.60331 14.25 2.76801V5.49998C14.25 6.74262 13.2426 7.74998 12 7.74998C10.7573 7.74998 9.74998 6.74262 9.74998 5.49998V2.76801ZM12 14C13.1045 14 14 13.1045 14 12C14 10.8954 13.1045 9.99998 12 9.99998C10.8954 9.99998 9.99998 10.8954 9.99998 12C9.99998 13.1045 10.8954 14 12 14Z" fill="#1A1A1A"/>
<path d="M22.5 13C23.0523 13 23.5 12.5523 23.5 12C23.5 11.4477 23.0523 11 22.5 11H18.5C17.9477 11 17.5 11.4477 17.5 12C17.5 12.5523 17.9477 13 18.5 13H22.5Z" fill="#1A1A1A"/>
<path d="M12 17.5C12.5523 17.5 13 17.9477 13 18.5V22.5C13 23.0523 12.5523 23.5 12 23.5C11.4477 23.5 11 23.0523 11 22.5V18.5C11 17.9477 11.4477 17.5 12 17.5Z" fill="#1A1A1A"/>
<path d="M5.5 13C6.05228 13 6.5 12.5523 6.5 12C6.5 11.4477 6.05228 11 5.5 11H1.5C0.947715 11 0.5 11.4477 0.5 12C0.5 12.5523 0.947715 13 1.5 13H5.5Z" fill="#1A1A1A"/>
</g>
<defs>
<clipPath id="clip0_1092_1174">
<rect width="24" height="24" fill="white"/>
</clipPath>
</defs>
</svg>
