<svg width="24" height="24" viewBox="0 0 24 24" fill="none" xmlns="http://www.w3.org/2000/svg">
<g clip-path="url(#clip0_910_285)">
<path d="M12 14C13.1046 14 14 13.1046 14 12C14 10.8954 13.1046 10 12 10C10.8954 10 10 10.8954 10 12C10 13.1046 10.8954 14 12 14Z" fill="#1A1A1A"/>
<path fill-rule="evenodd" clip-rule="evenodd" d="M12 0.5C12.5523 0.5 13 0.947715 13 1.5V3.05493C17.1716 3.51608 20.4839 6.82838 20.9451 11H22.5C23.0523 11 23.5 11.4477 23.5 12C23.5 12.5523 23.0523 13 22.5 13H20.9451C20.4839 17.1716 17.1716 20.4839 13 20.9451V22.5C13 23.0523 12.5523 23.5 12 23.5C11.4477 23.5 11 23.0523 11 22.5V20.9451C6.82838 20.4839 3.51608 17.1716 3.05493 13H1.5C0.947715 13 0.5 12.5523 0.5 12C0.5 11.4477 0.947715 11 1.5 11H3.05493C3.51608 6.82838 6.82838 3.51608 11 3.05493V1.5C11 0.947715 11.4477 0.5 12 0.5ZM5.07089 13H6.5C7.05228 13 7.5 12.5523 7.5 12C7.5 11.4477 7.05228 11 6.5 11H5.07089C5.5094 7.93431 7.93431 5.5094 11 5.07089V6.5C11 7.05228 11.4477 7.5 12 7.5C12.5523 7.5 13 7.05228 13 6.5V5.07089C16.0657 5.5094 18.4906 7.93431 18.9291 11H17.5C16.9477 11 16.5 11.4477 16.5 12C16.5 12.5523 16.9477 13 17.5 13H18.9291C18.4906 16.0657 16.0657 18.4906 13 18.9291V17.5C13 16.9477 12.5523 16.5 12 16.5C11.4477 16.5 11 16.9477 11 17.5V18.9291C7.93431 18.4906 5.5094 16.0657 5.07089 13Z" fill="#1A1A1A"/>
</g>
<defs>
<clipPath id="clip0_910_285">
<rect width="24" height="24" fill="white"/>
</clipPath>
</defs>
</svg>
