<svg width="24" height="24" viewBox="0 0 24 24" fill="none" xmlns="http://www.w3.org/2000/svg">
<path fill-rule="evenodd" clip-rule="evenodd" d="M22 7C22 5.09122 20.6192 3.5734 18.8496 2.59031C17.0462 1.5884 14.6225 1 12 1C9.37749 1 6.95383 1.5884 5.1504 2.59031C3.38084 3.5734 2 5.09122 2 7V17C2 18.9088 3.38084 20.4266 5.1504 21.4097C6.95383 22.4116 9.37749 23 12 23C14.6225 23 17.0462 22.4116 18.8496 21.4097C20.6192 20.4266 22 18.9088 22 17V7ZM6.12168 4.33862C4.63388 5.16518 4 6.14736 4 7C4 7.85264 4.63388 8.83482 6.12168 9.66138C7.57561 10.4691 9.65195 11 12 11C14.3481 11 16.4244 10.4691 17.8783 9.66138C19.3661 8.83482 20 7.85264 20 7C20 6.14736 19.3661 5.16518 17.8783 4.33862C16.4244 3.53089 14.3481 3 12 3C9.65195 3 7.57561 3.53089 6.12168 4.33862ZM20 10.6457C19.6453 10.9277 19.2578 11.1829 18.8496 11.4097C17.0462 12.4116 14.6225 13 12 13C9.37749 13 6.95383 12.4116 5.1504 11.4097C4.74219 11.1829 4.35466 10.9277 4 10.6457V12C4 12.8526 4.63388 13.8348 6.12168 14.6614C7.57561 15.4691 9.65195 16 12 16C14.3481 16 16.4244 15.4691 17.8783 14.6614C19.3661 13.8348 20 12.8526 20 12V10.6457ZM20 15.6457C19.6453 15.9277 19.2578 16.1829 18.8496 16.4097C17.0462 17.4116 14.6225 18 12 18C9.37749 18 6.95383 17.4116 5.1504 16.4097C4.74218 16.1829 4.35466 15.9277 4 15.6457V17C4 17.8526 4.63388 18.8348 6.12168 19.6614C7.57561 20.4691 9.65195 21 12 21C14.3481 21 16.4244 20.4691 17.8783 19.6614C19.3661 18.8348 20 17.8526 20 17V15.6457Z" fill="#1A1A1A"/>
</svg>
