<svg width="24" height="24" viewBox="0 0 24 24" fill="none" xmlns="http://www.w3.org/2000/svg">
<path fill-rule="evenodd" clip-rule="evenodd" d="M5.1504 2.59031C3.38084 3.5734 2 5.09122 2 7V17C2 18.9088 3.38084 20.4266 5.1504 21.4097C6.95383 22.4116 9.37749 23 12 23C14.6225 23 17.0462 22.4116 18.8496 21.4097C20.6192 20.4266 22 18.9088 22 17V7C22 5.09122 20.6192 3.5734 18.8496 2.59031C17.0462 1.5884 14.6225 1 12 1C9.37749 1 6.95383 1.5884 5.1504 2.59031ZM4 10.7488V7.97455C4.37323 8.51728 4.96124 9.04762 5.78352 9.52368C7.32494 10.4161 9.5206 11 12 11C14.4794 11 16.6751 10.4161 18.2165 9.52368C19.0388 9.04762 19.6268 8.51728 20 7.97455V10.7488C19.7511 10.9288 19.4897 11.0976 19.2186 11.2545C17.3216 12.3527 14.7673 13 12 13C9.23269 13 6.67836 12.3527 4.78145 11.2545C4.51033 11.0976 4.24889 10.9288 4 10.7488ZM18.2165 15.5237C19.0388 15.0476 19.6268 14.5173 20 13.9745V16.7488C19.7511 16.9288 19.4897 17.0976 19.2185 17.2545C17.3216 18.3527 14.7673 19 12 19C9.23269 19 6.67836 18.3527 4.78145 17.2545C4.51033 17.0976 4.24889 16.9288 4 16.7488V13.9745C4.37323 14.5173 4.96124 15.0476 5.78352 15.5237C7.32494 16.4161 9.5206 17 12 17C14.4794 17 16.6751 16.4161 18.2165 15.5237Z" fill="#1A1A1A"/>
</svg>
