<svg width="24" height="24" viewBox="0 0 24 24" fill="none" xmlns="http://www.w3.org/2000/svg">
<path d="M4.75 9.75C5.99264 9.75 7 10.7574 7 12C7 13.2426 5.99264 14.25 4.75 14.25C3.50736 14.25 2.5 13.2426 2.5 12C2.5 10.7574 3.50736 9.75 4.75 9.75Z" fill="#1A1A1A"/>
<path d="M12 9.75C13.2426 9.75 14.25 10.7574 14.25 12C14.25 13.2426 13.2426 14.25 12 14.25C10.7574 14.25 9.75 13.2426 9.75 12C9.75 10.7574 10.7574 9.75 12 9.75Z" fill="#1A1A1A"/>
<path d="M19.25 9.75C20.4926 9.75 21.5 10.7574 21.5 12C21.5 13.2426 20.4926 14.25 19.25 14.25C18.0074 14.25 17 13.2426 17 12C17 10.7574 18.0074 9.75 19.25 9.75Z" fill="#1A1A1A"/>
</svg>
