<svg width="24" height="24" viewBox="0 0 24 24" fill="none" xmlns="http://www.w3.org/2000/svg">
<path d="M12 17C13.2426 17 14.25 18.0074 14.25 19.25C14.25 20.4926 13.2426 21.5 12 21.5C10.7574 21.5 9.75 20.4926 9.75 19.25C9.75 18.0074 10.7574 17 12 17Z" fill="#1A1A1A"/>
<path d="M12 9.75C13.2426 9.75 14.25 10.7574 14.25 12C14.25 13.2426 13.2426 14.25 12 14.25C10.7574 14.25 9.75 13.2426 9.75 12C9.75 10.7574 10.7574 9.75 12 9.75Z" fill="#1A1A1A"/>
<path d="M12 2.5C13.2426 2.5 14.25 3.50736 14.25 4.75C14.25 5.99264 13.2426 7 12 7C10.7574 7 9.75 5.99264 9.75 4.75C9.75 3.50736 10.7574 2.5 12 2.5Z" fill="#1A1A1A"/>
</svg>
