<svg width="24" height="24" viewBox="0 0 24 24" fill="none" xmlns="http://www.w3.org/2000/svg">
<path fill-rule="evenodd" clip-rule="evenodd" d="M4 9C4 4.58172 7.58172 1 12 1C16.4183 1 20 4.58172 20 9C20 9.51645 19.9602 9.99239 19.8859 10.433C19.4112 10.4589 18.944 10.6532 18.5813 11.0158L16.46 13.1371L14.3387 11.0158C13.5577 10.2347 12.2913 10.2347 11.5103 11.0158C10.7292 11.7968 10.7292 13.0632 11.5103 13.8442L13.6316 15.9655L11.5103 18.0868C10.7292 18.8679 10.7292 20.1342 11.5103 20.9153C12.1071 21.5121 12.9872 21.6529 13.7177 21.3376C13.5969 21.4653 13.4687 21.5865 13.3334 21.7009C12.3098 22.567 10.9431 23 9.5 23C8.05686 23 6.69018 22.567 5.66656 21.7009C4.6263 20.8207 4 19.5399 4 18V9ZM9.25 13.5C9.25 13.9142 8.91421 14.25 8.5 14.25C8.08579 14.25 7.75 13.9142 7.75 13.5V9C7.75 6.65279 9.65279 4.75 12 4.75C14.3472 4.75 16.25 6.65279 16.25 9V9.25C16.25 9.66421 15.9142 10 15.5 10C15.0858 10 14.75 9.66421 14.75 9.25V9C14.75 7.48122 13.5188 6.25 12 6.25C10.4812 6.25 9.25 7.48122 9.25 9V13.5Z" fill="#1A1A1A"/>
<path d="M12.3942 11.8997C12.6871 11.6068 13.1619 11.6068 13.4548 11.8997L16.46 14.9049L19.4652 11.8997C19.7581 11.6068 20.233 11.6068 20.5259 11.8997C20.8188 12.1926 20.8188 12.6674 20.5259 12.9603L17.5207 15.9655L20.5259 18.9707C20.8188 19.2636 20.8188 19.7385 20.5259 20.0314C20.233 20.3243 19.7581 20.3243 19.4652 20.0314L16.46 17.0262L13.4548 20.0314C13.1619 20.3243 12.687 20.3243 12.3941 20.0314C12.1013 19.7385 12.1013 19.2636 12.3941 18.9707L15.3994 15.9655L12.3942 12.9603C12.1013 12.6674 12.1013 12.1926 12.3942 11.8997Z" fill="#1A1A1A"/>
</svg>
