<svg width="24" height="24" viewBox="0 0 24 24" fill="none" xmlns="http://www.w3.org/2000/svg">
<path d="M12 1C7.58172 1 4 4.58172 4 9V18C4 19.5399 4.6263 20.8207 5.66656 21.7009C6.69018 22.567 8.05686 23 9.5 23C10.9431 23 12.3098 22.567 13.3334 21.7009C13.7987 21.3072 14.1811 20.8335 14.4617 20.2922L14.3387 20.4153C13.5834 21.1706 12.3742 21.1955 11.589 20.4899C11.0296 20.8107 10.3166 21 9.5 21C8.44314 21 7.55982 20.683 6.95844 20.1741C6.3737 19.6793 6 18.9601 6 18V9C6 5.68629 8.68629 3 12 3C15.3137 3 18 5.68629 18 9C18 10.211 17.7282 11.0318 17.359 11.6533C17.3112 11.7338 17.2612 11.8119 17.2092 11.888L18.5814 10.5158C18.9613 10.1359 19.456 9.94076 19.9538 9.93043C19.9842 9.63555 20 9.32584 20 9C20 4.58172 16.4183 1 12 1Z" fill="#1A1A1A"/>
<path d="M9.5 13.75C9.5 14.1642 9.16421 14.5 8.75 14.5C8.33579 14.5 8 14.1642 8 13.75V9C8 6.79086 9.79086 5 12 5C14.2091 5 16 6.79086 16 9V9.5C16 9.91421 15.6642 10.25 15.25 10.25C14.8358 10.25 14.5 9.91421 14.5 9.5V9C14.5 7.61929 13.3807 6.5 12 6.5C10.6193 6.5 9.5 7.61929 9.5 9V13.75Z" fill="#1A1A1A"/>
<path d="M20.5259 11.3997C20.233 11.1068 19.7581 11.1068 19.4652 11.3997L16.46 14.4049L13.4549 11.3997C13.162 11.1068 12.6871 11.1068 12.3942 11.3997C12.1013 11.6926 12.1013 12.1674 12.3942 12.4603L15.3994 15.4655L12.3942 18.4707C12.1013 18.7636 12.1013 19.2385 12.3942 19.5314C12.6871 19.8243 13.1619 19.8243 13.4548 19.5314L16.46 16.5262L19.4653 19.5314C19.7582 19.8243 20.233 19.8243 20.5259 19.5314C20.8188 19.2385 20.8188 18.7636 20.5259 18.4707L17.5207 15.4655L20.5259 12.4603C20.8188 12.1674 20.8188 11.6926 20.5259 11.3997Z" fill="#1A1A1A"/>
</svg>
