<svg width="24" height="24" viewBox="0 0 24 24" fill="none" xmlns="http://www.w3.org/2000/svg">
<path d="M10 13.75C10 14.1642 9.66421 14.5 9.25 14.5C8.83579 14.5 8.5 14.1642 8.5 13.75V9C8.5 6.79086 10.2909 5 12.5 5C14.7091 5 16.5 6.79086 16.5 9V9.5C16.5 9.91421 16.1642 10.25 15.75 10.25C15.3358 10.25 15 9.91421 15 9.5V9C15 7.61929 13.8807 6.5 12.5 6.5C11.1193 6.5 10 7.61929 10 9V13.75Z" fill="#1A1A1A"/>
<path fill-rule="evenodd" clip-rule="evenodd" d="M12.5 1C8.08172 1 4.5 4.58172 4.5 9V18C4.5 19.5399 5.1263 20.8207 6.16656 21.7009C7.19018 22.567 8.55686 23 10 23C11.4431 23 12.8098 22.567 13.8334 21.7009C14.8737 20.8207 15.5 19.5399 15.5 18C15.5 16.639 16.2025 16.0456 17.391 15.0417C17.4742 14.9714 17.5598 14.8991 17.6476 14.8244C18.2884 14.2798 19.0209 13.6134 19.5785 12.6748C20.1468 11.7182 20.5 10.539 20.5 9C20.5 4.58172 16.9183 1 12.5 1ZM6.5 9C6.5 5.68629 9.18629 3 12.5 3C15.8137 3 18.5 5.68629 18.5 9C18.5 10.211 18.2282 11.0318 17.859 11.6533C17.4791 12.2929 16.9616 12.7827 16.3524 13.3006C16.2539 13.3842 16.1516 13.4692 16.0468 13.5563C14.9195 14.4931 13.5 15.6727 13.5 18C13.5 18.9601 13.1263 19.6793 12.5416 20.1741C11.9402 20.683 11.0569 21 10 21C8.94314 21 8.05982 20.683 7.45844 20.1741C6.8737 19.6793 6.5 18.9601 6.5 18V9Z" fill="#1A1A1A"/>
</svg>
