<svg width="24" height="24" viewBox="0 0 24 24" fill="none" xmlns="http://www.w3.org/2000/svg">
<path fill-rule="evenodd" clip-rule="evenodd" d="M1 12.0001C1 18.0752 5.92487 23.0001 12 23.0001C18.0751 23.0001 23 18.0752 23 12.0001C23 5.92493 18.0751 1.00006 12 1.00006C5.92487 1.00006 1 5.92493 1 12.0001ZM14 7C12.0479 7 10.357 8.11871 9.53362 9.75H13.5C13.9142 9.75 14.25 10.0858 14.25 10.5C14.25 10.9142 13.9142 11.25 13.5 11.25H9.05585C9.01904 11.4946 8.99997 11.7451 8.99997 12C8.99997 12.2549 9.01904 12.5054 9.05585 12.75H13.5C13.9142 12.75 14.25 13.0858 14.25 13.5C14.25 13.9142 13.9142 14.25 13.5 14.25H9.53362C10.357 15.8813 12.0479 17 14 17C14.4331 17 14.852 16.9452 15.2507 16.8425C15.7856 16.7049 16.3307 17.0269 16.4684 17.5617C16.6061 18.0966 16.2841 18.6418 15.7492 18.7794C15.1891 18.9236 14.6027 19 14 19C10.9211 19 8.30645 17.0122 7.36942 14.25H5.49997C5.08576 14.25 4.74997 13.9142 4.74997 13.5C4.74997 13.0858 5.08576 12.75 5.49997 12.75H7.03968C7.01343 12.5036 6.99997 12.2534 6.99997 12C6.99997 11.7466 7.01343 11.4964 7.03968 11.25H5.49997C5.08576 11.25 4.74997 10.9142 4.74997 10.5C4.74997 10.0858 5.08576 9.75 5.49997 9.75H7.36942C8.30645 6.98778 10.9211 5 14 5C14.6027 5 15.1891 5.07641 15.7492 5.22059C16.2841 5.35825 16.6061 5.90343 16.4684 6.43828C16.3307 6.97314 15.7856 7.29513 15.2507 7.15746C14.852 7.05485 14.4331 7 14 7Z" fill="#1A1A1A"/>
</svg>
