<svg width="24" height="24" viewBox="0 0 24 24" fill="none" xmlns="http://www.w3.org/2000/svg">
<path d="M9.18772 8.75C10.4335 5.95128 13.2389 4 16.5 4C17.1124 4 17.7076 4.06863 18.2787 4.19823C18.8173 4.32044 19.353 3.9829 19.4752 3.4443C19.5974 2.90571 19.2599 2.37002 18.7213 2.24781C18.0059 2.08549 17.2623 2 16.5 2C12.1149 2 8.38896 4.82256 7.03998 8.75H4C3.44772 8.75 3 9.19772 3 9.75C3 10.3023 3.44772 10.75 4 10.75H6.57737C6.5263 11.1595 6.5 11.5767 6.5 12C6.5 12.4233 6.5263 12.8405 6.57737 13.25H4C3.44772 13.25 3 13.6977 3 14.25C3 14.8023 3.44772 15.25 4 15.25H7.03998C8.38896 19.1774 12.1149 22 16.5 22C17.2623 22 18.0059 21.9145 18.7213 21.7522C19.2599 21.63 19.5974 21.0943 19.4752 20.5557C19.353 20.0171 18.8173 19.6796 18.2787 19.8018C17.7076 19.9314 17.1124 20 16.5 20C13.2389 20 10.4335 18.0487 9.18772 15.25H16C16.5523 15.25 17 14.8023 17 14.25C17 13.6977 16.5523 13.25 16 13.25H8.59708C8.53318 12.8427 8.5 12.4252 8.5 12C8.5 11.5748 8.53318 11.1573 8.59708 10.75H16C16.5523 10.75 17 10.3023 17 9.75C17 9.19772 16.5523 8.75 16 8.75H9.18772Z" fill="#1A1A1A"/>
</svg>
