<svg width="24" height="24" viewBox="0 0 24 24" fill="none" xmlns="http://www.w3.org/2000/svg">
<path d="M9.00005 12C9.00005 10.3431 10.3432 9 12 9C13.6569 9 15 10.3431 15 12C15 13.6569 13.6569 15 12 15C10.3432 15 9.00005 13.6569 9.00005 12Z" fill="#1A1A1A"/>
<path fill-rule="evenodd" clip-rule="evenodd" d="M23.3941 12.448C23.3346 12.5663 23.2699 12.682 23.2042 12.7969C23.0848 13.006 22.9087 13.2992 22.6758 13.6484C22.2112 14.3454 21.5144 15.2749 20.5822 16.2071C18.7232 18.0661 15.8588 20 12 20C8.14129 20 5.27694 18.0661 3.41794 16.2071C2.48573 15.2749 1.78885 14.3454 1.32425 13.6484C1.09139 13.2992 0.915326 13.006 0.795869 12.7969C0.730033 12.6817 0.66509 12.5659 0.605622 12.4472C0.464858 12.1657 0.465249 11.8335 0.606012 11.552C0.665376 11.4336 0.730178 11.318 0.795869 11.2031C0.915326 10.994 1.09139 10.7008 1.32425 10.3515C1.78885 9.65464 2.48573 8.7251 3.41794 7.79289C5.27694 5.9339 8.14129 4 12 4C15.8588 4 18.7232 5.9339 20.5822 7.79289C21.5144 8.7251 22.2112 9.65464 22.6758 10.3515C22.9087 10.7008 23.0848 10.994 23.2042 11.2031C23.2699 11.318 23.3346 11.4337 23.3941 11.552C23.5348 11.8335 23.5348 12.1665 23.3941 12.448ZM12 7C9.23862 7 7.00005 9.23858 7.00005 12C7.00005 14.7614 9.23862 17 12 17C14.7615 17 17 14.7614 17 12C17 9.23858 14.7615 7 12 7Z" fill="#1A1A1A"/>
</svg>
