<svg width="24" height="24" viewBox="0 0 24 24" fill="none" xmlns="http://www.w3.org/2000/svg">
<path d="M21.5304 3.53033C21.8233 3.23744 21.8233 2.76256 21.5304 2.46967C21.2375 2.17678 20.7626 2.17678 20.4697 2.46967L2.46972 20.4697C2.17682 20.7626 2.17682 21.2374 2.46972 21.5303C2.76261 21.8232 3.23748 21.8232 3.53038 21.5303L21.5304 3.53033Z" fill="#1A1A1A"/>
<path d="M12 4.00001C13.6093 4.00001 15.0457 4.33637 16.3082 4.86338L13.8272 7.34439C13.2612 7.12209 12.6449 7.00001 12 7.00001C9.23862 7.00001 7.00005 9.23859 7.00005 12C7.00005 12.6449 7.12212 13.2612 7.34443 13.8272L4.21864 16.953C3.93374 16.7062 3.66683 16.456 3.41794 16.2071C2.48573 15.2749 1.78885 14.3454 1.32425 13.6485C1.09139 13.2992 0.915326 13.006 0.795869 12.7969C0.730033 12.6817 0.66509 12.5659 0.605622 12.4472C0.464858 12.1657 0.465249 11.8335 0.606012 11.552C0.665376 11.4336 0.730178 11.318 0.795869 11.2031C0.915326 10.994 1.09139 10.7009 1.32425 10.3516C1.78885 9.65465 2.48573 8.72511 3.41794 7.7929C5.27694 5.93391 8.14129 4.00001 12 4.00001Z" fill="#1A1A1A"/>
<path d="M12 9.00001C12.0561 9.00001 12.1118 9.00154 12.167 9.00458L9.00462 12.167C9.00158 12.1117 9.00005 12.056 9.00005 12C9.00005 10.3432 10.3432 9.00001 12 9.00001Z" fill="#1A1A1A"/>
<path d="M11.833 14.9954L14.9955 11.833C14.9985 11.8883 15 11.944 15 12C15 13.6569 13.6569 15 12 15C11.944 15 11.8883 14.9985 11.833 14.9954Z" fill="#1A1A1A"/>
<path d="M12 17C11.3552 17 10.7388 16.8779 10.1729 16.6556L7.69184 19.1366C8.95443 19.6636 10.3908 20 12 20C15.8588 20 18.7232 18.0661 20.5822 16.2071C21.5144 15.2749 22.2112 14.3454 22.6758 13.6485C22.9087 13.2992 23.0848 13.006 23.2042 12.7969C23.2699 12.682 23.3346 12.5663 23.3941 12.448C23.5348 12.1665 23.5348 11.8335 23.3941 11.552C23.3346 11.4337 23.2699 11.318 23.2042 11.2031C23.0848 10.994 22.9087 10.7009 22.6758 10.3516C22.2112 9.65465 21.5144 8.72511 20.5822 7.7929C20.3333 7.54401 20.0664 7.29378 19.7815 7.04703L16.6557 10.1728C16.878 10.7388 17 11.3551 17 12C17 14.7614 14.7615 17 12 17Z" fill="#1A1A1A"/>
</svg>
