<svg width="24" height="24" viewBox="0 0 24 24" fill="none" xmlns="http://www.w3.org/2000/svg">
<path d="M21.5304 3.53033C21.8233 3.23744 21.8233 2.76256 21.5304 2.46967C21.2375 2.17678 20.7626 2.17678 20.4697 2.46967L2.46972 20.4697C2.17682 20.7626 2.17682 21.2374 2.46972 21.5303C2.76261 21.8232 3.23748 21.8232 3.53038 21.5303L21.5304 3.53033Z" fill="#1A1A1A"/>
<path d="M12 4.00001C13.6093 4.00001 15.0457 4.33637 16.3082 4.86338L14.7501 6.42153C13.9085 6.15617 12.992 6.00001 12 6.00001C8.85881 6.00001 6.47316 7.56611 4.83216 9.20712C4.01437 10.0249 3.39875 10.8454 2.98835 11.461C2.85069 11.6675 2.73682 11.8498 2.6468 12C2.73682 12.1502 2.85069 12.3326 2.98835 12.5391C3.39875 13.1547 4.01437 13.9751 4.83216 14.7929C5.08297 15.0437 5.35119 15.2928 5.63684 15.5348L4.21864 16.953C3.93374 16.7062 3.66683 16.456 3.41794 16.2071C2.48573 15.2749 1.78885 14.3454 1.32425 13.6485C1.09139 13.2992 0.915326 13.006 0.795869 12.7969C0.730033 12.6817 0.66509 12.5659 0.605622 12.4472C0.464858 12.1657 0.465249 11.8335 0.606012 11.552C0.665376 11.4336 0.730178 11.318 0.795869 11.2031C0.915326 10.994 1.09139 10.7009 1.32425 10.3516C1.78885 9.65465 2.48573 8.72511 3.41794 7.7929C5.27694 5.93391 8.14129 4.00001 12 4.00001Z" fill="#1A1A1A"/>
<path d="M12 8.00001C12.3584 8.00001 12.7057 8.04712 13.0361 8.1355L8.13553 13.0361C8.04716 12.7056 8.00005 12.3583 8.00005 12C8.00005 9.79087 9.79091 8.00001 12 8.00001Z" fill="#1A1A1A"/>
<path d="M10.964 15.8645C11.2944 15.9529 11.6417 16 12 16C14.2092 16 16 14.2091 16 12C16 11.6417 15.9529 11.2944 15.8646 10.9639L10.964 15.8645Z" fill="#1A1A1A"/>
<path d="M12 18C11.0081 18 10.0916 17.8439 9.24999 17.5785L7.69184 19.1366C8.95443 19.6636 10.3908 20 12 20C15.8588 20 18.7232 18.0661 20.5822 16.2071C21.5144 15.2749 22.2112 14.3454 22.6758 13.6485C22.9087 13.2992 23.0848 13.006 23.2042 12.7969C23.2699 12.682 23.3346 12.5663 23.3941 12.448C23.5348 12.1665 23.5348 11.8335 23.3941 11.552C23.3346 11.4337 23.2699 11.318 23.2042 11.2031C23.0848 10.994 22.9087 10.7009 22.6758 10.3516C22.2112 9.65465 21.5144 8.72511 20.5822 7.7929C20.3333 7.54401 20.0664 7.29378 19.7815 7.04703L18.3633 8.46523C18.6489 8.70722 18.9171 8.9563 19.1679 9.20712C19.9857 10.0249 20.6014 10.8454 21.0117 11.461C21.1494 11.6675 21.2633 11.8498 21.3533 12C21.2633 12.1502 21.1494 12.3326 21.0117 12.5391C20.6014 13.1547 19.9857 13.9751 19.1679 14.7929C17.5269 16.4339 15.1413 18 12 18Z" fill="#1A1A1A"/>
</svg>
