<svg width="24" height="24" viewBox="0 0 24 24" fill="none" xmlns="http://www.w3.org/2000/svg">
<path d="M21.5303 3.53033C21.8232 3.23744 21.8232 2.76256 21.5303 2.46967C21.2374 2.17678 20.7625 2.17678 20.4697 2.46967L2.46966 20.4697C2.17676 20.7626 2.17676 21.2374 2.46966 21.5303C2.76255 21.8232 3.23742 21.8232 3.53032 21.5303L21.5303 3.53033Z" fill="#1A1A1A"/>
<path d="M12 4.00001C13.6093 4.00001 15.0456 4.33637 16.3082 4.86338L13.8272 7.34439C13.2612 7.12209 12.6448 7.00001 12 7.00001C9.23856 7.00001 6.99998 9.23859 6.99998 12C6.99998 12.6449 7.12206 13.2612 7.34437 13.8272L4.21858 16.953C3.93368 16.7062 3.66677 16.456 3.41788 16.2071C2.48567 15.2749 1.78879 14.3454 1.32419 13.6485C1.09132 13.2992 0.915265 13.006 0.795808 12.7969C0.729972 12.6817 0.665029 12.5659 0.605561 12.4472C0.464797 12.1657 0.465187 11.8335 0.605951 11.552C0.665315 11.4336 0.730117 11.318 0.795808 11.2031C0.915265 10.994 1.09132 10.7009 1.32419 10.3516C1.78879 9.65465 2.48567 8.72511 3.41788 7.7929C5.27688 5.93391 8.14123 4.00001 12 4.00001Z" fill="#1A1A1A"/>
<path d="M12 9.00001C12.056 9.00001 12.1117 9.00154 12.167 9.00458L9.00455 12.167C9.00152 12.1117 8.99998 12.056 8.99998 12C8.99998 10.3432 10.3431 9.00001 12 9.00001Z" fill="#1A1A1A"/>
<path d="M11.833 14.9954L14.9954 11.833C14.9984 11.8883 15 11.944 15 12C15 13.6569 13.6568 15 12 15C11.9439 15 11.8883 14.9985 11.833 14.9954Z" fill="#1A1A1A"/>
<path d="M12 17C11.3551 17 10.7388 16.8779 10.1728 16.6556L7.69178 19.1366C8.95436 19.6636 10.3907 20 12 20C15.8587 20 18.7231 18.0661 20.5821 16.2071C21.5143 15.2749 22.2112 14.3454 22.6758 13.6485C22.9087 13.2992 23.0847 13.006 23.2042 12.7969C23.2699 12.682 23.3346 12.5663 23.394 12.448C23.5348 12.1665 23.5348 11.8335 23.394 11.552C23.3346 11.4337 23.2699 11.318 23.2042 11.2031C23.0847 10.994 22.9087 10.7009 22.6758 10.3516C22.2112 9.65465 21.5143 8.72511 20.5821 7.7929C20.3332 7.54401 20.0663 7.29378 19.7814 7.04703L16.6556 10.1728C16.8779 10.7388 17 11.3551 17 12C17 14.7614 14.7614 17 12 17Z" fill="#1A1A1A"/>
</svg>
