<svg width="24" height="24" viewBox="0 0 24 24" fill="none" xmlns="http://www.w3.org/2000/svg">
<path d="M21.5303 3.53033C21.8232 3.23744 21.8232 2.76256 21.5303 2.46967C21.2374 2.17678 20.7625 2.17678 20.4697 2.46967L2.46966 20.4697C2.17676 20.7626 2.17676 21.2374 2.46966 21.5303C2.76255 21.8232 3.23742 21.8232 3.53032 21.5303L21.5303 3.53033Z" fill="#1A1A1A"/>
<path d="M12 4.00001C13.6093 4.00001 15.0456 4.33637 16.3082 4.86338L14.75 6.42153C13.9085 6.15617 12.9919 6.00001 12 6.00001C8.85875 6.00001 6.4731 7.56611 4.83209 9.20712C4.01431 10.0249 3.39869 10.8454 2.98829 11.461C2.85063 11.6675 2.73675 11.8498 2.64674 12C2.73675 12.1502 2.85063 12.3326 2.98829 12.5391C3.39869 13.1547 4.01431 13.9751 4.83209 14.7929C5.08291 15.0437 5.35113 15.2928 5.63678 15.5348L4.21858 16.953C3.93368 16.7062 3.66677 16.456 3.41788 16.2071C2.48567 15.2749 1.78879 14.3454 1.32419 13.6485C1.09132 13.2992 0.915265 13.006 0.795808 12.7969C0.729972 12.6817 0.665029 12.5659 0.605561 12.4472C0.464797 12.1657 0.465187 11.8335 0.605951 11.552C0.665315 11.4336 0.730117 11.318 0.795808 11.2031C0.915265 10.994 1.09132 10.7009 1.32419 10.3516C1.78879 9.65465 2.48567 8.72511 3.41788 7.7929C5.27688 5.93391 8.14123 4.00001 12 4.00001Z" fill="#1A1A1A"/>
<path d="M12 8.00001C12.3583 8.00001 12.7056 8.04712 13.0361 8.1355L8.13547 13.0361C8.0471 12.7056 7.99998 12.3583 7.99998 12C7.99998 9.79087 9.79085 8.00001 12 8.00001Z" fill="#1A1A1A"/>
<path d="M10.9639 15.8645C11.2943 15.9529 11.6417 16 12 16C14.2091 16 16 14.2091 16 12C16 11.6417 15.9529 11.2944 15.8645 10.9639L10.9639 15.8645Z" fill="#1A1A1A"/>
<path d="M12 18C11.0081 18 10.0915 17.8439 9.24993 17.5785L7.69178 19.1366C8.95436 19.6636 10.3907 20 12 20C15.8587 20 18.7231 18.0661 20.5821 16.2071C21.5143 15.2749 22.2112 14.3454 22.6758 13.6485C22.9087 13.2992 23.0847 13.006 23.2042 12.7969C23.2699 12.682 23.3346 12.5663 23.394 12.448C23.5348 12.1665 23.5348 11.8335 23.394 11.552C23.3346 11.4337 23.2699 11.318 23.2042 11.2031C23.0847 10.994 22.9087 10.7009 22.6758 10.3516C22.2112 9.65465 21.5143 8.72511 20.5821 7.7929C20.3332 7.54401 20.0663 7.29378 19.7814 7.04703L18.3632 8.46523C18.6488 8.70722 18.9171 8.9563 19.1679 9.20712C19.9857 10.0249 20.6013 10.8454 21.0117 11.461C21.1493 11.6675 21.2632 11.8498 21.3532 12C21.2632 12.1502 21.1493 12.3326 21.0117 12.5391C20.6013 13.1547 19.9857 13.9751 19.1679 14.7929C17.5269 16.4339 15.1412 18 12 18Z" fill="#1A1A1A"/>
</svg>
