<svg width="24" height="24" viewBox="0 0 24 24" fill="none" xmlns="http://www.w3.org/2000/svg">
<path fill-rule="evenodd" clip-rule="evenodd" d="M12 8C9.79091 8 8.00005 9.79086 8.00005 12C8.00005 14.2091 9.79091 16 12 16C14.2092 16 16 14.2091 16 12C16 9.79086 14.2092 8 12 8ZM10 12C10 10.8954 10.8955 10 12 10C13.1046 10 14 10.8954 14 12C14 13.1046 13.1046 14 12 14C10.8955 14 10 13.1046 10 12Z" fill="#1A1A1A"/>
<path fill-rule="evenodd" clip-rule="evenodd" d="M23.3941 12.448C23.3346 12.5663 23.2699 12.682 23.2042 12.7969C23.0848 13.006 22.9087 13.2992 22.6758 13.6484C22.2112 14.3454 21.5144 15.2749 20.5822 16.2071C18.7232 18.0661 15.8588 20 12 20C8.14129 20 5.27694 18.0661 3.41794 16.2071C2.48573 15.2749 1.78885 14.3454 1.32425 13.6484C1.09139 13.2992 0.915326 13.006 0.795869 12.7969C0.730033 12.6817 0.66509 12.5659 0.605622 12.4472C0.464858 12.1657 0.465249 11.8335 0.606012 11.552C0.665376 11.4336 0.730178 11.318 0.795869 11.2031C0.915326 10.994 1.09139 10.7008 1.32425 10.3515C1.78885 9.65464 2.48573 8.7251 3.41794 7.79289C5.27694 5.9339 8.14129 4 12 4C15.8588 4 18.7232 5.9339 20.5822 7.79289C21.5144 8.7251 22.2112 9.65464 22.6758 10.3515C22.9087 10.7008 23.0848 10.994 23.2042 11.2031C23.2699 11.318 23.3346 11.4337 23.3941 11.552C23.5348 11.8335 23.5348 12.1665 23.3941 12.448ZM2.98835 12.539C2.85069 12.3326 2.73682 12.1502 2.6468 12C2.73682 11.8498 2.85069 11.6674 2.98835 11.461C3.39875 10.8454 4.01437 10.0249 4.83216 9.20711C6.47316 7.5661 8.85881 6 12 6C15.1413 6 17.5269 7.5661 19.1679 9.20711C19.9857 10.0249 20.6014 10.8454 21.0117 11.461C21.1494 11.6674 21.2633 11.8498 21.3533 12C21.2633 12.1502 21.1494 12.3326 21.0117 12.539C20.6014 13.1546 19.9857 13.9751 19.1679 14.7929C17.5269 16.4339 15.1413 18 12 18C8.85881 18 6.47316 16.4339 4.83216 14.7929C4.01437 13.9751 3.39875 13.1546 2.98835 12.539Z" fill="#1A1A1A"/>
</svg>
