<svg width="24" height="24" viewBox="0 0 24 24" fill="none" xmlns="http://www.w3.org/2000/svg">
<path fill-rule="evenodd" clip-rule="evenodd" d="M14.4219 0.5C15.2174 0.50008 15.9804 0.816369 16.543 1.37891L20.6211 5.45703C21.1836 6.01957 21.4999 6.78258 21.5 7.57812V14.5C21.5 16.1569 20.1569 17.5 18.5 17.5H16.5V20.5C16.5 22.1569 15.1569 23.5 13.5 23.5H5.5C3.84315 23.5 2.5 22.1569 2.5 20.5V9.5C2.5 7.84315 3.84315 6.5 5.5 6.5H7.5V3.5C7.5 1.84315 8.84315 0.5 10.5 0.5H14.4219ZM5.5 8.5C4.94772 8.5 4.5 8.94772 4.5 9.5V20.5C4.5 21.0523 4.94772 21.5 5.5 21.5H13.5C14.0523 21.5 14.5 21.0523 14.5 20.5V14.5H11C9.61929 14.5 8.5 13.3807 8.5 12V8.5H5.5ZM10.5 2.5C9.94772 2.5 9.5 2.94772 9.5 3.5V6.5H9.42188C10.2174 6.50008 10.9804 6.81637 11.543 7.37891L15.6211 11.457C16.1836 12.0196 16.4999 12.7826 16.5 13.5781V15.5H18.5C19.0523 15.5 19.5 15.0523 19.5 14.5V8.5H16C14.6193 8.5 13.5 7.38071 13.5 6V2.5H10.5ZM10.5 12C10.5 12.2761 10.7239 12.5 11 12.5H13.8359L10.5 9.16406V12ZM15.5 6C15.5 6.27614 15.7239 6.5 16 6.5H18.8359L15.5 3.16406V6Z" fill="#1A1A1A"/>
</svg>
