<svg width="24" height="24" viewBox="0 0 24 24" fill="none" xmlns="http://www.w3.org/2000/svg">
<path d="M12 12.5C12.5523 12.5 13 12.9477 13 13.5V15H14.5C15.0523 15 15.5 15.4477 15.5 16C15.5 16.5523 15.0523 17 14.5 17H13V18.5C13 19.0523 12.5523 19.5 12 19.5C11.4477 19.5 11 19.0523 11 18.5V17H9.5C8.94771 17 8.5 16.5523 8.5 16C8.5 15.4477 8.94771 15 9.5 15H11V13.5C11 12.9477 11.4477 12.5 12 12.5Z" fill="#1A1A1A"/>
<path fill-rule="evenodd" clip-rule="evenodd" d="M12.1719 1C12.9674 1.00008 13.7304 1.31637 14.293 1.87891L20.1211 7.70703C20.6836 8.26957 20.9999 9.03258 21 9.82812V20C21 21.6569 19.6569 23 18 23H6C4.34315 23 3 21.6569 3 20V4C3 2.34315 4.34315 1 6 1H12.1719ZM6 3C5.44772 3 5 3.44772 5 4V20C5 20.5523 5.44772 21 6 21H18C18.5523 21 19 20.5523 19 20V11H14C12.3431 11 11 9.65685 11 8V3H6ZM13 8C13 8.55228 13.4477 9 14 9H18.5859L13 3.41406V8Z" fill="#1A1A1A"/>
</svg>
