<svg width="24" height="24" viewBox="0 0 24 24" fill="none" xmlns="http://www.w3.org/2000/svg">
<path d="M9 7.5V11.5C9 12.8807 10.1193 14 11.5 14H15.5V21C15.5 21.0518 15.4973 21.1029 15.4922 21.1533C15.48 21.2732 15.4518 21.3882 15.4131 21.498C15.2075 22.0813 14.6536 22.5 14 22.5H5C4.34631 22.5 3.79142 22.0815 3.58594 21.498C3.54729 21.3883 3.51997 21.2731 3.50781 21.1533L3.5 21V9C3.5 8.17157 4.17157 7.5 5 7.5H9Z" fill="#1A1A1A"/>
<path d="M14 5.5C14 6.88071 15.1193 8 16.5 8H20.5V15C20.5 15.8284 19.8284 16.5 19 16.5H17.5V13.3711C17.4999 12.4429 17.1309 11.5528 16.4746 10.8965L12.1035 6.52539C11.4472 5.86907 10.5571 5.50006 9.62891 5.5H8.5V3C8.5 2.17157 9.17157 1.5 10 1.5H14V5.5Z" fill="#1A1A1A"/>
<path d="M14.75 12H11.5C11.2239 12 11 11.7761 11 11.5V8.25L14.75 12Z" fill="#1A1A1A"/>
<path d="M19.75 6H16.5C16.2239 6 16 5.77614 16 5.5V2.25L19.75 6Z" fill="#1A1A1A"/>
</svg>
