<svg width="24" height="24" viewBox="0 0 24 24" fill="none" xmlns="http://www.w3.org/2000/svg">
<path d="M9 7.5V11.5C9 12.8807 10.1193 14 11.5 14H15.5V20.5C15.5 21.6046 14.6046 22.5 13.5 22.5H5.5C4.39543 22.5 3.5 21.6046 3.5 20.5V9.5C3.5 8.39543 4.39543 7.5 5.5 7.5H9Z" fill="#1A1A1A"/>
<path d="M14 5.5C14 6.88071 15.1193 8 16.5 8H20.5V14.5C20.5 15.6046 19.6046 16.5 18.5 16.5H17.5V13.5781C17.4999 12.5174 17.0782 11.5001 16.3281 10.75L12.25 6.67188C11.4999 5.9218 10.4826 5.50008 9.42188 5.5H8.5V3.5C8.5 2.39543 9.39543 1.5 10.5 1.5H14V5.5Z" fill="#1A1A1A"/>
<path d="M14.75 12H11.5C11.2239 12 11 11.7761 11 11.5V8.25L14.75 12Z" fill="#1A1A1A"/>
<path d="M19.75 6H16.5C16.2239 6 16 5.77614 16 5.5V2.25L19.75 6Z" fill="#1A1A1A"/>
</svg>
