<svg width="24" height="24" viewBox="0 0 24 24" fill="none" xmlns="http://www.w3.org/2000/svg">
<path fill-rule="evenodd" clip-rule="evenodd" d="M14.6289 0.5C15.2919 0.50006 15.9277 0.763634 16.3965 1.23242L20.7676 5.60352C21.2364 6.0723 21.4999 6.70813 21.5 7.37109V15C21.5 16.3807 20.3807 17.5 19 17.5H16.5V21C16.5 22.3807 15.3807 23.5 14 23.5H5C3.61929 23.5 2.5 22.3807 2.5 21V9C2.5 7.61929 3.61929 6.5 5 6.5H7.5V3C7.5 1.61929 8.61929 0.5 10 0.5H14.6289ZM5 8.5C4.72386 8.5 4.5 8.72386 4.5 9V21C4.5 21.2761 4.72386 21.5 5 21.5H14C14.2761 21.5 14.5 21.2761 14.5 21V14.5H11C9.61929 14.5 8.5 13.3807 8.5 12V8.5H5ZM10 2.5C9.72386 2.5 9.5 2.72386 9.5 3V6.5H9.62891C10.2919 6.50006 10.9277 6.76363 11.3965 7.23242L15.7676 11.6035C16.2364 12.0723 16.4999 12.7081 16.5 13.3711V15.5H19C19.2761 15.5 19.5 15.2761 19.5 15V8.5H16C14.6193 8.5 13.5 7.38071 13.5 6V2.5H10ZM10.5 12C10.5 12.2761 10.7239 12.5 11 12.5H13.8359L10.5 9.16406V12ZM15.5 6C15.5 6.27614 15.7239 6.5 16 6.5H18.8359L15.5 3.16406V6Z" fill="#1A1A1A"/>
</svg>
