<svg width="24" height="24" viewBox="0 0 24 24" fill="none" xmlns="http://www.w3.org/2000/svg">
<path fill-rule="evenodd" clip-rule="evenodd" d="M11.5 7.5C11.5 9.15685 12.8431 10.5 14.5 10.5H21V20C21 21.6569 19.6569 23 18 23H6C4.34315 23 3 21.6569 3 20V4C3 2.34315 4.34315 1 6 1H11.5V7.5ZM12 12.5C11.4477 12.5 11 12.9477 11 13.5V15.25H9.25C8.69772 15.25 8.25 15.6977 8.25 16.25C8.25 16.8023 8.69772 17.25 9.25 17.25H11V19C11 19.5523 11.4477 20 12 20C12.5523 20 13 19.5523 13 19V17.25H14.75C15.3023 17.25 15.75 16.8023 15.75 16.25C15.75 15.6977 15.3023 15.25 14.75 15.25H13V13.5C13 12.9477 12.5523 12.5 12 12.5Z" fill="#1A1A1A"/>
<path d="M13.5 1.31348C13.7904 1.4571 14.0596 1.64552 14.293 1.87891L20.1211 7.70703C20.3545 7.94042 20.5429 8.20959 20.6865 8.5H14.5C13.9477 8.5 13.5 8.05228 13.5 7.5V1.31348Z" fill="#1A1A1A"/>
</svg>
