<svg width="24" height="24" viewBox="0 0 24 24" fill="none" xmlns="http://www.w3.org/2000/svg">
<path fill-rule="evenodd" clip-rule="evenodd" d="M4 1C4.55228 1 5 1.44772 5 2V3H22C22.4044 3 22.769 3.24359 22.9238 3.61719C23.0786 3.99086 22.993 4.42103 22.707 4.70703L17.4141 10L22.707 15.293C22.993 15.579 23.0786 16.0091 22.9238 16.3828C22.769 16.7564 22.4044 17 22 17H5V22.5C5 23.0523 4.55228 23.5 4 23.5C3.44772 23.5 3 23.0523 3 22.5V2C3 1.44772 3.44772 1 4 1ZM5 15H19.5859L15.293 10.707C14.9024 10.3165 14.9024 9.68349 15.293 9.29297L19.5859 5H5V15Z" fill="#1A1A1A"/>
</svg>
