<svg width="24" height="24" viewBox="0 0 24 24" fill="none" xmlns="http://www.w3.org/2000/svg">
<path fill-rule="evenodd" clip-rule="evenodd" d="M4 2.5C2.34315 2.5 1 3.84315 1 5.5V18C1 19.6569 2.34315 21 4 21H20C21.6569 21 23 19.6569 23 18V8C23 6.34315 21.6569 5 20 5H12.6324C12.2811 5 11.9556 4.8157 11.7749 4.5145L11.4401 3.95651C10.8979 3.0529 9.92141 2.5 8.86762 2.5H4ZM21 9.5V8C21 7.44772 20.5523 7 20 7H12.6324C11.5786 7 10.6021 6.4471 10.0599 5.54349L9.72511 4.9855C9.54439 4.6843 9.21888 4.5 8.86762 4.5H4C3.44772 4.5 3 4.94772 3 5.5V9.5H21ZM3 11.5H21V18C21 18.5523 20.5523 19 20 19H4C3.44772 19 3 18.5523 3 18V11.5Z" fill="#1A1A1A"/>
</svg>
