<svg width="24" height="24" viewBox="0 0 24 24" fill="none" xmlns="http://www.w3.org/2000/svg">
<path d="M15.1338 11.6161C15.622 12.1043 15.622 12.8957 15.1338 13.3839C14.6457 13.872 13.8542 13.872 13.3661 13.3839C12.8779 12.8957 12.8779 12.1043 13.3661 11.6161C13.8542 11.128 14.6457 11.128 15.1338 11.6161Z" fill="#1A1A1A"/>
<path d="M17.3838 10.8839C17.872 10.3957 17.872 9.60427 17.3838 9.11612C16.8957 8.62796 16.1042 8.62796 15.6161 9.11612C15.1279 9.60427 15.1279 10.3957 15.6161 10.8839C16.1042 11.372 16.8957 11.372 17.3838 10.8839Z" fill="#1A1A1A"/>
<path d="M8.49995 8.75C8.91416 8.75 9.24995 9.08579 9.24995 9.5V10.5H10.2499C10.6642 10.5 10.9999 10.8358 10.9999 11.25C10.9999 11.6642 10.6642 12 10.2499 12H9.24995V13C9.24995 13.4142 8.91416 13.75 8.49995 13.75C8.08574 13.75 7.74995 13.4142 7.74995 13V12H6.74994C6.33573 12 5.99994 11.6642 5.99994 11.25C5.99994 10.8358 6.33573 10.5 6.74994 10.5H7.74995V9.5C7.74995 9.08579 8.08574 8.75 8.49995 8.75Z" fill="#1A1A1A"/>
<path fill-rule="evenodd" clip-rule="evenodd" d="M5.30386 5.64117C6.7205 5.34629 9.0186 5 11.9999 5C14.9813 5 17.2794 5.34629 18.696 5.64117C20.0566 5.92437 21.0333 6.96454 21.4052 8.20422L23.6285 15.6151C23.9205 16.5883 23.7791 17.6401 23.2406 18.5017C21.9507 20.5656 19.0086 20.7366 17.4882 18.8361L16.1988 17.2244C16.0854 17.0826 15.9136 17 15.732 17H8.26792C8.08629 17 7.91451 17.0826 7.80105 17.2244L6.51169 18.8361C4.99126 20.7366 2.04919 20.5656 0.75923 18.5017C0.220741 17.6401 0.0794136 16.5883 0.371365 15.6151L2.59464 8.20422C2.96655 6.96454 3.94332 5.92437 5.30386 5.64117ZM11.9999 7C9.17301 7 7.01228 7.32843 5.71142 7.5992C5.16031 7.71391 4.69947 8.14832 4.5103 8.77891L2.28702 16.1898C2.1604 16.6119 2.22169 17.068 2.45523 17.4417C3.01465 18.3367 4.29057 18.4109 4.94995 17.5867L6.23931 15.975C6.73232 15.3587 7.47873 15 8.26792 15H15.732C16.5212 15 17.2676 15.3587 17.7606 15.975L19.0499 17.5867C19.7093 18.4109 20.9852 18.3367 21.5447 17.4417C21.7782 17.068 21.8395 16.6119 21.7129 16.1898L19.4896 8.77891C19.3004 8.14832 18.8396 7.71391 18.2885 7.5992C16.9876 7.32843 14.8269 7 11.9999 7Z" fill="#1A1A1A"/>
</svg>
