<svg width="24" height="24" viewBox="0 0 24 24" fill="none" xmlns="http://www.w3.org/2000/svg">
<path fill-rule="evenodd" clip-rule="evenodd" d="M5.30386 5.64117C6.7205 5.34629 9.0186 5 11.9999 5C14.9813 5 17.2794 5.34629 18.696 5.64117C20.0566 5.92437 21.0333 6.96454 21.4052 8.20422L23.6285 15.6151C23.9205 16.5883 23.7791 17.6401 23.2406 18.5017C21.9507 20.5656 19.0086 20.7366 17.4882 18.8361L16.1988 17.2244C16.0854 17.0826 15.9136 17 15.732 17H8.26792C8.08629 17 7.91451 17.0826 7.80105 17.2244L6.51169 18.8361C4.99126 20.7366 2.04919 20.5656 0.75923 18.5017C0.220741 17.6401 0.0794136 16.5883 0.371365 15.6151L2.59464 8.20422C2.96655 6.96454 3.94332 5.92437 5.30386 5.64117ZM8.24994 8.5C8.66415 8.5 8.99994 8.83579 8.99994 9.25V10.5H10.2499C10.6642 10.5 10.9999 10.8358 10.9999 11.25C10.9999 11.6642 10.6642 12 10.2499 12H8.99994V13.25C8.99994 13.6642 8.66415 14 8.24994 14C7.83573 14 7.49994 13.6642 7.49994 13.25V12H6.24994C5.83573 12 5.49994 11.6642 5.49994 11.25C5.49994 10.8358 5.83573 10.5 6.24994 10.5H7.49994V9.25C7.49994 8.83579 7.83573 8.5 8.24994 8.5ZM18.3838 10.6339C18.872 10.1457 18.872 9.35427 18.3838 8.86612C17.8957 8.37796 17.1042 8.37796 16.6161 8.86612C16.1279 9.35427 16.1279 10.1457 16.6161 10.6339C17.1042 11.122 17.8957 11.122 18.3838 10.6339ZM15.8838 11.8661C16.372 12.3543 16.372 13.1457 15.8838 13.6339C15.3957 14.122 14.6042 14.122 14.1161 13.6339C13.6279 13.1457 13.6279 12.3543 14.1161 11.8661C14.6042 11.378 15.3957 11.378 15.8838 11.8661Z" fill="#1A1A1A"/>
</svg>
