<svg width="24" height="24" viewBox="0 0 24 24" fill="none" xmlns="http://www.w3.org/2000/svg">
<path d="M12 7C12.6904 7 13.25 6.44036 13.25 5.75C13.25 5.05964 12.6904 4.5 12 4.5C11.3096 4.5 10.75 5.05964 10.75 5.75C10.75 6.44036 11.3096 7 12 7Z" fill="#1A1A1A"/>
<path d="M12.9723 13.6276C12.2889 14.311 11.1808 14.311 10.4974 13.6276C9.81401 12.9442 9.81401 11.8362 10.4974 11.1528C11.1946 10.4556 14.4119 8.30747 16.5353 6.9169C16.9842 6.62293 17.5021 7.14084 17.2082 7.58974C15.8176 9.71318 13.6694 12.9305 12.9723 13.6276Z" fill="#1A1A1A"/>
<path d="M6.69668 17.3033C7.18484 17.7914 7.97629 17.7914 8.46445 17.3033C8.95261 16.8151 8.95261 16.0236 8.46445 15.5355C7.97629 15.0473 7.18484 15.0473 6.69668 15.5355C6.20853 16.0236 6.20853 16.8151 6.69668 17.3033Z" fill="#1A1A1A"/>
<path d="M5.75 10.75C6.44036 10.75 7 11.3096 7 12C7 12.6904 6.44036 13.25 5.75 13.25C5.05964 13.25 4.5 12.6904 4.5 12C4.5 11.3096 5.05964 10.75 5.75 10.75Z" fill="#1A1A1A"/>
<path d="M19.5 12C19.5 11.3096 18.9404 10.75 18.25 10.75C17.5596 10.75 17 11.3096 17 12C17 12.6904 17.5596 13.25 18.25 13.25C18.9404 13.25 19.5 12.6904 19.5 12Z" fill="#1A1A1A"/>
<path d="M8.46446 6.69668C8.95261 7.18484 8.95261 7.97629 8.46446 8.46445C7.9763 8.95261 7.18484 8.95261 6.69669 8.46445C6.20853 7.97629 6.20853 7.18484 6.69669 6.69668C7.18484 6.20853 7.9763 6.20853 8.46446 6.69668Z" fill="#1A1A1A"/>
<path d="M17.3033 17.3033C17.7915 16.8152 17.7915 16.0237 17.3033 15.5356C16.8152 15.0474 16.0237 15.0474 15.5356 15.5356C15.0474 16.0237 15.0474 16.8152 15.5356 17.3033C16.0237 17.7915 16.8152 17.7915 17.3033 17.3033Z" fill="#1A1A1A"/>
<path fill-rule="evenodd" clip-rule="evenodd" d="M23 12C23 18.0751 18.0751 23 12 23C5.92487 23 1 18.0751 1 12C1 5.92487 5.92487 1 12 1C18.0751 1 23 5.92487 23 12ZM21 12C21 16.9706 16.9706 21 12 21C7.02944 21 3 16.9706 3 12C3 7.02944 7.02944 3 12 3C16.9706 3 21 7.02944 21 12Z" fill="#1A1A1A"/>
</svg>
