<svg width="24" height="24" viewBox="0 0 24 24" fill="none" xmlns="http://www.w3.org/2000/svg">
<path fill-rule="evenodd" clip-rule="evenodd" d="M12 23C18.0751 23 23 18.0751 23 12C23 5.92487 18.0751 1 12 1C5.92487 1 1 5.92487 1 12C1 18.0751 5.92487 23 12 23ZM13.25 5.25C13.25 5.94036 12.6904 6.5 12 6.5C11.3096 6.5 10.75 5.94036 10.75 5.25C10.75 4.55964 11.3096 4 12 4C12.6904 4 13.25 4.55964 13.25 5.25ZM12.9723 13.6276C12.2889 14.311 11.1808 14.311 10.4974 13.6276C9.81401 12.9441 9.81401 11.8361 10.4974 11.1527C11.193 10.4571 14.7013 8.01309 17.0342 6.4129C17.4874 6.10207 18.0229 6.63759 17.7121 7.09075C16.1119 9.42365 13.6678 12.932 12.9723 13.6276ZM5.25 10.75C5.94036 10.75 6.5 11.3096 6.5 12C6.5 12.6904 5.94036 13.25 5.25 13.25C4.55964 13.25 4 12.6904 4 12C4 11.3096 4.55964 10.75 5.25 10.75ZM18.75 10.75C19.4404 10.75 20 11.3096 20 12C20 12.6904 19.4404 13.25 18.75 13.25C18.0596 13.25 17.5 12.6904 17.5 12C17.5 11.3096 18.0596 10.75 18.75 10.75ZM8.11094 6.34317C8.5991 6.83132 8.5991 7.62278 8.11094 8.11093C7.62278 8.59909 6.83133 8.59909 6.34317 8.11093C5.85502 7.62278 5.85502 6.83132 6.34317 6.34317C6.83133 5.85501 7.62278 5.85501 8.11094 6.34317ZM17.6568 15.8891C18.145 16.3772 18.145 17.1687 17.6568 17.6568C17.1687 18.145 16.3772 18.145 15.8891 17.6568C15.4009 17.1687 15.4009 16.3772 15.8891 15.8891C16.3772 15.4009 17.1687 15.4009 17.6568 15.8891ZM8.11093 17.6569C7.62278 18.1451 6.83132 18.1451 6.34317 17.6569C5.85501 17.1687 5.85501 16.3773 6.34317 15.8891C6.83132 15.401 7.62278 15.401 8.11093 15.8891C8.59909 16.3773 8.59909 17.1687 8.11093 17.6569Z" fill="#1A1A1A"/>
</svg>
