<svg width="24" height="24" viewBox="0 0 24 24" fill="none" xmlns="http://www.w3.org/2000/svg">
<path fill-rule="evenodd" clip-rule="evenodd" d="M12 1C5.92487 1 1 5.92487 1 12C1 18.0751 5.92487 23 12 23C18.0751 23 23 18.0751 23 12C23 5.92487 18.0751 1 12 1ZM10.9556 3.05994C11.0533 3.04866 11.1514 3.03894 11.25 3.03081V11.25H7.76438C7.85542 8.88544 8.3725 6.78992 9.13529 5.26434C9.69012 4.15468 10.3236 3.43405 10.9556 3.05994ZM6.26336 11.25C6.35488 8.69004 6.91194 6.35694 7.79365 4.59352C7.92545 4.32992 8.06697 4.07478 8.21786 3.83089C5.35182 5.16005 3.3028 7.95308 3.03081 11.25H6.26336ZM3.03081 12.75C3.3028 16.0469 5.35182 18.84 8.21786 20.1691C8.06697 19.9252 7.92545 19.6701 7.79365 19.4065C6.91194 17.6431 6.35488 15.31 6.26336 12.75H3.03081ZM7.76438 12.75H11.25V20.9692C11.1514 20.9611 11.0533 20.9513 10.9556 20.9401C10.3236 20.566 9.69012 19.8453 9.13529 18.7357C8.3725 17.2101 7.85542 15.1146 7.76438 12.75ZM12.75 12.75V20.9692C12.8486 20.9611 12.9467 20.9513 13.0444 20.9401C13.6764 20.566 14.3099 19.8453 14.8647 18.7357C15.6275 17.2101 16.1446 15.1146 16.2356 12.75H12.75ZM17.7366 12.75C17.6451 15.31 17.0881 17.6431 16.2064 19.4065C16.0746 19.6701 15.933 19.9252 15.7821 20.1691C18.6482 18.84 20.6972 16.0469 20.9692 12.75H17.7366ZM20.9692 11.25C20.6972 7.95308 18.6482 5.16005 15.7821 3.83089C15.933 4.07478 16.0746 4.32992 16.2064 4.59352C17.0881 6.35694 17.6451 8.69004 17.7366 11.25H20.9692ZM16.2356 11.25H12.75V3.03081C12.8486 3.03894 12.9467 3.04866 13.0444 3.05994C13.6764 3.43405 14.3099 4.15468 14.8647 5.26434C15.6275 6.78992 16.1446 8.88544 16.2356 11.25Z" fill="#1A1A1A"/>
</svg>
