<svg width="24" height="24" viewBox="0 0 24 24" fill="none" xmlns="http://www.w3.org/2000/svg">
<path d="M1.02515 11.25H5.26323C5.36403 8.40472 6.03501 5.81316 7.09892 3.86266C7.63196 2.88543 8.28686 2.03294 9.04341 1.40186C4.63573 2.62886 1.34284 6.5317 1.02515 11.25Z" fill="#1A1A1A"/>
<path d="M1.02515 12.75C1.34284 17.4683 4.63572 21.3711 9.04341 22.5981C8.28686 21.967 7.63195 21.1145 7.09892 20.1373C6.03501 18.1868 5.36403 15.5952 5.26323 12.75H1.02515Z" fill="#1A1A1A"/>
<path d="M14.9566 22.5981C19.3642 21.3711 22.6571 17.4683 22.9748 12.75H18.7367C18.6359 15.5952 17.965 18.1868 16.901 20.1373C16.368 21.1145 15.7131 21.967 14.9566 22.5981Z" fill="#1A1A1A"/>
<path d="M22.9748 11.25C22.6571 6.5317 19.3642 2.62886 14.9565 1.40186C15.7131 2.03294 16.368 2.88543 16.901 3.86266C17.965 5.81316 18.6359 8.40472 18.7367 11.25H22.9748Z" fill="#1A1A1A"/>
<path d="M11.25 11.25H6.76422C6.86456 8.61813 7.48812 6.28162 8.41576 4.58094C9.24148 3.06713 10.2405 2.1615 11.25 1.86148V11.25Z" fill="#1A1A1A"/>
<path d="M11.25 22.1385V12.75H6.76422C6.86456 15.3818 7.48812 17.7183 8.41576 19.419C9.24148 20.9328 10.2405 21.8385 11.25 22.1385Z" fill="#1A1A1A"/>
<path d="M17.2357 12.75H12.75V22.1385C13.7595 21.8385 14.7585 20.9328 15.5842 19.419C16.5118 17.7183 17.1354 15.3818 17.2357 12.75Z" fill="#1A1A1A"/>
<path d="M12.75 11.25H17.2357C17.1354 8.61813 16.5118 6.28162 15.5842 4.58094C14.7585 3.06713 13.7595 2.1615 12.75 1.86148V11.25Z" fill="#1A1A1A"/>
</svg>
