<svg width="24" height="24" viewBox="0 0 24 24" fill="none" xmlns="http://www.w3.org/2000/svg">
<path d="M10.7495 2.5C10.7495 1.67157 11.4211 1 12.2495 1C13.078 1 13.7495 1.67157 13.7495 2.5V9C13.7495 9.27614 13.9734 9.5 14.2495 9.5C14.5257 9.5 14.7495 9.27614 14.7495 9V3.5C14.7495 2.67157 15.4211 2 16.2495 2C17.078 2 17.7495 2.67157 17.7495 3.5L17.7495 10C17.7495 10.2761 17.9734 10.5 18.2495 10.5C18.5257 10.5 18.7495 10.2761 18.7495 10V9.50197L18.7495 9.5V7.24658C18.7514 6.41973 19.4223 5.75 20.2495 5.75C21.078 5.75 21.7495 6.42157 21.7495 7.25V13.754C21.7495 18.8604 17.61 23 12.5035 23C8.88827 23 5.60463 20.8929 4.09832 17.6064L1.92539 12.8655C1.60649 12.1697 1.82609 11.3455 2.44891 10.9006C3.27139 10.3131 4.42588 10.6279 4.83639 11.5515L5.79263 13.7031C5.88854 13.9189 6.12234 14.0381 6.35334 13.9891C6.58433 13.9401 6.74954 13.7361 6.74954 13.5V4.75C6.74954 3.92157 7.42111 3.25 8.24954 3.25C9.07797 3.25 9.74954 3.92157 9.74954 4.75V9.5C9.74954 9.77614 9.9734 10 10.2495 10C10.5257 10 10.7495 9.77614 10.7495 9.5V9.00197L10.7495 9V2.5Z" fill="#1A1A1A"/>
</svg>
