<svg width="24" height="24" viewBox="0 0 24 24" fill="none" xmlns="http://www.w3.org/2000/svg">
<path fill-rule="evenodd" clip-rule="evenodd" d="M14.5663 1.76708C14.0773 1.00498 13.2226 0.5 12.2499 0.5C11.1953 0.5 10.2793 1.09369 9.81796 1.96509C9.4896 1.82658 9.12872 1.75 8.74995 1.75C7.23117 1.75 5.99995 2.98122 5.99995 4.5V9.50763C5.08879 8.75831 3.74645 8.63381 2.68582 9.3409C1.56503 10.0881 1.14028 11.5307 1.67737 12.7661L3.87231 17.8144C5.37337 21.2669 8.77939 23.5 12.544 23.5C17.7664 23.5 22 19.2664 22 14.0441V7C22 5.48122 20.7687 4.25 19.25 4.25C18.9899 4.25 18.7384 4.28608 18.4999 4.35352V4.25C18.4999 2.73122 17.2687 1.5 15.7499 1.5C15.3262 1.5 14.9248 1.59586 14.5663 1.76708ZM12.2499 2.5C11.8357 2.5 11.4999 2.83579 11.4999 3.25V4.49198L11.5 4.5V10.5L11.4999 10.5048V11C11.4999 11.5523 11.0522 12 10.4999 12C9.94765 12 9.49994 11.5523 9.49994 11V4.49581C9.49769 4.08353 9.16277 3.75 8.74995 3.75C8.33574 3.75 7.99995 4.08579 7.99995 4.5V13.5C7.99995 13.9723 7.66953 14.3802 7.20754 14.4782C6.74555 14.5763 6.27795 14.3377 6.08614 13.9061L4.94495 11.3385C4.74786 10.895 4.19899 10.7358 3.79522 11.005C3.47991 11.2152 3.36041 11.6211 3.51151 11.9686L5.70645 17.017C6.89003 19.7392 9.57564 21.5 12.544 21.5C16.6618 21.5 20 18.1619 20 14.0441V7C20 6.58579 19.6642 6.25 19.25 6.25C18.8357 6.25 18.5 6.58579 18.5 7V11L18.4999 11.0048V11.5C18.4999 12.0523 18.0522 12.5 17.4999 12.5C16.9477 12.5 16.4999 12.0523 16.4999 11.5V4.25C16.4999 3.83579 16.1642 3.5 15.7499 3.5C15.3357 3.5 14.9999 3.83579 14.9999 4.25V11C14.9999 11.5523 14.5522 12 13.9999 12C13.4477 12 12.9999 11.5523 12.9999 11V3.25C12.9999 2.83579 12.6642 2.5 12.2499 2.5Z" fill="#1A1A1A"/>
</svg>
