<svg width="24" height="24" viewBox="0 0 24 24" fill="none" xmlns="http://www.w3.org/2000/svg">
<g clip-path="url(#clip0_1092_1268)">
<path fill-rule="evenodd" clip-rule="evenodd" d="M11.3964 4.70429C11.7793 4.41826 12.3167 4.43877 12.6776 4.76581L20.9999 12.3068V19.0002C20.9996 20.6568 19.6566 22.0002 17.9999 22.0002H5.99987C4.34329 22.0001 3.00013 20.6567 2.99987 19.0002V12.3068L11.3212 4.76484L11.3964 4.70429ZM10.7499 13.0002C10.0596 13.0003 9.49987 13.5599 9.49987 14.2502V20.0002H14.4999V14.2502C14.4999 13.5598 13.9402 13.0002 13.2499 13.0002H10.7499Z" fill="#1A1A1A"/>
<path d="M9.9823 1.48359C11.1265 0.443461 12.8732 0.443459 14.0175 1.48359L23.6727 10.26C24.0813 10.6315 24.1115 11.2644 23.7401 11.673C23.3686 12.0813 22.7356 12.1117 22.327 11.7404L12.6727 2.96308C12.2913 2.61633 11.7084 2.61633 11.327 2.96308L1.67273 11.7404C1.2641 12.1115 0.631037 12.0814 0.259639 11.673C-0.111709 11.2645 -0.081267 10.6315 0.327022 10.26L9.9823 1.48359Z" fill="#1A1A1A"/>
</g>
<defs>
<clipPath id="clip0_1092_1268">
<rect width="24" height="24" fill="white"/>
</clipPath>
</defs>
</svg>
