<svg width="24" height="24" viewBox="0 0 24 24" fill="none" xmlns="http://www.w3.org/2000/svg">
<g clip-path="url(#clip0_1092_1267)">
<path fill-rule="evenodd" clip-rule="evenodd" d="M9.98224 1.48359C11.1265 0.443461 12.8732 0.443459 14.0174 1.48359L23.6727 10.26C24.0813 10.6314 24.1115 11.2644 23.74 11.673C23.3685 12.0815 22.7355 12.1118 22.327 11.7404L20.9998 10.5334V19.0002C20.9997 20.657 19.6566 22.0002 17.9998 22.0002H5.99981C4.34312 22.0001 2.99991 20.6569 2.99981 19.0002V10.5334L1.67267 11.7404C1.26401 12.1117 0.631004 12.0816 0.259579 11.673C-0.11181 11.2645 -0.0814572 10.6315 0.326962 10.26L9.98224 1.48359ZM12.6727 2.96308C12.2912 2.61633 11.7084 2.61633 11.327 2.96308L4.99981 8.71503V19.0002C4.99991 19.5523 5.44769 20.0001 5.99981 20.0002H9.49981V15.0002C9.49981 14.448 9.94763 14.0003 10.4998 14.0002H13.4998C14.0521 14.0002 14.4998 14.4479 14.4998 15.0002V20.0002H17.9998C18.552 20.0002 18.9997 19.5524 18.9998 19.0002V8.71503L12.6727 2.96308Z" fill="#1A1A1A"/>
</g>
<defs>
<clipPath id="clip0_1092_1267">
<rect width="24" height="24" fill="white"/>
</clipPath>
</defs>
</svg>
