<svg width="24" height="24" viewBox="0 0 24 24" fill="none" xmlns="http://www.w3.org/2000/svg">
<path d="M10.5 4.5C10.0858 4.5 9.75 4.83579 9.75 5.25C9.75 5.66421 10.0858 6 10.5 6H13.5C13.9142 6 14.25 5.66421 14.25 5.25C14.25 4.83579 13.9142 4.5 13.5 4.5H10.5Z" fill="#1A1A1A"/>
<path fill-rule="evenodd" clip-rule="evenodd" d="M8 1C6.34315 1 5 2.34315 5 4V20C5 21.6569 6.34315 23 8 23H16C17.6569 23 19 21.6569 19 20V4C19 2.34315 17.6569 1 16 1H8ZM7 4C7 3.44772 7.44772 3 8 3H16C16.5523 3 17 3.44772 17 4V20C17 20.5523 16.5523 21 16 21H8C7.44772 21 7 20.5523 7 20V4Z" fill="#1A1A1A"/>
</svg>
