<svg width="24" height="24" viewBox="0 0 24 24" fill="none" xmlns="http://www.w3.org/2000/svg">
<path fill-rule="evenodd" clip-rule="evenodd" d="M12 23C18.0751 23 23 18.0751 23 12C23 5.92487 18.0751 1 12 1C5.92487 1 1 5.92487 1 12C1 18.0751 5.92487 23 12 23ZM10.2071 6.79289C10.5976 7.18342 10.5976 7.81658 10.2071 8.20711L7.41421 11H14.5C15.0523 11 15.5 11.4477 15.5 12C15.5 12.5523 15.0523 13 14.5 13H7.41421L10.2071 15.7929C10.5976 16.1834 10.5976 16.8166 10.2071 17.2071C9.81658 17.5976 9.18342 17.5976 8.79289 17.2071L4.29289 12.7071C3.90237 12.3166 3.90237 11.6834 4.29289 11.2929L8.79289 6.79289C9.18342 6.40237 9.81658 6.40237 10.2071 6.79289ZM19 16.5C19 17.0523 18.5523 17.5 18 17.5C17.4477 17.5 17 17.0523 17 16.5V7.5C17 6.94772 17.4477 6.5 18 6.5C18.5523 6.5 19 6.94772 19 7.5V16.5Z" fill="#1A1A1A"/>
</svg>
