<svg width="24" height="24" viewBox="0 0 24 24" fill="none" xmlns="http://www.w3.org/2000/svg">
<path d="M12 1C18.0751 1 23 5.92487 23 12C23 18.0751 18.0751 23 12 23C5.92487 23 1 18.0751 1 12C1 5.92487 5.92487 1 12 1ZM10.207 6.79297C9.81651 6.40244 9.18349 6.40244 8.79297 6.79297L4.29297 11.293C3.90244 11.6835 3.90244 12.3165 4.29297 12.707L8.79297 17.207C9.18349 17.5976 9.81651 17.5976 10.207 17.207C10.5976 16.8165 10.5976 16.1835 10.207 15.793L7.41406 13H14.5C15.0523 13 15.5 12.5523 15.5 12C15.5 11.4477 15.0523 11 14.5 11H7.41406L10.207 8.20703C10.5976 7.81651 10.5976 7.18349 10.207 6.79297ZM18 6.5C17.4477 6.5 17 6.94772 17 7.5V16.5C17 17.0523 17.4477 17.5 18 17.5C18.5523 17.5 19 17.0523 19 16.5V7.5C19 6.94772 18.5523 6.5 18 6.5Z" fill="#1A1A1A"/>
</svg>
