<svg width="24" height="24" viewBox="0 0 24 24" fill="none" xmlns="http://www.w3.org/2000/svg">
<path d="M13.4142 10.5858C12.8896 10.0611 12.2398 9.73789 11.561 9.616C11.5884 9.58505 11.6168 9.55474 11.6464 9.52513L13.1491 8.02248C13.7586 8.28962 14.3295 8.67265 14.8284 9.17158C16.9763 11.3195 16.9763 14.8019 14.8284 16.9497L11.2929 20.4853C9.14501 22.6332 5.66261 22.6332 3.51472 20.4853C1.36684 18.3374 1.36684 14.855 3.51472 12.7071L6.10938 10.1125C6.00518 10.9934 6.06813 11.8904 6.29823 12.752L4.92893 14.1213C3.5621 15.4882 3.5621 17.7042 4.92893 19.0711C6.29577 20.4379 8.51185 20.4379 9.87868 19.0711L13.4142 15.5355C14.7811 14.1687 14.7811 11.9526 13.4142 10.5858Z" fill="#1A1A1A"/>
<path d="M9.17158 14.8284C7.02369 12.6805 7.02369 9.19814 9.17158 7.05025L12.7071 3.51472C14.855 1.36684 18.3374 1.36684 20.4853 3.51472C22.6332 5.6626 22.6332 9.14501 20.4853 11.2929L17.8906 13.8876C17.9948 13.0066 17.9319 12.1096 17.7018 11.248L19.0711 9.87868C20.4379 8.51185 20.4379 6.29577 19.0711 4.92893C17.7042 3.5621 15.4882 3.5621 14.1213 4.92893L10.5858 8.46447C9.21895 9.8313 9.21895 12.0474 10.5858 13.4142C11.1104 13.9389 11.7602 14.2621 12.439 14.384C12.4117 14.415 12.3832 14.4453 12.3536 14.4749L10.8509 15.9775C10.2414 15.7104 9.6705 15.3274 9.17158 14.8284Z" fill="#1A1A1A"/>
</svg>
