<svg width="24" height="24" viewBox="0 0 24 24" fill="none" xmlns="http://www.w3.org/2000/svg">
<path fill-rule="evenodd" clip-rule="evenodd" d="M12 23C18.0751 23 23 18.0751 23 12C23 5.92487 18.0751 1 12 1C5.92487 1 1 5.92487 1 12C1 18.0751 5.92487 23 12 23ZM8.5 7.25C8.5 8.07843 7.82843 8.75 7 8.75C6.17157 8.75 5.5 8.07843 5.5 7.25C5.5 6.42157 6.17157 5.75 7 5.75C7.82843 5.75 8.5 6.42157 8.5 7.25ZM10 7.25C10 6.69772 10.4477 6.25 11 6.25H17.5C18.0523 6.25 18.5 6.69772 18.5 7.25C18.5 7.80228 18.0523 8.25 17.5 8.25H11C10.4477 8.25 10 7.80228 10 7.25ZM11 11C10.4477 11 10 11.4477 10 12C10 12.5523 10.4477 13 11 13H17.5C18.0523 13 18.5 12.5523 18.5 12C18.5 11.4477 18.0523 11 17.5 11H11ZM11 15.75C10.4477 15.75 10 16.1977 10 16.75C10 17.3023 10.4477 17.75 11 17.75H17.5C18.0523 17.75 18.5 17.3023 18.5 16.75C18.5 16.1977 18.0523 15.75 17.5 15.75H11ZM8.5 12C8.5 12.8284 7.82843 13.5 7 13.5C6.17157 13.5 5.5 12.8284 5.5 12C5.5 11.1716 6.17157 10.5 7 10.5C7.82843 10.5 8.5 11.1716 8.5 12ZM8.5 16.75C8.5 17.5784 7.82843 18.25 7 18.25C6.17157 18.25 5.5 17.5784 5.5 16.75C5.5 15.9216 6.17157 15.25 7 15.25C7.82843 15.25 8.5 15.9216 8.5 16.75Z" fill="#1A1A1A"/>
</svg>
