<svg width="24" height="24" viewBox="0 0 24 24" fill="none" xmlns="http://www.w3.org/2000/svg">
<path fill-rule="evenodd" clip-rule="evenodd" d="M13.0857 5.6965C13.1743 5.73793 13.2594 5.77855 13.3411 5.8186L13.3596 5.82765C14.5878 6.43178 15.0682 6.91216 15.6723 8.14042L15.6814 8.15885C15.7214 8.24061 15.762 8.32567 15.8035 8.41427C15.8779 8.57338 15.9549 8.74393 16.036 8.92737C16.2138 9.32943 16.7862 9.32943 16.964 8.92737C17.0451 8.74393 17.1221 8.57338 17.1965 8.41427C17.2379 8.32567 17.2785 8.24061 17.3186 8.15885L17.3277 8.14042C17.9318 6.91216 18.4122 6.43178 19.6404 5.82765L19.6589 5.8186C19.7406 5.77855 19.8257 5.73793 19.9143 5.6965C20.0734 5.6221 20.2439 5.54508 20.4274 5.46397C20.8294 5.28621 20.8294 4.71376 20.4274 4.536C20.2439 4.45489 20.0734 4.37787 19.9143 4.30347C19.8257 4.26204 19.7406 4.22142 19.6589 4.18137L19.6404 4.17232C18.4122 3.56819 17.9318 3.08781 17.3277 1.85955L17.3186 1.84112C17.2785 1.75936 17.2379 1.6743 17.1965 1.5857C17.1221 1.42659 17.0451 1.25604 16.964 1.0726C16.7862 0.670544 16.2138 0.670544 16.036 1.0726C15.9549 1.25604 15.8779 1.42659 15.8035 1.5857C15.762 1.6743 15.7214 1.75936 15.6814 1.84112L15.6723 1.85955C15.0682 3.08781 14.5878 3.56819 13.3596 4.17232L13.3411 4.18137C13.2594 4.22142 13.1743 4.26204 13.0857 4.30347C12.9266 4.37787 12.756 4.45489 12.5726 4.536C12.1705 4.71376 12.1705 5.28621 12.5726 5.46397C12.756 5.54508 12.9266 5.6221 13.0857 5.6965ZM15.8106 5.68933C15.548 5.42666 15.2615 5.2024 14.9503 4.99999C15.2615 4.79757 15.548 4.57331 15.8106 4.31065C16.0733 4.04798 16.2976 3.76154 16.5 3.45028C16.7024 3.76154 16.9267 4.04798 17.1893 4.31065C17.452 4.57331 17.7384 4.79757 18.0497 4.99998C17.7384 5.2024 17.452 5.42666 17.1893 5.68932C16.9267 5.95199 16.7024 6.23843 16.5 6.54969C16.2976 6.23843 16.0733 5.95199 15.8106 5.68933Z" fill="#1A1A1A"/>
<path fill-rule="evenodd" clip-rule="evenodd" d="M3.90901 3.90899C4.78769 3.03031 6.21232 3.03032 7.09099 3.909L21.0909 17.909C21.9696 18.7877 21.9696 20.2123 21.0909 21.091C20.2122 21.9697 18.7876 21.9697 17.9089 21.091L3.90901 7.09097C3.03033 6.21229 3.03033 4.78767 3.90901 3.90899ZM6.03033 4.96966C5.73744 4.67676 5.26257 4.67676 4.96967 4.96965C4.67678 5.26255 4.67678 5.73742 4.96967 6.03031L10.4697 11.5303L11.5303 10.4697L6.03033 4.96966Z" fill="#1A1A1A"/>
<path d="M3.78119 10.7702C3.40226 11.914 2.91398 12.4022 1.77018 12.7812C1.57254 12.8466 1.57254 13.1533 1.77018 13.2188C2.91398 13.5977 3.40226 14.086 3.78119 15.2298C3.84667 15.4275 4.15335 15.4275 4.21883 15.2298C4.59776 14.086 5.08604 13.5977 6.22984 13.2188C6.42748 13.1533 6.42748 12.8466 6.22984 12.7812C5.08604 12.4022 4.59776 11.914 4.21883 10.7702C4.15335 10.5725 3.84667 10.5725 3.78119 10.7702Z" fill="#1A1A1A"/>
<path d="M6.27528 17.7998C7.29249 17.5158 7.51586 17.2925 7.79982 16.2753C7.8558 16.0747 8.14423 16.0747 8.20021 16.2753C8.48418 17.2925 8.70755 17.5158 9.72475 17.7998C9.92529 17.8558 9.92529 18.1442 9.72475 18.2002C8.70755 18.4841 8.48418 18.7075 8.20021 19.7247C8.14423 19.9253 7.8558 19.9253 7.79982 19.7247C7.51586 18.7075 7.29249 18.4841 6.27528 18.2002C6.07474 18.1442 6.07474 17.8558 6.27528 17.7998Z" fill="#1A1A1A"/>
</svg>
