<svg width="24" height="24" viewBox="0 0 24 24" fill="none" xmlns="http://www.w3.org/2000/svg">
<path d="M16.036 1.0726C15.094 3.20306 14.7031 3.59404 12.5726 4.536C12.1705 4.71376 12.1705 5.28621 12.5726 5.46397C14.7031 6.40593 15.094 6.79691 16.036 8.92737C16.2138 9.32943 16.7862 9.32943 16.964 8.92737C17.9059 6.79691 18.2969 6.40593 20.4274 5.46397C20.8294 5.28621 20.8294 4.71376 20.4274 4.536C18.2969 3.59404 17.9059 3.20306 16.964 1.0726C16.7862 0.670544 16.2138 0.670544 16.036 1.0726Z" fill="#1A1A1A"/>
<path d="M4.26256 4.26255C4.94598 3.57913 6.05402 3.57913 6.73744 4.26255L11.0303 8.55545L8.55546 11.0303L4.26256 6.73742C3.57915 6.054 3.57915 4.94597 4.26256 4.26255Z" fill="#1A1A1A"/>
<path d="M9.96968 12.4445L12.4446 9.96966L20.7374 18.2625C21.4209 18.946 21.4209 20.054 20.7374 20.7374C20.054 21.4208 18.946 21.4208 18.2626 20.7374L9.96968 12.4445Z" fill="#1A1A1A"/>
<path d="M3.78119 10.7702C3.40226 11.914 2.91398 12.4022 1.77018 12.7812C1.57254 12.8466 1.57254 13.1533 1.77018 13.2188C2.91398 13.5977 3.40226 14.086 3.78119 15.2298C3.84667 15.4275 4.15335 15.4275 4.21883 15.2298C4.59776 14.086 5.08604 13.5977 6.22984 13.2188C6.42748 13.1533 6.42748 12.8466 6.22984 12.7812C5.08604 12.4022 4.59776 11.914 4.21883 10.7702C4.15335 10.5725 3.84667 10.5725 3.78119 10.7702Z" fill="#1A1A1A"/>
<path d="M6.27528 17.7998C7.29249 17.5158 7.51586 17.2925 7.79982 16.2753C7.8558 16.0747 8.14423 16.0747 8.20021 16.2753C8.48418 17.2925 8.70755 17.5158 9.72475 17.7998C9.92529 17.8558 9.92529 18.1442 9.72475 18.2002C8.70755 18.4841 8.48418 18.7075 8.20021 19.7247C8.14423 19.9253 7.8558 19.9253 7.79982 19.7247C7.51586 18.7075 7.29249 18.4841 6.27528 18.2002C6.07474 18.1442 6.07474 17.8558 6.27528 17.7998Z" fill="#1A1A1A"/>
</svg>
