<svg width="24" height="24" viewBox="0 0 24 24" fill="none" xmlns="http://www.w3.org/2000/svg">
<path d="M8 5.49882C8 5.00928 8.03342 4.52739 8.09863 4.05546C5.92082 5.59486 4.5 8.13127 4.5 10.9988C4.5 15.6932 8.30558 19.4988 13 19.4988C15.8674 19.4988 18.4021 18.077 19.9414 15.8992C19.4701 15.9644 18.989 15.9988 18.5 15.9988C12.701 15.9988 8 11.2978 8 5.49882ZM10 5.49882C10 10.1932 13.8056 13.9988 18.5 13.9988C19.5655 13.9988 20.5839 13.8009 21.5234 13.4432C21.8915 13.3031 22.3074 13.3922 22.5859 13.6707C22.8644 13.9492 22.9535 14.3651 22.8135 14.7332C21.3084 18.6858 17.4853 21.4988 13 21.4988C7.20101 21.4988 2.5 16.7978 2.5 10.9988C2.5 6.51398 5.31246 2.69066 9.26465 1.18535C9.63272 1.04535 10.0486 1.13442 10.3271 1.41289C10.6056 1.69138 10.6947 2.10728 10.5547 2.47538C10.1972 3.41434 10 4.43288 10 5.49882Z" fill="#1A1A1A"/>
</svg>
