<svg width="24" height="24" viewBox="0 0 24 24" fill="none" xmlns="http://www.w3.org/2000/svg">
<path d="M9.26465 1.18535C9.63272 1.04535 10.0486 1.13442 10.3271 1.41289C10.6056 1.69138 10.6947 2.10729 10.5547 2.47538C10.1972 3.41433 10 4.4329 10 5.49882C10 10.1932 13.8056 13.9988 18.5 13.9988C19.5655 13.9988 20.5839 13.8009 21.5234 13.4432C21.8915 13.3031 22.3074 13.3922 22.5859 13.6707C22.8644 13.9492 22.9535 14.3651 22.8135 14.7332C21.3084 18.6858 17.4852 21.4988 13 21.4988C7.20103 21.4988 2.50002 16.7978 2.5 10.9988C2.5 6.51398 5.31247 2.69067 9.26465 1.18535Z" fill="#1A1A1A"/>
</svg>
