<svg width="24" height="24" viewBox="0 0 24 24" fill="none" xmlns="http://www.w3.org/2000/svg">
<path d="M9.26465 1.18553C9.63272 1.04553 10.0486 1.13461 10.3271 1.41307C10.6055 1.69156 10.6947 2.10753 10.5547 2.47557C10.1973 3.41446 10 4.43316 10 5.49901C10.0002 10.1933 13.8057 13.999 18.5 13.999C19.5655 13.999 20.5839 13.8011 21.5234 13.4433C21.8915 13.3033 22.3074 13.3924 22.5859 13.6709C22.8643 13.9494 22.9535 14.3653 22.8135 14.7334C21.3084 18.6859 17.4852 21.499 13 21.499C7.2011 21.499 2.50015 16.7979 2.5 10.999C2.5 6.51419 5.31251 2.69087 9.26465 1.18553ZM8.09863 4.05565C5.9209 5.59505 4.5 8.13151 4.5 10.999C4.50015 15.6933 8.30567 19.499 13 19.499C15.8673 19.499 18.4021 18.077 19.9414 15.8994C19.4702 15.9646 18.989 15.999 18.5 15.999C12.7011 15.999 8.00015 11.2979 8 5.49901C8 5.00955 8.03345 4.52749 8.09863 4.05565Z" fill="#1A1A1A"/>
</svg>
