<svg width="24" height="24" viewBox="0 0 24 24" fill="none" xmlns="http://www.w3.org/2000/svg">
<path fill-rule="evenodd" clip-rule="evenodd" d="M1.26363 3.32325C1.54465 3.01784 1.98567 2.91735 2.37105 3.07129L22.371 11.0713C22.7507 11.2232 23 11.5911 23 12C23 12.4089 22.7507 12.7769 22.371 12.9287L2.37105 20.9287C1.98567 21.0827 1.54465 20.9822 1.26363 20.6768C0.982882 20.3713 0.919874 19.9239 1.10543 19.5527L4.88179 12L1.10543 4.44727C0.919873 4.07612 0.982884 3.62875 1.26363 3.32325ZM6.43941 10.6436L11.7539 11.1748C12.1775 11.2172 12.5 11.5742 12.5 12C12.4999 12.4257 12.1774 12.7818 11.7539 12.8242L6.43941 13.3555L4.07125 18.0947L19.3076 12L4.07125 5.90626L6.43941 10.6436Z" fill="#1A1A1A"/>
</svg>
