<svg width="24" height="24" viewBox="0 0 24 24" fill="none" xmlns="http://www.w3.org/2000/svg">
<path d="M1.26361 3.32323C1.54462 3.01783 1.98566 2.91736 2.37104 3.07128L22.371 11.0713C22.7507 11.2231 22.9999 11.5911 22.9999 12C22.9999 12.4089 22.7507 12.7768 22.371 12.9287L2.37104 20.9287C1.98566 21.0826 1.54462 20.9821 1.26361 20.6767C0.982896 20.3713 0.919875 19.9239 1.10541 19.5527L4.14643 13.4697L11.7529 12.8144C12.1755 12.778 12.4999 12.4242 12.4999 12C12.4999 11.5758 12.1755 11.222 11.7529 11.1855L4.14643 10.5293L1.10541 4.44726C0.919881 4.07612 0.982893 3.62872 1.26361 3.32323Z" fill="#1A1A1A"/>
</svg>
