<svg width="24" height="24" viewBox="0 0 24 24" fill="none" xmlns="http://www.w3.org/2000/svg">
<path d="M18.8084 2.69255C18.125 2.00914 17.017 2.00914 16.3336 2.69256L5.01983 14.0062C4.4658 14.5603 3.65718 15.7324 3.03613 16.7971C2.72414 17.3319 2.45285 17.8509 2.28106 18.2632C2.19579 18.4679 2.13048 18.6569 2.09948 18.8135C2.08407 18.8914 2.07467 18.973 2.08083 19.0504C2.08674 19.1247 2.10976 19.2279 2.19141 19.3095C2.27306 19.3912 2.37626 19.4142 2.45056 19.4201C2.52796 19.4263 2.60959 19.4169 2.68742 19.4015C2.84406 19.3705 3.03311 19.3052 3.23775 19.2199C3.65005 19.0481 4.16904 18.7768 4.70388 18.4648C5.76854 17.8438 6.94068 17.0351 7.49471 16.4811L18.8084 5.16743C19.4919 4.48401 19.4918 3.37597 18.8084 2.69255Z" fill="#1A1A1A"/>
<path d="M20.3417 16.2496C17.4728 18.7582 13.3541 19.3428 8.55995 18.2204C7.98762 18.7185 7.21679 19.2602 6.47266 19.7309C12.2692 21.461 17.7616 21.1624 21.6582 17.7552C22.074 17.3916 22.1163 16.7599 21.7528 16.3441C21.3892 15.9284 20.7575 15.886 20.3417 16.2496Z" fill="#1A1A1A"/>
</svg>
