<svg width="24" height="24" viewBox="0 0 24 24" fill="none" xmlns="http://www.w3.org/2000/svg">
<path fill-rule="evenodd" clip-rule="evenodd" d="M18 21.2211C21.0102 19.2584 23 15.8616 23 12C23 5.92487 18.0751 1 12 1C5.92487 1 1 5.92487 1 12C1 15.8616 2.98979 19.2584 6 21.2211C7.72556 22.3462 9.78642 23 12 23C14.2136 23 16.2744 22.3462 18 21.2211ZM11 20.9451V18.5C11 17.6716 10.3284 17 9.5 17C8.67157 17 8 17.6716 8 18.5V20.0645C8.9215 20.5224 9.93262 20.8271 11 20.9451ZM6 18.7083V16.4721C6 16.0064 6.10844 15.5471 6.31672 15.1305L11.1056 5.55279C11.275 5.214 11.6212 5 12 5C12.3788 5 12.725 5.214 12.8944 5.55279L17.6833 15.1305C17.8916 15.5471 18 16.0064 18 16.4721V18.7083C19.8412 17.0604 21 14.6655 21 12C21 7.02944 16.9706 3 12 3C7.02944 3 3 7.02944 3 12C3 14.6655 4.15875 17.0604 6 18.7083ZM16 20.0645V18.5C16 17.6716 15.3284 17 14.5 17C13.6716 17 13 17.6716 13 18.5V20.9451C14.0674 20.8271 15.0785 20.5224 16 20.0645ZM9.5 15C10.4793 15 11.3647 15.4022 12 16.0505C12.6353 15.4022 13.5207 15 14.5 15C14.8281 15 15.1456 15.0451 15.4467 15.1296L14.2766 12.7893C13.6305 13.2374 12.8459 13.5 12 13.5C11.1541 13.5 10.3695 13.2374 9.72336 12.7893L8.55326 15.1296C8.85438 15.0451 9.17192 15 9.5 15ZM10.6365 10.9631L12 8.23607L13.3635 10.9631C13.0063 11.2962 12.527 11.5 12 11.5C11.4731 11.5 10.9937 11.2962 10.6365 10.9631Z" fill="#1A1A1A"/>
</svg>
