<svg width="24" height="24" viewBox="0 0 24 24" fill="none" xmlns="http://www.w3.org/2000/svg">
<path d="M18 21.2211C21.0102 19.2584 23 15.8616 23 12C23 5.92487 18.0751 1 12 1C5.92487 1 1 5.92487 1 12C1 15.8616 2.98979 19.2584 6 21.2211V15.4721C6 15.0064 6.10844 14.5471 6.31672 14.1305L11.1056 4.55279C11.275 4.214 11.6212 4 12 4C12.3788 4 12.725 4.214 12.8944 4.55279L17.6833 14.1305C17.8916 14.5471 18 15.0064 18 15.4721V21.2211Z" fill="#1A1A1A"/>
<path d="M16 22.2501V17.5C16 16.6716 15.3284 16 14.5 16C13.6716 16 13 16.6716 13 17.5V22.9552C14.0495 22.8606 15.0564 22.6186 16 22.2501Z" fill="#1A1A1A"/>
<path d="M11.0142 22.9564C11.0095 22.956 11.0047 22.9556 11 22.9552V17.5C11 16.6716 10.3284 16 9.5 16C8.67157 16 8 16.6716 8 17.5V22.2501C8.94786 22.6203 9.95965 22.8628 11.0142 22.9564Z" fill="#1A1A1A"/>
<path d="M9.5 14C10.4793 14 11.3647 14.4022 12 15.0505C12.6353 14.4022 13.5207 14 14.5 14C14.8281 14 15.1456 14.0451 15.4467 14.1296L14.2766 11.7892C13.6308 12.237 12.8463 12.5 12 12.5C11.1537 12.5 10.3692 12.237 9.72344 11.7892L8.55326 14.1296C8.85438 14.0451 9.17192 14 9.5 14Z" fill="#1A1A1A"/>
<path d="M10.6364 9.96328L12 7.23607L13.3636 9.96327C13.0057 10.297 12.5263 10.5 12 10.5C11.4737 10.5 10.9943 10.297 10.6364 9.96328Z" fill="#1A1A1A"/>
</svg>
