<svg width="24" height="24" viewBox="0 0 24 24" fill="none" xmlns="http://www.w3.org/2000/svg">
<path d="M18.8084 2.69255C18.125 2.00914 17.0169 2.00914 16.3335 2.69256L5.01977 14.0062C4.46574 14.5603 3.65712 15.7324 3.03607 16.7971C2.72408 17.3319 2.45279 17.8509 2.281 18.2632C2.19573 18.4679 2.13042 18.6569 2.09941 18.8135C2.08401 18.8914 2.07461 18.973 2.08077 19.0504C2.08667 19.1247 2.1097 19.2279 2.19135 19.3095C2.273 19.3912 2.3762 19.4142 2.4505 19.4201C2.5279 19.4263 2.60953 19.4169 2.68736 19.4015C2.844 19.3705 3.03305 19.3052 3.23769 19.2199C3.64998 19.0481 4.16897 18.7768 4.70382 18.4648C5.76848 17.8438 6.94062 17.0351 7.49465 16.4811L18.8084 5.16743C19.4918 4.48401 19.4918 3.37597 18.8084 2.69255Z" fill="#1A1A1A"/>
<path d="M20.3417 16.2496C17.4727 18.7582 13.354 19.3428 8.55988 18.2204C7.98756 18.7185 7.21673 19.2602 6.4726 19.7309C12.2691 21.461 17.7616 21.1624 21.6582 17.7552C22.0739 17.3916 22.1163 16.7599 21.7527 16.3441C21.3892 15.9284 20.7574 15.886 20.3417 16.2496Z" fill="#1A1A1A"/>
</svg>
