<svg width="24" height="24" viewBox="0 0 24 24" fill="none" xmlns="http://www.w3.org/2000/svg">
<path fill-rule="evenodd" clip-rule="evenodd" d="M15.9801 2.339C16.8588 1.46032 18.2834 1.46032 19.1621 2.339C20.0408 3.21768 20.0408 4.6423 19.1621 5.52098L7.84837 16.8347C7.24696 17.4361 6.02861 18.271 4.95593 18.8967C4.41206 19.214 3.87155 19.4975 3.43018 19.6815C3.21399 19.7715 2.98936 19.8515 2.78461 19.892C2.68369 19.912 2.55206 19.9298 2.41102 19.9186C2.27925 19.9081 2.03872 19.8638 1.83798 19.6631C1.63721 19.4623 1.59299 19.2218 1.58251 19.09C1.5713 18.949 1.58913 18.8174 1.6091 18.7165C1.64963 18.5117 1.72956 18.2871 1.81964 18.0709C2.00354 17.6295 2.2871 17.089 2.60436 16.5452C3.23008 15.4725 4.06497 14.2541 4.66639 13.6527L15.9801 2.339ZM18.1014 3.39966C17.8085 3.10677 17.3337 3.10677 17.0408 3.39966L6.25738 14.183C5.96449 14.4759 5.96449 14.9508 6.25739 15.2437C6.55028 15.5366 7.02515 15.5366 7.31804 15.2437L18.1014 4.46032C18.3943 4.16743 18.3943 3.69255 18.1014 3.39966Z" fill="#1A1A1A"/>
<path d="M21.6582 17.7552C17.9052 21.0369 12.6716 21.4348 7.11185 19.9138C7.86966 19.4158 8.62768 18.8582 9.15801 18.3523C13.6965 19.2905 17.5928 18.6533 20.3417 16.2496C20.7575 15.886 21.3893 15.9284 21.7528 16.3441C22.1163 16.7599 22.074 17.3916 21.6582 17.7552Z" fill="#1A1A1A"/>
</svg>
