<svg width="24" height="24" viewBox="0 0 24 24" fill="none" xmlns="http://www.w3.org/2000/svg">
<path fill-rule="evenodd" clip-rule="evenodd" d="M12 1C9.23862 1 7.00005 3.23858 7.00005 6C7.00005 8.76142 9.23862 11 12 11C14.7615 11 17 8.76142 17 6C17 3.23858 14.7615 1 12 1ZM9.00005 6C9.00005 4.34315 10.3432 3 12 3C13.6569 3 15 4.34315 15 6C15 7.65685 13.6569 9 12 9C10.3432 9 9.00005 7.65685 9.00005 6Z" fill="#1A1A1A"/>
<path fill-rule="evenodd" clip-rule="evenodd" d="M1.7527 18.7834C2.59352 15.2567 5.35742 13.1145 8.51047 12.2269C8.63223 12.1926 8.76203 12.209 8.87518 12.2655C9.81578 12.7356 10.877 13 12 13C13.1231 13 14.1843 12.7356 15.1249 12.2655C15.2381 12.209 15.3679 12.1926 15.4896 12.2269C18.6427 13.1145 21.4066 15.2567 22.2474 18.7834C22.6931 20.6528 21.068 22 19.5 22H4.50005C2.93211 22 1.307 20.6528 1.7527 18.7834ZM8.70702 14.3785C8.59329 14.3338 8.46713 14.3285 8.3523 14.3704C6.06174 15.2043 4.26666 16.8628 3.69817 19.2472C3.65535 19.4268 3.70148 19.5867 3.83367 19.7284C3.97727 19.8823 4.21779 20 4.50005 20H19.5C19.7823 20 20.0228 19.8823 20.1664 19.7284C20.2986 19.5867 20.3447 19.4268 20.3019 19.2472C19.7334 16.8628 17.9383 15.2043 15.6478 14.3704C15.533 14.3285 15.4068 14.3338 15.2931 14.3785C14.2732 14.7797 13.1623 15 12 15C10.8377 15 9.72691 14.7797 8.70702 14.3785Z" fill="#1A1A1A"/>
</svg>
