<svg width="24" height="24" viewBox="0 0 24 24" fill="none" xmlns="http://www.w3.org/2000/svg">
<path fill-rule="evenodd" clip-rule="evenodd" d="M6.21242 3.92209C6.09707 3.91429 5.99974 3.95387 5.92646 4.04367C4.26023 6.0855 3.76219 7.88263 4.1009 9.6574C4.45315 11.5031 5.74398 13.5221 8.11117 15.8893C10.4784 18.2565 12.4974 19.5473 14.3431 19.8996C16.1179 20.2383 17.915 19.7403 19.9568 18.074C20.0466 18.0008 20.0862 17.9034 20.0784 17.7881C20.0701 17.6655 20.006 17.5334 19.8776 17.4416L17.5601 15.7862C17.2054 15.5329 16.7275 15.5384 16.3788 15.7999L15.4632 16.4866C14.7119 17.0501 13.6355 17.1759 12.7679 16.5781C12.0976 16.1163 11.0946 15.3372 9.87893 14.1216C8.6633 12.9059 7.88417 11.9029 7.42238 11.2326C6.82461 10.365 6.95037 9.28857 7.51384 8.53728L8.20054 7.62168C8.46205 7.273 8.46761 6.7951 8.21428 6.44044L6.55886 4.12285C6.46714 3.99444 6.33497 3.93038 6.21242 3.92209ZM4.37692 2.77918C5.4283 1.49081 7.31015 1.73374 8.18633 2.96037L9.84174 5.27796C10.6017 6.34196 10.5851 7.77564 9.80054 8.82168L9.11384 9.73728C9.0566 9.8136 9.03296 9.89056 9.02963 9.95122C9.0265 10.008 9.04001 10.0553 9.06934 10.0979C9.46335 10.6698 10.1649 11.579 11.2931 12.7073C12.4214 13.8356 13.3307 14.5371 13.9026 14.9312C13.9451 14.9605 13.9925 14.974 14.0493 14.9709C14.1099 14.9675 14.1869 14.9439 14.2632 14.8866L15.1788 14.1999C16.2249 13.4154 17.6585 13.3987 18.7225 14.1587L21.0401 15.8142C22.2668 16.6903 22.5097 18.5722 21.2213 19.6236C18.8577 21.5524 16.4771 22.343 13.9682 21.8641C11.5301 21.3988 9.15937 19.766 6.69695 17.3035C4.23453 14.8411 2.60165 12.4704 2.13636 10.0323C1.65753 7.52336 2.4481 5.14279 4.37692 2.77918Z" fill="#1A1A1A"/>
</svg>
