<svg width="24" height="24" viewBox="0 0 24 24" fill="none" xmlns="http://www.w3.org/2000/svg">
<path d="M7.59784 3.1775C6.892 2.18932 5.39953 2.01362 4.58598 3.02914C2.82264 5.23019 2.2013 7.38704 2.71407 9.648C3.21729 11.8668 4.79597 14.1009 7.22024 16.5251C9.64451 18.9494 11.8786 20.5281 14.0974 21.0313C16.3583 21.5441 18.5152 20.9227 20.7162 19.1594C21.7318 18.3458 21.5561 16.8534 20.5679 16.1475L18.2503 14.4921C17.3636 13.8588 16.1689 13.8727 15.2972 14.5265L14.3816 15.2132C14.0755 15.4428 13.7053 15.454 13.4373 15.2694C12.8408 14.8584 11.9081 14.1375 10.758 12.9874C9.60785 11.8373 8.88694 10.9046 8.47598 10.3081C8.29135 10.0401 8.30262 9.66992 8.53223 9.36378L9.21893 8.44818C9.8727 7.57648 9.88659 6.38175 9.25326 5.49509L7.59784 3.1775Z" fill="#1A1A1A"/>
</svg>
