<svg width="24" height="24" viewBox="0 0 24 24" fill="none" xmlns="http://www.w3.org/2000/svg">
<path d="M22.2096 9.21547C22.4803 9.48616 22.5727 9.88764 22.4476 10.2494C22.3225 10.6112 22.0018 10.8698 21.6217 10.9155L17.889 11.3634C17.6666 11.3901 17.4595 11.4907 17.3011 11.6491L15.3003 13.65C15.8342 14.7417 16.0405 15.7941 16.0004 16.7902C15.9278 18.5911 15.0556 20.0135 14.2862 20.954C13.5163 21.895 12.1826 21.8158 11.4263 21.0595L7.89075 17.524L5.26038 20.1543C5.12897 20.2857 4.9799 20.3982 4.81745 20.4884L2.64522 21.6952C2.42543 21.8173 2.18316 21.5751 2.30527 21.3553L3.51206 19.1831C3.60231 19.0206 3.71476 18.8715 3.84617 18.7401L6.47653 16.1098L2.941 12.5742C2.18471 11.8179 2.10547 10.4842 3.04656 9.71431C3.98702 8.94495 5.40938 8.07269 7.21036 8.00013C8.20639 7.96001 9.25882 8.16637 10.3505 8.70023L12.3513 6.69939C12.5098 6.54095 12.6104 6.33389 12.6371 6.11143L13.085 2.37881C13.1306 1.99871 13.3892 1.67801 13.751 1.55288C14.1128 1.42775 14.5143 1.52015 14.785 1.79085L22.2096 9.21547Z" fill="#1A1A1A"/>
</svg>
