<svg width="24" height="24" viewBox="0 0 24 24" fill="none" xmlns="http://www.w3.org/2000/svg">
<path fill-rule="evenodd" clip-rule="evenodd" d="M12 1C18.0751 1 23 5.92487 23 12C23 18.0751 18.0751 23 12 23C5.92487 23 1 18.0751 1 12C1 5.92487 5.92487 1 12 1ZM12 5.5C11.4477 5.5 11 5.94772 11 6.5V11H6.5C5.94771 11 5.5 11.4477 5.5 12C5.5 12.5523 5.94771 13 6.5 13H11V17.5C11 18.0523 11.4477 18.5 12 18.5C12.5523 18.5 13 18.0523 13 17.5V13H17.5C18.0523 13 18.5 12.5523 18.5 12C18.5 11.4477 18.0523 11 17.5 11H13V6.5C13 5.94772 12.5523 5.5 12 5.5Z" fill="#1A1A1A"/>
</svg>
