<svg width="24" height="24" viewBox="0 0 24 24" fill="none" xmlns="http://www.w3.org/2000/svg">
<path d="M17.2812 0.770181C16.9023 1.91398 16.414 2.40226 15.2702 2.78119C15.0726 2.84667 15.0726 3.15335 15.2702 3.21883C16.414 3.59776 16.9023 4.08604 17.2812 5.22984C17.3467 5.42748 17.6534 5.42748 17.7189 5.22984C18.0978 4.08604 18.5861 3.59776 19.7299 3.21883C19.9275 3.15335 19.9275 2.84667 19.7299 2.78119C18.5861 2.40226 18.0978 1.91398 17.7189 0.770181C17.6534 0.572538 17.3467 0.572537 17.2812 0.770181Z" fill="#1A1A1A"/>
<path fill-rule="evenodd" clip-rule="evenodd" d="M12.9487 2.6838C12.7741 2.15986 12.2078 1.8767 11.6838 2.05134C11.1599 2.22599 10.8767 2.79231 11.0514 3.31625C11.4688 4.56857 11.3909 6.00157 10.9777 7.36044C10.9444 7.46992 10.9091 7.57833 10.8719 7.68552C10.5863 7.55147 10.3026 7.43724 10.0233 7.34413C8.75894 6.92267 7.25527 6.84516 6.25737 7.84307C5.94961 8.15083 5.73999 8.51861 5.61427 8.91288L1.41318 19.6725C0.800588 21.2414 2.04368 22.7919 3.56412 22.7454C3.70281 22.7411 3.84381 22.7236 3.98592 22.6916C4.09925 22.6661 4.21328 22.6313 4.32741 22.5868L15.0869 18.3857C15.4812 18.26 15.8491 18.0503 16.1569 17.7426C17.1548 16.7447 17.0773 15.241 16.6558 13.9766C16.5794 13.7474 16.4888 13.5152 16.3846 13.2815C16.8823 13.1652 17.4182 13.0999 17.9833 13.1094C18.5355 13.1186 18.9907 12.6785 18.9999 12.1263C19.0092 11.5741 18.569 11.1189 18.0168 11.1097C17.0502 11.0935 16.1509 11.2429 15.3415 11.4928C14.9627 10.9682 14.5247 10.4535 14.0355 9.96439C13.5801 9.50894 13.1024 9.09776 12.6153 8.73749C12.7169 8.47733 12.8092 8.2118 12.8911 7.9424C13.3895 6.3039 13.5313 4.43148 12.9487 2.6838ZM11.9142 13.5C12.3079 13.1063 12.8312 12.6925 13.4618 12.3218C13.2115 12.0049 12.9311 11.6883 12.6213 11.3786C12.3194 11.0767 12.011 10.8026 11.7021 10.5571C11.3384 11.1362 10.9313 11.6544 10.5 12.0857C10.1095 12.4763 9.47633 12.4763 9.0858 12.0857C8.69528 11.6952 8.69528 11.0621 9.08581 10.6715C9.40663 10.3507 9.72196 9.94994 10.0103 9.49049C9.79731 9.39101 9.59006 9.30789 9.39089 9.2415C8.35199 8.8952 7.84524 9.08362 7.67158 9.25728C7.60973 9.31913 7.55455 9.40511 7.51563 9.5337C7.40474 9.90006 7.44809 10.5616 7.84382 11.4616C8.22629 12.3314 8.88679 13.3009 9.7929 14.207C10.699 15.1131 11.6685 15.7736 12.5384 16.1561C13.3259 16.5024 13.9308 16.5788 14.3151 16.5183C14.37 16.5096 14.4204 16.4982 14.4662 16.4843C14.5948 16.4454 14.6808 16.3902 14.7426 16.3284C14.9163 16.1547 15.1047 15.6479 14.7584 14.609C14.695 14.4187 14.6163 14.221 14.5226 14.018C14.0264 14.3039 13.6212 14.6214 13.3285 14.9142C12.9379 15.3047 12.3048 15.3047 11.9142 14.9142C11.5237 14.5237 11.5237 13.8905 11.9142 13.5Z" fill="#1A1A1A"/>
<path d="M20.6162 8.13388C21.1043 8.62203 21.8958 8.62203 22.3839 8.13388C22.8721 7.64572 22.8721 6.85427 22.3839 6.36611C21.8958 5.87795 21.1043 5.87795 20.6162 6.36611C20.128 6.85427 20.128 7.64572 20.6162 8.13388Z" fill="#1A1A1A"/>
<path d="M19.2753 14.7998C20.2925 14.5159 20.5159 14.2925 20.7998 13.2753C20.8558 13.0747 21.1442 13.0747 21.2002 13.2753C21.4842 14.2925 21.7076 14.5159 22.7248 14.7998C22.9253 14.8558 22.9253 15.1442 22.7248 15.2002C21.7076 15.4842 21.4842 15.7075 21.2002 16.7247C21.1442 16.9253 20.8558 16.9253 20.7998 16.7247C20.5159 15.7075 20.2925 15.4842 19.2753 15.2002C19.0748 15.1442 19.0748 14.8558 19.2753 14.7998Z" fill="#1A1A1A"/>
<path d="M17.1339 9.13388C16.6458 9.62203 15.8543 9.62203 15.3662 9.13388C14.878 8.64572 14.878 7.85427 15.3662 7.36611C15.8543 6.87795 16.6458 6.87795 17.1339 7.36611C17.6221 7.85427 17.6221 8.64572 17.1339 9.13388Z" fill="#1A1A1A"/>
<path d="M8.63392 4.63388C8.14577 5.12203 7.35431 5.12203 6.86616 4.63388C6.378 4.14572 6.378 3.35427 6.86616 2.86611C7.35431 2.37795 8.14577 2.37795 8.63392 2.86611C9.12208 3.35427 9.12208 4.14572 8.63392 4.63388Z" fill="#1A1A1A"/>
</svg>
