<svg width="24" height="24" viewBox="0 0 24 24" fill="none" xmlns="http://www.w3.org/2000/svg">
<path fill-rule="evenodd" clip-rule="evenodd" d="M3.5 3C1.84315 3 0.5 4.34315 0.5 6V9.65663C0.5 10.2782 0.951376 10.6459 1.3204 10.7618C1.68325 10.8757 2.21679 10.8334 2.58027 10.3984C3.04044 9.84767 3.72916 9.5 4.5 9.5C5.88071 9.5 7 10.6193 7 12C7 13.3807 5.88071 14.5 4.5 14.5C3.72916 14.5 3.04044 14.1523 2.58027 13.6016C2.2168 13.1666 1.68325 13.1243 1.3204 13.2382C0.951377 13.3541 0.5 13.7218 0.5 14.3434V18C0.5 19.6569 1.84315 21 3.5 21H15.5C17.1569 21 18.5 19.6569 18.5 18V14.8727C19.0669 15.2681 19.7564 15.5 20.5 15.5C22.433 15.5 24 13.933 24 12C24 10.067 22.433 8.5 20.5 8.5C19.7564 8.5 19.0669 8.73191 18.5 9.12734V6C18.5 4.34315 17.1569 3 15.5 3H3.5Z" fill="#1A1A1A"/>
</svg>
