<svg width="24" height="24" viewBox="0 0 24 24" fill="none" xmlns="http://www.w3.org/2000/svg">
<path fill-rule="evenodd" clip-rule="evenodd" d="M0.5 6C0.5 4.34315 1.84315 3 3.5 3H15.5C17.1569 3 18.5 4.34315 18.5 6V8.29103C18.9633 8.10346 19.4697 8 20 8C22.2091 8 24 9.79086 24 12C24 14.2091 22.2091 16 20 16C19.4697 16 18.9633 15.8965 18.5 15.709V18C18.5 19.6569 17.1569 21 15.5 21H3.5C1.84315 21 0.5 19.6569 0.5 18V14.1554C0.5 13.5507 0.93031 13.1823 1.29345 13.0587C1.6499 12.9373 2.16567 12.9664 2.53832 13.3651C2.90464 13.7571 3.42318 14 4 14C5.10457 14 6 13.1046 6 12C6 10.8954 5.10457 10 4 10C3.42318 10 2.90464 10.2429 2.53832 10.6349C2.16567 11.0336 1.6499 11.0627 1.29345 10.9413C0.930309 10.8177 0.5 10.4493 0.5 9.84458V6ZM3.5 5C2.94772 5 2.5 5.44772 2.5 6V8.29103C2.96326 8.10346 3.46971 8 4 8C6.20914 8 8 9.79086 8 12C8 14.2091 6.20914 16 4 16C3.46971 16 2.96326 15.8965 2.5 15.709V18C2.5 18.5523 2.94772 19 3.5 19H15.5C16.0523 19 16.5 18.5523 16.5 18V14.1554C16.5 13.5507 16.9303 13.1823 17.2935 13.0587C17.6499 12.9373 18.1657 12.9664 18.5383 13.3651C18.9046 13.7571 19.4232 14 20 14C21.1046 14 22 13.1046 22 12C22 10.8954 21.1046 10 20 10C19.4232 10 18.9046 10.2429 18.5383 10.6349C18.1657 11.0336 17.6499 11.0627 17.2935 10.9413C16.9303 10.8177 16.5 10.4493 16.5 9.84458V6C16.5 5.44772 16.0523 5 15.5 5H3.5Z" fill="#1A1A1A"/>
</svg>
