<svg width="24" height="24" viewBox="0 0 24 24" fill="none" xmlns="http://www.w3.org/2000/svg">
<path fill-rule="evenodd" clip-rule="evenodd" d="M1.25 10.25C1.25 7.40848 3.43233 5 6.25 5C9.06767 5 11.25 7.40848 11.25 10.25C11.25 11.7096 11.114 13.1329 10.622 14.5215C9.85212 16.6943 8.13373 19.1288 4.47515 19.9743C3.93705 20.0987 3.40002 19.7633 3.27566 19.2252C3.1513 18.6871 3.4867 18.15 4.0248 18.0257C6.16293 17.5315 7.41477 16.3754 8.15937 15.106C7.57455 15.3594 6.93082 15.5 6.25 15.5C3.43233 15.5 1.25 13.0915 1.25 10.25Z" fill="#1A1A1A"/>
<path fill-rule="evenodd" clip-rule="evenodd" d="M12.75 10.25C12.75 7.40848 14.9323 5 17.75 5C20.5677 5 22.75 7.40848 22.75 10.25C22.75 11.7096 22.614 13.1329 22.122 14.5215C21.3521 16.6943 19.6337 19.1288 15.9752 19.9743C15.4371 20.0987 14.9 19.7633 14.7757 19.2252C14.6513 18.6871 14.9867 18.15 15.5248 18.0257C17.6629 17.5315 18.9148 16.3754 19.6594 15.106C19.0746 15.3594 18.4308 15.5 17.75 15.5C14.9323 15.5 12.75 13.0915 12.75 10.25Z" fill="#1A1A1A"/>
</svg>
