<svg width="24" height="24" viewBox="0 0 24 24" fill="none" xmlns="http://www.w3.org/2000/svg">
<path fill-rule="evenodd" clip-rule="evenodd" d="M12 23C18.0751 23 23 18.0751 23 12C23 5.92487 18.0751 1 12 1C5.92487 1 1 5.92487 1 12C1 18.0751 5.92487 23 12 23ZM14.2197 3.71967C14.5126 3.42678 14.9874 3.42678 15.2803 3.71967L18.2803 6.71967C18.5732 7.01256 18.5732 7.48744 18.2803 7.78033L15.2803 10.7803C14.9874 11.0732 14.5126 11.0732 14.2197 10.7803C13.9268 10.4874 13.9268 10.0126 14.2197 9.71967L15.9393 8H13.4305C13.0618 8 12.7118 8.16279 12.4743 8.44483L9.67303 11.7714C9.60506 11.8521 9.5329 11.9284 9.45701 12C9.5329 12.0716 9.60506 12.1479 9.67303 12.2286L12.4743 15.5552C12.7118 15.8372 13.0618 16 13.4305 16H15.9393L14.2197 14.2803C13.9268 13.9874 13.9268 13.5126 14.2197 13.2197C14.5126 12.9268 14.9874 12.9268 15.2803 13.2197L18.2803 16.2197C18.5732 16.5126 18.5732 16.9874 18.2803 17.2803L15.2803 20.2803C14.9874 20.5732 14.5126 20.5732 14.2197 20.2803C13.9268 19.9874 13.9268 19.5126 14.2197 19.2197L15.9393 17.5H13.4305C12.6193 17.5 11.8495 17.1419 11.327 16.5214L8.52567 13.1948C8.28816 12.9128 7.93825 12.75 7.56953 12.75H4.5C4.08579 12.75 3.75 12.4142 3.75 12C3.75 11.5858 4.08579 11.25 4.5 11.25H7.56953C7.93825 11.25 8.28816 11.0872 8.52567 10.8052L11.327 7.47863C11.8495 6.85814 12.6193 6.5 13.4305 6.5H15.9393L14.2197 4.78033C13.9268 4.48744 13.9268 4.01256 14.2197 3.71967Z" fill="#1A1A1A"/>
</svg>
