<svg width="24" height="24" viewBox="0 0 24 24" fill="none" xmlns="http://www.w3.org/2000/svg">
<path d="M18.207 1.79289C17.8165 1.40237 17.1834 1.40237 16.7928 1.79289C16.4023 2.18342 16.4023 2.81658 16.7928 3.20711L18.5858 5.00006H14.6729C13.6674 5.00006 12.6987 5.37879 11.9598 6.06083L7.18361 10.4696C6.81417 10.8106 6.32983 11 5.82706 11H2C1.44772 11 1 11.4477 1 12C1 12.5523 1.44772 13 2 13H5.82706C6.32983 13 6.81417 13.1894 7.18361 13.5304L11.9598 17.9392C12.6987 18.6212 13.6674 18.9999 14.6729 18.9999H18.5858L16.7928 20.7929C16.4023 21.1834 16.4023 21.8166 16.7928 22.2071C17.1834 22.5976 17.8165 22.5976 18.207 22.2071L21.7071 18.707C21.8946 18.5195 22 18.2652 22 17.9999C22 17.7347 21.8946 17.4804 21.7071 17.2928L18.207 13.7928C17.8165 13.4022 17.1834 13.4022 16.7928 13.7928C16.4023 14.1833 16.4023 14.8165 16.7928 15.207L18.5858 16.9999H14.6729C14.1702 16.9999 13.6858 16.8106 13.3164 16.4696L8.54016 12.0608C8.51792 12.0402 8.49546 12.02 8.47281 12C8.49546 11.98 8.51792 11.9598 8.54016 11.9392L13.3164 7.53045C13.6858 7.18943 14.1702 7.00006 14.6729 7.00006H18.5858L16.7928 8.79302C16.4023 9.18354 16.4023 9.8167 16.7928 10.2072C17.1834 10.5978 17.8165 10.5978 18.207 10.2072L21.7071 6.70717C21.8946 6.51963 22 6.26528 22 6.00006C22 5.73485 21.8946 5.48049 21.7071 5.29296L18.207 1.79289Z" fill="#1A1A1A"/>
</svg>
