<svg width="24" height="24" viewBox="0 0 24 24" fill="none" xmlns="http://www.w3.org/2000/svg">
<path fill-rule="evenodd" clip-rule="evenodd" d="M15.1237 4.45876L14.4836 2.53849C14.1773 1.61972 13.3175 1 12.349 1H11.6509C10.6825 1 9.82264 1.61972 9.51639 2.53849L8.87627 4.45883L7.06581 3.5536C6.19959 3.12049 5.1534 3.29026 4.46859 3.97507L3.97496 4.46871C3.29015 5.15352 3.12038 6.1997 3.55349 7.06593L4.45871 8.87637L2.53849 9.51645C1.61972 9.8227 1 10.6825 1 11.651V12.3491C1 13.3176 1.61972 14.1774 2.53849 14.4836L4.45872 15.1237L3.55351 16.9341C3.1204 17.8004 3.29017 18.8465 3.97498 19.5313L4.46861 20.025C5.15343 20.7098 6.19961 20.8796 7.06584 20.4465L8.87629 19.5412L9.51639 21.4615C9.82264 22.3803 10.6825 23 11.6509 23H12.349C13.3175 23 14.1773 22.3803 14.4836 21.4615L15.1236 19.5413L16.9341 20.4465C17.8003 20.8796 18.8465 20.7099 19.5313 20.025L20.025 19.5314C20.7098 18.8466 20.8795 17.8004 20.4464 16.9342L19.5412 15.1237L21.4615 14.4836C22.3803 14.1774 23 13.3176 23 12.3491V11.651C23 10.6825 22.3803 9.8227 21.4615 9.51645L19.5412 8.87634L20.4464 7.06587C20.8795 6.19964 20.7098 5.15346 20.025 4.46865L19.5313 3.97501C18.8465 3.2902 17.8003 3.12043 16.9341 3.55354L15.1237 4.45876ZM12 15.25C13.7949 15.25 15.25 13.7949 15.25 12C15.25 10.2051 13.7949 8.75 12 8.75C10.205 8.75 8.74997 10.2051 8.74997 12C8.74997 13.7949 10.205 15.25 12 15.25Z" fill="#1A1A1A"/>
</svg>
