<svg width="24" height="24" viewBox="0 0 24 24" fill="none" xmlns="http://www.w3.org/2000/svg">
<path d="M11.6514 1.06237C11.9135 0.96489 12.2072 0.981276 12.459 1.1112L20.209 5.1112C20.5413 5.28282 20.7499 5.62587 20.75 5.99987V14.4999C20.75 15.8177 20.1177 17.0321 19.3291 18.0497C18.5308 19.0797 17.4905 20.0142 16.4873 20.7909C15.4787 21.5718 14.4748 22.2183 13.7266 22.6688C13.3517 22.8945 13.0385 23.0729 12.8174 23.1952C12.7068 23.2564 12.6186 23.3043 12.5576 23.3368C12.5273 23.353 12.5029 23.3652 12.4863 23.3739C12.4782 23.3782 12.4714 23.3813 12.4668 23.3837C12.4648 23.3847 12.4619 23.3866 12.4619 23.3866L12.46 23.3876L12.459 23.3885C12.2072 23.5185 11.9135 23.5349 11.6514 23.4374L11.541 23.3885L11.5381 23.3866C11.5381 23.3866 11.5352 23.3847 11.5332 23.3837C11.5286 23.3813 11.5218 23.3782 11.5137 23.3739C11.4971 23.3652 11.4727 23.353 11.4424 23.3368C11.3814 23.3043 11.2932 23.2564 11.1826 23.1952C10.9615 23.0729 10.6483 22.8945 10.2734 22.6688C9.52519 22.2183 8.52134 21.5718 7.5127 20.7909C6.5095 20.0142 5.4692 19.0797 4.6709 18.0497C3.8823 17.0321 3.25 15.8177 3.25 14.4999V5.99987C3.25006 5.62587 3.45872 5.28282 3.79102 5.1112L11.541 1.1112L11.6514 1.06237Z" fill="#1A1A1A"/>
</svg>
