<svg width="24" height="24" viewBox="0 0 24 24" fill="none" xmlns="http://www.w3.org/2000/svg">
<path d="M19 6.61817L12 3.11817L5 6.61817V14.5C5 15.172 5.34359 15.9529 6.03125 16.8125C6.70775 17.6581 7.6339 18.4759 8.59961 19.2002C9.5595 19.9201 10.5254 20.5233 11.2539 20.9482C11.5482 21.1199 11.8027 21.2609 12 21.3682C12.1973 21.2609 12.4518 21.1199 12.7461 20.9482C13.4746 20.5233 14.4405 19.9201 15.4004 19.2002C16.3661 18.4759 17.2922 17.6581 17.9688 16.8125C18.6564 15.9529 19 15.172 19 14.5V6.61817ZM21 14.5C21 15.828 20.3436 17.0471 19.5312 18.0625C18.7078 19.0918 17.6338 20.0241 16.5996 20.7998C15.5596 21.5798 14.5254 22.2267 13.7539 22.6768C13.3673 22.9023 13.0443 23.0801 12.8164 23.2022C12.7024 23.2632 12.6116 23.3104 12.5488 23.3428C12.5175 23.359 12.4927 23.3712 12.4756 23.3799L12.4482 23.3936L12.4473 23.3945C12.2008 23.5178 11.9161 23.533 11.6602 23.4404L11.5527 23.3945L11.5518 23.3936L11.5244 23.3799C11.5073 23.3712 11.4825 23.359 11.4512 23.3428C11.3884 23.3104 11.2976 23.2632 11.1836 23.2022C10.9557 23.0801 10.6327 22.9023 10.2461 22.6768C9.47463 22.2267 8.44036 21.5798 7.40039 20.7998C6.36615 20.0241 5.29221 19.0918 4.46875 18.0625C3.65641 17.0471 3 15.828 3 14.5V6.00001C3 5.62124 3.21395 5.27487 3.55273 5.10548L11.5527 1.10548L11.6602 1.05958C11.9161 0.967056 12.2008 0.98225 12.4473 1.10548L20.4473 5.10548C20.786 5.27487 21 5.62124 21 6.00001V14.5Z" fill="#1A1A1A"/>
</svg>
