<svg width="24" height="24" viewBox="0 0 24 24" fill="none" xmlns="http://www.w3.org/2000/svg">
<path d="M19.207 2.29289C18.8165 1.90237 18.1834 1.90237 17.7928 2.29289C17.4023 2.68342 17.4023 3.31658 17.7928 3.70711L19.5858 5.50006H16.5855C15.2628 5.50006 14.0257 6.15389 13.2806 7.24671L11.25 10.2249L9.2194 7.24664C8.4743 6.15383 7.23715 5.5 5.9145 5.5H2C1.44772 5.5 1 5.94771 1 6.5C1 7.05229 1.44772 7.5 2 7.5H5.9145C6.57583 7.5 7.1944 7.82692 7.56695 8.37332L10.0397 12L7.56695 15.6267C7.1944 16.1731 6.57583 16.5 5.9145 16.5H2C1.44772 16.5 1 16.9477 1 17.5C1 18.0523 1.44772 18.5 2 18.5H5.9145C7.23715 18.5 8.4743 17.8462 9.2194 16.7534L11.25 13.7751L13.2806 16.7533C14.0257 17.8461 15.2628 18.4999 16.5855 18.4999H19.5858L17.7928 20.2929C17.4023 20.6834 17.4023 21.3166 17.7928 21.7071C18.1834 22.0976 18.8165 22.0976 19.207 21.7071L22.7071 18.207C22.8946 18.0195 23 17.7652 23 17.4999C23 17.2347 22.8946 16.9804 22.7071 16.7928L19.207 13.2928C18.8165 12.9022 18.1834 12.9022 17.7928 13.2928C17.4023 13.6833 17.4023 14.3165 17.7928 14.707L19.5858 16.4999H16.5855C15.9242 16.4999 15.3056 16.173 14.9331 15.6266L12.4603 12L14.9331 8.37338C15.3056 7.82698 15.9242 7.50006 16.5855 7.50006H19.5858L17.7928 9.29302C17.4023 9.68354 17.4023 10.3167 17.7928 10.7072C18.1834 11.0978 18.8165 11.0978 19.207 10.7072L22.7071 7.20717C22.8946 7.01963 23 6.76528 23 6.50006C23 6.23485 22.8946 5.98049 22.7071 5.79296L19.207 2.29289Z" fill="#1A1A1A"/>
</svg>
