<svg width="24" height="24" viewBox="0 0 24 24" fill="none" xmlns="http://www.w3.org/2000/svg">
<path fill-rule="evenodd" clip-rule="evenodd" d="M12 23C18.0751 23 23 18.0751 23 12C23 5.92487 18.0751 1 12 1C5.92487 1 1 5.92487 1 12C1 18.0751 5.92487 23 12 23ZM15.4697 4.46967C15.7626 4.17678 16.2374 4.17678 16.5303 4.46967L19.0303 6.96967C19.3232 7.26256 19.3232 7.73744 19.0303 8.03033L16.5303 10.5303C16.2374 10.8232 15.7626 10.8232 15.4697 10.5303C15.1768 10.2374 15.1768 9.76256 15.4697 9.46967L16.6893 8.25H14.8987C14.4542 8.25 14.043 8.48614 13.819 8.87016L11.9933 12L13.819 15.1298C14.043 15.5139 14.4542 15.75 14.8987 15.75H16.6893L15.4697 14.5303C15.1768 14.2374 15.1768 13.7626 15.4697 13.4697C15.7626 13.1768 16.2374 13.1768 16.5303 13.4697L19.0303 15.9697C19.3232 16.2626 19.3232 16.7374 19.0303 17.0303L16.5303 19.5303C16.2374 19.8232 15.7626 19.8232 15.4697 19.5303C15.1768 19.2374 15.1768 18.7626 15.4697 18.4697L16.6893 17.25H14.8987C13.9207 17.25 13.0162 16.7305 12.5233 15.8856L11.125 13.4885L9.72665 15.8856C9.23382 16.7305 8.32934 17.25 7.35126 17.25H5.25C4.83579 17.25 4.5 16.9142 4.5 16.5C4.5 16.0858 4.83579 15.75 5.25 15.75H7.35126C7.79584 15.75 8.20697 15.5139 8.43098 15.1298L10.2567 12L8.43098 8.87016C8.20697 8.48614 7.79584 8.25 7.35126 8.25H5.25C4.83579 8.25 4.5 7.91421 4.5 7.5C4.5 7.08579 4.83579 6.75 5.25 6.75H7.35126C8.32934 6.75 9.23382 7.2695 9.72665 8.11435L11.125 10.5115L12.5233 8.11436C13.0162 7.26951 13.9207 6.75 14.8987 6.75H16.6893L15.4697 5.53033C15.1768 5.23744 15.1768 4.76256 15.4697 4.46967Z" fill="#1A1A1A"/>
</svg>
