<svg width="24" height="24" viewBox="0 0 24 24" fill="none" xmlns="http://www.w3.org/2000/svg">
<path fill-rule="evenodd" clip-rule="evenodd" d="M9 16C10.0249 16 10.9041 16.6174 11.29 17.5H20.5C21.0523 17.5 21.5 17.9477 21.5 18.5C21.5 19.0523 21.0523 19.5 20.5 19.5H11.29C10.9041 20.3826 10.0249 21 9 21C7.97512 21 7.0959 20.3826 6.70996 19.5H3.5C2.94772 19.5 2.5 19.0523 2.5 18.5C2.5 17.9477 2.94772 17.5 3.5 17.5H6.70996C7.0959 16.6174 7.97512 16 9 16ZM9 17.5C8.44772 17.5 8 17.9477 8 18.5C8 19.0523 8.44772 19.5 9 19.5C9.55228 19.5 10 19.0523 10 18.5C10 17.9477 9.55228 17.5 9 17.5Z" fill="#1A1A1A"/>
<path fill-rule="evenodd" clip-rule="evenodd" d="M16 9.5C17.0249 9.5 17.9041 10.1174 18.29 11H20.5C21.0523 11 21.5 11.4477 21.5 12C21.5 12.5523 21.0523 13 20.5 13H18.29C17.9041 13.8826 17.0249 14.5 16 14.5C14.9751 14.5 14.0959 13.8826 13.71 13H3.5C2.94772 13 2.5 12.5523 2.5 12C2.5 11.4477 2.94772 11 3.5 11H13.71C14.0959 10.1174 14.9751 9.5 16 9.5ZM16 11C15.4477 11 15 11.4477 15 12C15 12.5523 15.4477 13 16 13C16.5523 13 17 12.5523 17 12C17 11.4477 16.5523 11 16 11Z" fill="#1A1A1A"/>
<path fill-rule="evenodd" clip-rule="evenodd" d="M9 3C10.0249 3 10.9041 3.61743 11.29 4.5H20.5C21.0523 4.50003 21.5 4.94774 21.5 5.5C21.5 6.05226 21.0523 6.49997 20.5 6.5H11.29C10.9041 7.38257 10.0249 8 9 8C7.97512 8 7.0959 7.38257 6.70996 6.5H3.5C2.94772 6.5 2.5 6.05228 2.5 5.5C2.5 4.94772 2.94772 4.5 3.5 4.5H6.70996C7.0959 3.61743 7.97512 3 9 3ZM9 4.5C8.44772 4.5 8 4.94772 8 5.5C8 6.05228 8.44772 6.5 9 6.5C9.55228 6.5 10 6.05228 10 5.5C10 4.94772 9.55228 4.5 9 4.5Z" fill="#1A1A1A"/>
</svg>
