<svg width="24" height="24" viewBox="0 0 24 24" fill="none" xmlns="http://www.w3.org/2000/svg">
<path d="M9.49099 4.02036C10.4546 3.1444 12 3.82806 12 5.13027V18.8697C12 20.1719 10.4546 20.8556 9.49099 19.9796L5.11339 16H2.5C1.67157 16 1 15.3284 1 14.5V9.5C1 8.67157 1.67157 8 2.5 8H5.11339L9.49099 4.02036Z" fill="#1A1A1A"/>
<path d="M21.0054 3.91947C20.7337 3.60683 20.26 3.57365 19.9474 3.84536C19.6347 4.11707 19.6016 4.59079 19.8733 4.90343C21.1078 6.32389 22 8.92784 22 12C22 15.0722 21.1078 17.6762 19.8733 19.0966C19.6016 19.4092 19.6347 19.883 19.9474 20.1547C20.26 20.4264 20.7337 20.3932 21.0054 20.0806C22.5499 18.3035 23.5 15.3049 23.5 12C23.5 8.69511 22.5499 5.69653 21.0054 3.91947Z" fill="#1A1A1A"/>
<path d="M17.3037 5.6005C17.6508 5.37455 18.1154 5.47282 18.3414 5.81998C19.3806 7.41673 20 9.61177 20 12C20 14.3883 19.3806 16.5833 18.3414 18.18C18.1154 18.5272 17.6508 18.6255 17.3037 18.3995C16.9565 18.1736 16.8582 17.709 17.0842 17.3618C17.9399 16.047 18.5 14.1473 18.5 12C18.5 9.85274 17.9399 7.95304 17.0842 6.6382C16.8582 6.29104 16.9565 5.82644 17.3037 5.6005Z" fill="#1A1A1A"/>
<path d="M15.2865 7.84769C15.0573 7.50268 14.5918 7.4088 14.2468 7.63801C13.9018 7.86722 13.8079 8.33272 14.0371 8.67774C14.6339 9.57603 15 10.7298 15 12C15 13.2703 14.6339 14.4241 14.0371 15.3224C13.8079 15.6674 13.9018 16.1329 14.2468 16.3621C14.5918 16.5913 15.0573 16.4974 15.2865 16.1524C16.052 15.0002 16.5 13.556 16.5 12C16.5 10.4441 16.052 8.99989 15.2865 7.84769Z" fill="#1A1A1A"/>
</svg>
