<svg width="24" height="24" viewBox="0 0 24 24" fill="none" xmlns="http://www.w3.org/2000/svg">
<path fill-rule="evenodd" clip-rule="evenodd" d="M15 6C15.2315 6 15.4564 6.02848 15.6729 6.07812C15.7179 6.08846 15.7624 6.09997 15.8066 6.1123C15.8559 6.12605 15.9049 6.14009 15.9531 6.15625C15.9953 6.17039 16.0368 6.1862 16.0781 6.20215C16.1265 6.2208 16.1746 6.23969 16.2217 6.26074C16.2658 6.28045 16.3086 6.30248 16.3516 6.32422C16.3908 6.34406 16.4296 6.36426 16.4678 6.38574C16.5142 6.41186 16.5596 6.43929 16.6045 6.46777C16.6401 6.49036 16.6754 6.51308 16.71 6.53711C16.7505 6.56533 16.79 6.59486 16.8291 6.625C16.8667 6.65403 16.9042 6.68311 16.9404 6.71387C16.9807 6.74807 17.0192 6.78406 17.0576 6.82031C17.0846 6.84578 17.1117 6.87102 17.1377 6.89746C17.1776 6.93806 17.2153 6.98063 17.2529 7.02344C17.2805 7.05484 17.3087 7.08562 17.335 7.11816C17.3645 7.15475 17.3911 7.19347 17.4189 7.23145C17.4467 7.26928 17.475 7.30655 17.501 7.3457C17.53 7.38953 17.5562 7.43507 17.583 7.48047C17.6043 7.51653 17.6267 7.55186 17.6465 7.58887C17.6686 7.63031 17.6878 7.67324 17.708 7.71582C17.7297 7.76153 17.753 7.80656 17.7725 7.85352C17.787 7.88867 17.7983 7.92512 17.8115 7.96094C17.8317 8.01556 17.8531 8.06991 17.8701 8.12598C17.8791 8.15546 17.8845 8.18596 17.8926 8.21582C17.9603 8.46608 18 8.72833 18 9V20C18 21.6569 16.6569 23 15 23H4C2.39489 23 1.08421 21.7394 1.00391 20.1543L1 20V9C1 7.34315 2.34315 6 4 6H15ZM9.5 10C8.94772 10 8.5 10.4477 8.5 11V13.5H6C5.44772 13.5 5 13.9477 5 14.5C5 15.0523 5.44772 15.5 6 15.5H8.5V18C8.5 18.5523 8.94772 19 9.5 19C10.0523 19 10.5 18.5523 10.5 18V15.5H13C13.5523 15.5 14 15.0523 14 14.5C14 13.9477 13.5523 13.5 13 13.5H10.5V11C10.5 10.4477 10.0523 10 9.5 10Z" fill="#1A1A1A"/>
<path d="M20.1543 1.00391C21.7394 1.08421 23 2.39489 23 4V15C23 16.6569 21.6569 18 20 18V9C20 6.23858 17.7614 4 15 4H6C6 2.34315 7.34315 1 9 1H20L20.1543 1.00391Z" fill="#1A1A1A"/>
</svg>
