<svg width="24" height="24" viewBox="0 0 24 24" fill="none" xmlns="http://www.w3.org/2000/svg">
<path d="M16.182 8C16.7343 8 17.182 8.44772 17.182 9C17.182 9.55229 16.7343 10 16.182 10H11.4142L18.7071 17.2929C19.0976 17.6834 19.0976 18.3166 18.7071 18.7071C18.3166 19.0976 17.6834 19.0976 17.2929 18.7071L10 11.4142V16.182C10 16.7343 9.55229 17.182 9 17.182C8.44771 17.182 8 16.7343 8 16.182V9C8 8.44772 8.44771 8 9 8H16.182Z" fill="#1A1A1A"/>
<path fill-rule="evenodd" clip-rule="evenodd" d="M4 1C2.34315 1 1 2.34315 1 4V20C1 21.6569 2.34315 23 4 23H20C21.6569 23 23 21.6569 23 20V4C23 2.34315 21.6569 1 20 1H4ZM3 4C3 3.44772 3.44772 3 4 3H20C20.5523 3 21 3.44772 21 4V20C21 20.5523 20.5523 21 20 21H4C3.44772 21 3 20.5523 3 20V4Z" fill="#1A1A1A"/>
</svg>
