<svg width="24" height="24" viewBox="0 0 24 24" fill="none" xmlns="http://www.w3.org/2000/svg">
<path d="M7.81796 8C7.26568 8 6.81796 8.44772 6.81796 9C6.81796 9.55229 7.26568 10 7.81796 10H12.5858L5.29289 17.2929C4.90237 17.6834 4.90237 18.3166 5.29289 18.7071C5.68342 19.0976 6.31658 19.0976 6.70711 18.7071L14 11.4142V16.182C14 16.7343 14.4477 17.182 15 17.182C15.5523 17.182 16 16.7343 16 16.182V9C16 8.44772 15.5523 8 15 8H7.81796Z" fill="#1A1A1A"/>
<path fill-rule="evenodd" clip-rule="evenodd" d="M4 1C2.34315 1 1 2.34315 1 4V20C1 21.6569 2.34315 23 4 23H20C21.6569 23 23 21.6569 23 20V4C23 2.34315 21.6569 1 20 1H4ZM3 4C3 3.44772 3.44772 3 4 3H20C20.5523 3 21 3.44772 21 4V20C21 20.5523 20.5523 21 20 21H4C3.44772 21 3 20.5523 3 20V4Z" fill="#1A1A1A"/>
</svg>
