<svg width="24" height="24" viewBox="0 0 24 24" fill="none" xmlns="http://www.w3.org/2000/svg">
<path d="M18.5 2H8C6.34315 2 5 3.34315 5 5V9.00006L7.54167 9.00006C7.38619 8.07551 7.66517 7.09212 8.37862 6.37868C9.55019 5.20711 11.4497 5.20711 12.6213 6.37868L16.1213 9.87874C16.6839 10.4413 17 11.2044 17 12.0001C17 12.7957 16.6839 13.5588 16.1213 14.1214L12.6213 17.6214C11.4497 18.793 9.55019 18.793 8.37862 17.6214C7.66518 16.908 7.38619 15.9246 7.54167 15.0001H5V19C5 20.6569 6.34315 22 8 22H18.5C20.1569 22 21.5 20.6569 21.5 19L21.5 5C21.5 3.34314 20.1569 2 18.5 2Z" fill="#1A1A1A"/>
<path d="M11.207 7.79289C10.8165 7.40237 10.1834 7.40237 9.79283 7.79289C9.40231 8.18342 9.40231 8.81658 9.79283 9.20711L11.5858 11.0001L1 11.0001C0.447715 11.0001 0 11.4478 0 12.0001C0 12.5523 0.447715 13.0001 1 13.0001L11.5858 13.0001L9.79283 14.793C9.40231 15.1835 9.40231 15.8167 9.79283 16.2072C10.1834 16.5978 10.8165 16.5978 11.207 16.2072L14.7071 12.7072C14.8946 12.5196 15 12.2653 15 12.0001C15 11.7348 14.8946 11.4805 14.7071 11.293L11.207 7.79289Z" fill="#1A1A1A"/>
</svg>
