<svg width="24" height="24" viewBox="0 0 24 24" fill="none" xmlns="http://www.w3.org/2000/svg">
<path fill-rule="evenodd" clip-rule="evenodd" d="M10.8112 2.42269C11.1854 1.27105 12.8146 1.27105 13.1888 2.42269L15.0839 8.25526H21.2292C22.4408 8.25526 22.9438 9.80622 21.9628 10.5173L16.99 14.1221L18.8851 19.9589C19.2591 21.1108 17.9403 22.0682 16.9609 21.3558L12 17.7472L7.03909 21.3558C6.05967 22.0682 4.74087 21.1108 5.11488 19.9589L7.00997 14.1221L2.03718 10.5173C1.05622 9.80622 1.55924 8.25526 2.77083 8.25526H8.91606L10.8112 2.42269ZM12 5.23601L10.762 9.04604C10.5278 9.76708 9.85585 10.2553 9.0977 10.2553H5.0833L8.331 12.6095C8.94527 13.0548 9.20265 13.8452 8.96835 14.5668L7.73037 18.3798L10.9706 16.0228C11.5843 15.5764 12.4157 15.5764 13.0294 16.0228L16.2696 18.3798L15.0317 14.5668C14.7974 13.8452 15.0547 13.0548 15.669 12.6095L18.9167 10.2553H14.9023C14.1442 10.2553 13.4722 9.76708 13.238 9.04604L12 5.23601Z" fill="#1A1A1A"/>
</svg>
