<svg width="24" height="24" viewBox="0 0 24 24" fill="none" xmlns="http://www.w3.org/2000/svg">
<g clip-path="url(#clip0_1092_1093)">
<path fill-rule="evenodd" clip-rule="evenodd" d="M9.5 0.5C13.286 0.5 16.5232 2.83874 17.8525 6.14941C21.1622 7.47888 23.5 10.7148 23.5 14.5C23.5 19.4706 19.4706 23.5 14.5 23.5C10.7148 23.5 7.47888 21.1622 6.14941 17.8525C2.83874 16.5232 0.5 13.286 0.5 9.5C0.5 4.52944 4.52944 0.5 9.5 0.5ZM10.9648 18.3789C10.488 18.457 9.99894 18.5 9.5 18.5C9.24137 18.5 8.98552 18.4862 8.73242 18.4648C9.91852 20.1871 11.8554 21.3514 14.0713 21.4854L10.9648 18.3789ZM15.1162 16.5303C14.5163 17.0101 13.8537 17.4133 13.1426 17.7285L16.5947 21.1807C17.3584 20.9415 18.0652 20.5745 18.6914 20.1055L15.1162 16.5303ZM17.7285 13.1426C17.4133 13.8537 17.0101 14.5163 16.5303 15.1162L20.1055 18.6914C20.5745 18.0652 20.9415 17.3584 21.1807 16.5947L17.7285 13.1426ZM9.5 2.5C5.63401 2.5 2.5 5.63401 2.5 9.5C2.5 13.366 5.63401 16.5 9.5 16.5C13.366 16.5 16.5 13.366 16.5 9.5C16.5 5.63401 13.366 2.5 9.5 2.5ZM18.4648 8.73242C18.4862 8.98552 18.5 9.24137 18.5 9.5C18.5 9.99894 18.457 10.488 18.3789 10.9648L21.4854 14.0713C21.3514 11.8554 20.1871 9.91852 18.4648 8.73242Z" fill="#1A1A1A"/>
</g>
<defs>
<clipPath id="clip0_1092_1093">
<rect width="24" height="24" fill="white"/>
</clipPath>
</defs>
</svg>
