<svg width="24" height="24" viewBox="0 0 24 24" fill="none" xmlns="http://www.w3.org/2000/svg">
<path d="M12 19.5C12.6904 19.5 13.25 20.0596 13.25 20.75C13.2499 21.4403 12.6903 22 12 22C11.3097 22 10.7501 21.4403 10.75 20.75C10.75 20.0596 11.3096 19.5 12 19.5Z" fill="#1A1A1A"/>
<path d="M4.92871 17.3027C5.41673 16.8148 6.20814 16.815 6.69629 17.3027C7.18444 17.7909 7.18444 18.5831 6.69629 19.0713C6.20812 19.559 5.41675 19.5593 4.92871 19.0713C4.44056 18.5831 4.44056 17.7909 4.92871 17.3027Z" fill="#1A1A1A"/>
<path d="M17.3037 17.3027C17.7919 16.815 18.5833 16.8148 19.0713 17.3027C19.5594 17.7909 19.5594 18.5831 19.0713 19.0713C18.5833 19.5593 17.7919 19.559 17.3037 19.0713C16.8156 18.5831 16.8156 17.7909 17.3037 17.3027Z" fill="#1A1A1A"/>
<path d="M12 7C14.7614 7 17 9.23858 17 12C17 14.7614 14.7614 17 12 17C9.23858 17 7 14.7614 7 12C7 9.23858 9.23858 7 12 7Z" fill="#1A1A1A"/>
<path d="M3.25 10.75C3.94036 10.75 4.5 11.3096 4.5 12C4.49993 12.6903 3.94032 13.25 3.25 13.25C2.55968 13.25 2.00007 12.6903 2 12C2 11.3096 2.55964 10.75 3.25 10.75Z" fill="#1A1A1A"/>
<path d="M20.75 10.75C21.4404 10.75 22 11.3096 22 12C21.9999 12.6903 21.4403 13.25 20.75 13.25C20.0597 13.25 19.5001 12.6903 19.5 12C19.5 11.3096 20.0596 10.75 20.75 10.75Z" fill="#1A1A1A"/>
<path d="M4.92871 4.92871C5.41678 4.44064 6.20811 4.44081 6.69629 4.92871C7.18444 5.41687 7.18444 6.20813 6.69629 6.69629C6.20813 7.18438 5.41685 7.18442 4.92871 6.69629C4.44083 6.20813 4.4407 5.41679 4.92871 4.92871Z" fill="#1A1A1A"/>
<path d="M17.3037 4.92871C17.7919 4.44081 18.5832 4.44064 19.0713 4.92871C19.5593 5.41679 19.5592 6.20813 19.0713 6.69629C18.5832 7.18442 17.7919 7.18438 17.3037 6.69629C16.8156 6.20813 16.8156 5.41687 17.3037 4.92871Z" fill="#1A1A1A"/>
<path d="M12 2C12.6904 2 13.25 2.55964 13.25 3.25C13.2499 3.9403 12.6903 4.5 12 4.5C11.3097 4.5 10.7501 3.9403 10.75 3.25C10.75 2.55964 11.3096 2 12 2Z" fill="#1A1A1A"/>
</svg>
