<svg width="24" height="24" viewBox="0 0 24 24" fill="none" xmlns="http://www.w3.org/2000/svg">
<path d="M15 12C15 10.3432 13.6569 9.00003 12 9.00003C10.3431 9.00003 9 10.3432 9 12C9 13.6569 10.3431 15 12 15C13.6569 15 15 13.6569 15 12ZM17 12C17 14.7615 14.7614 17 12 17C9.23857 17 7 14.7615 7 12C7 9.23861 9.23857 7.00003 12 7.00003C14.7614 7.00003 17 9.23861 17 12Z" fill="#1A1A1A"/>
<path d="M13.25 3.24988C13.25 3.94023 12.6904 4.49988 12 4.49988C11.3096 4.49988 10.75 3.94023 10.75 3.24988C10.75 2.55952 11.3096 1.99988 12 1.99988C12.6904 1.99988 13.25 2.55952 13.25 3.24988Z" fill="#1A1A1A"/>
<path d="M19.0711 6.69658C18.5829 7.18473 17.7915 7.18473 17.3033 6.69658C16.8151 6.20842 16.8151 5.41697 17.3033 4.92881C17.7915 4.44065 18.5829 4.44065 19.0711 4.92881C19.5592 5.41697 19.5592 6.20842 19.0711 6.69658Z" fill="#1A1A1A"/>
<path d="M20.75 13.2499C20.0596 13.2499 19.5 12.6902 19.5 11.9999C19.5 11.3095 20.0596 10.7499 20.75 10.7499C21.4404 10.7499 22 11.3095 22 11.9999C22 12.6902 21.4404 13.2499 20.75 13.2499Z" fill="#1A1A1A"/>
<path d="M17.3033 19.0709C16.8151 18.5828 16.8151 17.7913 17.3033 17.3032C17.7915 16.815 18.5829 16.815 19.0711 17.3032C19.5592 17.7913 19.5592 18.5828 19.0711 19.0709C18.5829 19.5591 17.7915 19.5591 17.3033 19.0709Z" fill="#1A1A1A"/>
<path d="M10.75 20.7499C10.75 20.0595 11.3096 19.4999 12 19.4999C12.6904 19.4999 13.25 20.0595 13.25 20.7499C13.25 21.4402 12.6904 21.9999 12 21.9999C11.3096 21.9999 10.75 21.4402 10.75 20.7499Z" fill="#1A1A1A"/>
<path d="M4.92893 17.3032C5.41709 16.815 6.20854 16.815 6.6967 17.3032C7.18485 17.7913 7.18485 18.5828 6.6967 19.0709C6.20854 19.5591 5.41709 19.5591 4.92893 19.0709C4.44078 18.5828 4.44078 17.7913 4.92893 17.3032Z" fill="#1A1A1A"/>
<path d="M3.25 10.7499C3.94036 10.7499 4.5 11.3095 4.5 11.9999C4.5 12.6902 3.94036 13.2499 3.25 13.2499C2.55964 13.2499 2 12.6902 2 11.9999C2 11.3095 2.55964 10.7499 3.25 10.7499Z" fill="#1A1A1A"/>
<path d="M6.6967 4.92881C7.18486 5.41696 7.18486 6.20842 6.6967 6.69658C6.20855 7.18473 5.41709 7.18473 4.92893 6.69657C4.44078 6.20842 4.44078 5.41696 4.92893 4.92881C5.41709 4.44065 6.20855 4.44065 6.6967 4.92881Z" fill="#1A1A1A"/>
</svg>
