<svg width="24" height="24" viewBox="0 0 24 24" fill="none" xmlns="http://www.w3.org/2000/svg">
<g clip-path="url(#clip0_1092_1275)">
<path d="M12 19C12.5523 19 13 19.4477 13 20V22.5C13 23.0523 12.5523 23.5 12 23.5C11.4477 23.5 11 23.0523 11 22.5V20C11 19.4477 11.4477 19 12 19Z" fill="#1A1A1A"/>
<path d="M5.63574 16.9502C6.02627 16.5597 6.65928 16.5597 7.0498 16.9502C7.44033 17.3407 7.44033 17.9737 7.0498 18.3643L5.28223 20.1318C4.89169 20.5222 4.25863 20.5223 3.86816 20.1318C3.4777 19.7414 3.47782 19.1083 3.86816 18.7178L5.63574 16.9502Z" fill="#1A1A1A"/>
<path d="M16.9502 16.9502C17.3407 16.5597 17.9737 16.5597 18.3643 16.9502L20.1318 18.7178C20.5222 19.1083 20.5223 19.7414 20.1318 20.1318C19.7414 20.5223 19.1083 20.5222 18.7178 20.1318L16.9502 18.3643C16.5597 17.9737 16.5597 17.3407 16.9502 16.9502Z" fill="#1A1A1A"/>
<path fill-rule="evenodd" clip-rule="evenodd" d="M12 7C14.7614 7 17 9.23858 17 12C17 14.7614 14.7614 17 12 17C9.23858 17 7 14.7614 7 12C7 9.23858 9.23858 7 12 7ZM12 9C10.3431 9 9 10.3431 9 12C9 13.6569 10.3431 15 12 15C13.6569 15 15 13.6569 15 12C15 10.3431 13.6569 9 12 9Z" fill="#1A1A1A"/>
<path d="M4 11C4.55228 11 5 11.4477 5 12C5 12.5523 4.55228 13 4 13H1.5C0.947715 13 0.5 12.5523 0.5 12C0.5 11.4477 0.947715 11 1.5 11H4Z" fill="#1A1A1A"/>
<path d="M22.5 11C23.0523 11 23.5 11.4477 23.5 12C23.5 12.5523 23.0523 13 22.5 13H20C19.4477 13 19 12.5523 19 12C19 11.4477 19.4477 11 20 11H22.5Z" fill="#1A1A1A"/>
<path d="M3.86816 3.86816C4.25863 3.4777 4.89169 3.47782 5.28223 3.86816L7.0498 5.63574C7.44033 6.02627 7.44033 6.65928 7.0498 7.0498C6.65928 7.44033 6.02627 7.44033 5.63574 7.0498L3.86816 5.28223C3.47782 4.89169 3.4777 4.25863 3.86816 3.86816Z" fill="#1A1A1A"/>
<path d="M18.7178 3.86816C19.1083 3.47782 19.7414 3.4777 20.1318 3.86816C20.5223 4.25863 20.5222 4.89169 20.1318 5.28223L18.3643 7.0498C17.9737 7.44033 17.3407 7.44033 16.9502 7.0498C16.5597 6.65928 16.5597 6.02627 16.9502 5.63574L18.7178 3.86816Z" fill="#1A1A1A"/>
<path d="M12 0.5C12.5523 0.5 13 0.947715 13 1.5V4C13 4.55228 12.5523 5 12 5C11.4477 5 11 4.55228 11 4V1.5C11 0.947715 11.4477 0.5 12 0.5Z" fill="#1A1A1A"/>
</g>
<defs>
<clipPath id="clip0_1092_1275">
<rect width="24" height="24" fill="white"/>
</clipPath>
</defs>
</svg>
