<svg width="24" height="24" viewBox="0 0 24 24" fill="none" xmlns="http://www.w3.org/2000/svg">
<path fill-rule="evenodd" clip-rule="evenodd" d="M12 1C18.0751 1 23 5.92487 23 12C23 18.0751 18.0751 23 12 23C5.92487 23 1 18.0751 1 12C1 5.92487 5.92487 1 12 1ZM16.9492 7.0498C16.5587 6.65983 15.9255 6.65953 15.5352 7.0498L11.999 10.585L8.46484 7.0498C8.07432 6.65939 7.4403 6.65935 7.0498 7.0498C6.65932 7.4403 6.65938 8.07431 7.0498 8.46484L10.585 12L7.0498 15.5352C6.65932 15.9256 6.65938 16.5597 7.0498 16.9502C7.44033 17.3407 8.07434 17.3407 8.46484 16.9502L11.999 13.4141L15.5352 16.9502C15.9255 17.3405 16.5587 17.3402 16.9492 16.9502C17.3397 16.5597 17.3397 15.9257 16.9492 15.5352L13.4141 12L16.9492 8.46484C17.3397 8.07432 17.3397 7.44033 16.9492 7.0498Z" fill="#1A1A1A"/>
</svg>
