<svg width="24" height="24" viewBox="0 0 24 24" fill="none" xmlns="http://www.w3.org/2000/svg">
<path d="M17.6565 4.92888C18.0471 4.53836 18.6811 4.53836 19.0716 4.92888C19.4618 5.31933 19.4617 5.95247 19.0716 6.34294L13.4144 11.9992L19.0716 17.6564C19.4621 18.0469 19.4621 18.6809 19.0716 19.0715C18.6811 19.462 18.0471 19.462 17.6565 19.0715L11.9993 13.4142L6.34306 19.0715C5.95259 19.4616 5.31944 19.4617 4.929 19.0715C4.53848 18.6809 4.53848 18.0469 4.929 17.6564L10.5853 11.9992L4.929 6.34294C4.53857 5.95241 4.53851 5.31937 4.929 4.92888C5.3195 4.53841 5.95254 4.53846 6.34306 4.92888L11.9993 10.5851L17.6565 4.92888Z" fill="#1A1A1A"/>
</svg>
