<svg width="24" height="24" viewBox="0 0 24 24" fill="none" xmlns="http://www.w3.org/2000/svg">
<path d="M11.25 9V19C11.25 19.4142 11.5858 19.75 12 19.75C12.4142 19.75 12.75 19.4142 12.75 19V9C12.75 8.58579 12.4142 8.25 12 8.25C11.5858 8.25 11.25 8.58579 11.25 9Z" fill="#1A1A1A"/>
<path d="M15.7687 8.25024C16.1828 8.26059 16.5101 8.60466 16.4998 9.01875L16.2498 19.0187C16.2394 19.4328 15.8953 19.7601 15.4813 19.7498C15.0672 19.7394 14.7399 19.3953 14.7502 18.9813L15.0002 8.98126C15.0106 8.56718 15.3547 8.23989 15.7687 8.25024Z" fill="#1A1A1A"/>
<path d="M7.50024 9.01875C7.48988 8.60466 7.81717 8.26059 8.23126 8.25024C8.64534 8.23989 8.98942 8.56718 8.99977 8.98126L9.24977 18.9813C9.26012 19.3953 8.93283 19.7394 8.51875 19.7498C8.10466 19.7601 7.76059 19.4328 7.75024 19.0187L7.50024 9.01875Z" fill="#1A1A1A"/>
<path fill-rule="evenodd" clip-rule="evenodd" d="M7 4.5V3.5C7 1.84315 8.34315 0.5 10 0.5H14C15.6569 0.5 17 1.84315 17 3.5V4.5H21.5C22.0523 4.5 22.5 4.94772 22.5 5.5C22.5 6.05228 22.0523 6.5 21.5 6.5H20.471L20.0567 20.5882C20.009 22.21 18.6805 23.5 17.058 23.5H6.94204C5.31953 23.5 3.99104 22.21 3.94334 20.5882L3.52898 6.5H2.5C1.94772 6.5 1.5 6.05228 1.5 5.5C1.5 4.94772 1.94772 4.5 2.5 4.5H7ZM9 3.5C9 2.94772 9.44772 2.5 10 2.5H14C14.5523 2.5 15 2.94772 15 3.5V4.5H9V3.5ZM5.94247 20.5294L5.52984 6.50001L18.4702 6.5L18.0575 20.5294C18.0416 21.07 17.5988 21.5 17.058 21.5H6.94204C6.4012 21.5 5.95837 21.07 5.94247 20.5294Z" fill="#1A1A1A"/>
</svg>
