<svg width="24" height="24" viewBox="0 0 24 24" fill="none" xmlns="http://www.w3.org/2000/svg">
<path fill-rule="evenodd" clip-rule="evenodd" d="M7 3.5V4.5H2.5C1.94772 4.5 1.5 4.94772 1.5 5.5C1.5 6.05228 1.94772 6.5 2.5 6.5H3.52898L3.94334 20.5882C3.99104 22.21 5.31953 23.5 6.94204 23.5H17.058C18.6805 23.5 20.009 22.21 20.0567 20.5882L20.471 6.5H21.5C22.0523 6.5 22.5 6.05228 22.5 5.5C22.5 4.94772 22.0523 4.5 21.5 4.5H17V3.5C17 1.84315 15.6569 0.5 14 0.5H10C8.34315 0.5 7 1.84315 7 3.5ZM10 2.5C9.44772 2.5 9 2.94772 9 3.5V4.5H15V3.5C15 2.94772 14.5523 2.5 14 2.5H10ZM7.98126 8.25024C7.56718 8.26059 7.23989 8.60466 7.25024 9.01875L7.50024 19.0187C7.51059 19.4328 7.85466 19.7601 8.26875 19.7498C8.68283 19.7394 9.01012 19.3953 8.99977 18.9813L8.74977 8.98126C8.73942 8.56718 8.39534 8.23989 7.98126 8.25024ZM12 8.25C12.4142 8.25 12.75 8.58579 12.75 9V19C12.75 19.4142 12.4142 19.75 12 19.75C11.5858 19.75 11.25 19.4142 11.25 19V9C11.25 8.58579 11.5858 8.25 12 8.25ZM16.0187 8.25024C16.4328 8.26059 16.7601 8.60466 16.7498 9.01875L16.4998 19.0187C16.4894 19.4328 16.1453 19.7601 15.7313 19.7498C15.3172 19.7394 14.9899 19.3953 15.0002 18.9813L15.2502 8.98126C15.2606 8.56718 15.6047 8.23989 16.0187 8.25024Z" fill="#1A1A1A"/>
</svg>
