<svg width="24" height="24" viewBox="0 0 24 24" fill="none" xmlns="http://www.w3.org/2000/svg">
<path fill-rule="evenodd" clip-rule="evenodd" d="M12 0.5C12.5523 0.5 13 0.947715 13 1.5V2.54938C18.0533 3.0511 22 7.31465 22 12.5C22 12.9638 21.6811 13.3667 21.2298 13.4732C20.7802 13.5794 20.3168 13.3638 20.1081 12.9523L20.1059 12.9481C20.1024 12.9416 20.0954 12.9287 20.0849 12.9102C20.0637 12.8732 20.0288 12.8148 19.9804 12.7422C19.8826 12.5954 19.7357 12.3999 19.5429 12.2071C19.1519 11.8161 18.6412 11.5 18 11.5C17.3588 11.5 16.8481 11.8161 16.4571 12.2071C16.2643 12.3999 16.1174 12.5954 16.0196 12.7422C15.9712 12.8148 15.9363 12.8732 15.9151 12.9102C15.9046 12.9287 15.8976 12.9416 15.8941 12.9481L15.8923 12.9514C15.722 13.2873 15.3769 13.5 15 13.5C14.6231 13.5 14.2784 13.2881 14.1081 12.9523L14.1068 12.9497L14.1062 12.9485C14.1027 12.942 14.0954 12.9287 14.0849 12.9102C14.0637 12.8732 14.0288 12.8148 13.9804 12.7422C13.8826 12.5954 13.7357 12.3999 13.5429 12.2071C13.3824 12.0466 13.2016 11.8987 13 11.7801V20.5C13 22.433 11.433 24 9.5 24C7.567 24 6 22.433 6 20.5C6 19.9477 6.44772 19.5 7 19.5C7.55228 19.5 8 19.9477 8 20.5C8 21.3284 8.67157 22 9.5 22C10.3284 22 11 21.3284 11 20.5V11.7801C10.7984 11.8987 10.6176 12.0466 10.4571 12.2071C10.2643 12.3999 10.1174 12.5954 10.0196 12.7422C9.97116 12.8148 9.93629 12.8732 9.91512 12.9102C9.90457 12.9287 9.89755 12.9416 9.89407 12.9481L9.8932 12.9497L9.89231 12.9514C9.72201 13.2873 9.37688 13.5 9 13.5C8.62312 13.5 8.27842 13.2881 8.10812 12.9523L8.10593 12.9481C8.10245 12.9416 8.09543 12.9287 8.08488 12.9102C8.06371 12.8732 8.02884 12.8148 7.98045 12.7422C7.88255 12.5954 7.73568 12.3999 7.54289 12.2071C7.15189 11.8161 6.64124 11.5 6 11.5C5.35876 11.5 4.84811 11.8161 4.45711 12.2071C4.26432 12.3999 4.11745 12.5954 4.01955 12.7422C3.97116 12.8148 3.93629 12.8732 3.91512 12.9102C3.90457 12.9287 3.89755 12.9416 3.89407 12.9481L3.89188 12.9523C3.68322 13.3638 3.21977 13.5794 2.77025 13.4732C2.31888 13.3667 2 12.9638 2 12.5C2 7.31465 5.94668 3.0511 11 2.54938V1.5C11 0.947715 11.4477 0.5 12 0.5ZM12 9.5C13.3588 9.5 14.3481 10.1839 14.9571 10.7929C14.9716 10.8074 14.9859 10.8218 15 10.8363C15.0141 10.8218 15.0284 10.8074 15.0429 10.7929C15.6519 10.1839 16.6412 9.5 18 9.5C18.5805 9.5 19.0936 9.62483 19.5384 9.81532C18.4351 6.71755 15.4765 4.5 12 4.5C8.52348 4.5 5.5649 6.71755 4.46161 9.81532C4.90641 9.62483 5.41949 9.5 6 9.5C7.35876 9.5 8.34811 10.1839 8.95711 10.7929C8.97158 10.8074 8.98588 10.8218 9 10.8363C9.01412 10.8218 9.02842 10.8074 9.04289 10.7929C9.65189 10.1839 10.6412 9.5 12 9.5Z" fill="#1A1A1A"/>
</svg>
