<svg width="24" height="24" viewBox="0 0 24 24" fill="none" xmlns="http://www.w3.org/2000/svg">
<path fill-rule="evenodd" clip-rule="evenodd" d="M12 0.5C12.5523 0.5 13 0.947715 13 1.5V2.80066C17.9094 3.30082 21.7412 7.44337 21.75 12.4827C21.7508 12.5208 21.7488 12.5588 21.7439 12.5962C21.7302 12.7033 21.6939 12.8034 21.6399 12.8914C21.5371 13.0591 21.3702 13.1833 21.1733 13.2299C21.0847 13.251 20.9945 13.2553 20.9068 13.2443C20.7969 13.2306 20.6944 13.1933 20.6045 13.1374C20.486 13.0637 20.3895 12.9578 20.3272 12.8319C20.319 12.8165 20.3106 12.8013 20.302 12.7862C20.2783 12.7447 20.2404 12.6814 20.1885 12.6035C20.0838 12.4465 19.9268 12.2374 19.7197 12.0303C19.3014 11.6121 18.7309 11.25 18 11.25C17.2691 11.25 16.6986 11.6121 16.2803 12.0303C16.0732 12.2374 15.9162 12.4465 15.8115 12.6035C15.7596 12.6814 15.7218 12.7447 15.6981 12.7862C15.6882 12.8034 15.6786 12.8207 15.6694 12.8382L15.6633 12.85C15.648 12.8791 15.631 12.9068 15.6125 12.9331C15.5284 13.0523 15.4136 13.1411 15.2846 13.1939C15.1919 13.2321 15.0953 13.2502 15 13.2502C14.9046 13.2502 14.8081 13.2321 14.7154 13.1939C14.5542 13.1279 14.4152 13.0058 14.3305 12.8382C14.3213 12.8207 14.3117 12.8034 14.3019 12.7862C14.2782 12.7447 14.2403 12.6814 14.1884 12.6035C14.0837 12.4465 13.9267 12.2374 13.7196 12.0303C13.5161 11.8268 13.2765 11.6366 13 11.4949V20.5C13 22.433 11.433 24 9.5 24C7.567 24 6 22.433 6 20.5C6 19.9477 6.44772 19.5 7 19.5C7.55228 19.5 8 19.9477 8 20.5C8 21.3284 8.67157 22 9.5 22C10.3284 22 11 21.3284 11 20.5V11.4949C10.7234 11.6366 10.4838 11.8268 10.2803 12.0303C10.0732 12.2374 9.91616 12.4465 9.81148 12.6035C9.75957 12.6814 9.72169 12.7447 9.698 12.7862C9.68856 12.8027 9.67933 12.8193 9.67043 12.8362C9.635 12.907 9.58826 12.9725 9.5312 13.0297C9.46391 13.0972 9.38505 13.1504 9.29955 13.1876C9.20231 13.23 9.10044 13.2502 8.99995 13.2502C8.89945 13.2502 8.79758 13.23 8.70034 13.1876C8.54555 13.1202 8.41252 13.0005 8.33054 12.8382C8.32131 12.8207 8.31172 12.8034 8.30189 12.7862C8.2782 12.7447 8.24032 12.6814 8.18841 12.6035C8.08374 12.4465 7.92671 12.2374 7.71962 12.0303C7.30136 11.6121 6.73088 11.25 5.99995 11.25C5.26901 11.25 4.69853 11.6121 4.28028 12.0303C4.07318 12.2374 3.91616 12.4465 3.81148 12.6035C3.75957 12.6814 3.72169 12.7447 3.698 12.7862C3.68958 12.8009 3.68133 12.8157 3.67334 12.8307C3.65569 12.8666 3.63527 12.9008 3.61235 12.9331C3.43404 13.1859 3.11767 13.3018 2.82063 13.2284C2.73808 13.2082 2.6609 13.1742 2.59162 13.1292C2.50894 13.0756 2.43979 13.0078 2.38582 12.9306C2.30024 12.8087 2.25 12.6602 2.25 12.5V12.4989C2.25055 7.45224 6.08536 3.30136 11 2.80066V1.5C11 0.947715 11.4477 0.5 12 0.5Z" fill="#1A1A1A"/>
</svg>
