<svg width="24" height="24" viewBox="0 0 24 24" fill="none" xmlns="http://www.w3.org/2000/svg">
<path d="M15.0495 3.07426C17.0701 5.27852 18.7706 8.25164 18.9785 11.3648C20.3072 11.3371 21.6359 11.2531 22.9647 11.1127C22.5344 5.72182 18.2175 1.42647 12.8172 1.02991C13.5877 1.61474 14.345 2.30567 15.0495 3.07426Z" fill="#1A1A1A"/>
<path d="M9.37742 1.31459C9.73247 1.45591 10.1181 1.64663 10.5272 1.89033C11.5353 2.49093 12.6016 3.36357 13.5752 4.42571C15.3861 6.40118 16.7647 8.90474 16.9727 11.3637C15.5457 11.3325 14.1187 11.2363 12.6916 11.0751C11.2861 7.84925 9.55611 4.81004 7.50233 1.95856C8.1009 1.69004 8.72784 1.47347 9.37742 1.31459Z" fill="#1A1A1A"/>
<path d="M5.74917 2.94744C6.53517 4.02808 7.27232 5.13684 7.96067 6.27376C5.36845 8.01034 3.64385 10.9697 2.74516 13.8218C2.43142 14.8174 2.21156 15.82 2.09043 16.7808C1.3917 15.3351 1 13.7133 1 12C1 8.24676 2.87975 4.93254 5.74917 2.94744Z" fill="#1A1A1A"/>
<path d="M4.05667 19.6095C4.51494 20.0877 5.01598 20.5247 5.55364 20.9142C6.99609 17.7103 8.76291 14.6931 10.8535 11.8634C10.2794 10.5468 9.64921 9.26285 8.9627 8.01141C6.937 9.42093 5.45812 11.8668 4.6527 14.4228C4.21967 15.7971 3.9971 17.1568 3.98104 18.3302C3.97455 18.8045 4.00195 19.2324 4.05667 19.6095Z" fill="#1A1A1A"/>
<path d="M7.28518 21.9412C8.71415 22.6201 10.3127 23 12 23C15.7787 23 19.1124 21.0947 21.0928 18.1923C20.2007 18.5674 19.2233 18.878 18.205 19.1039C15.2858 19.7516 11.8608 19.7378 9.06078 18.3613C8.42009 19.5264 7.82824 20.7196 7.28518 21.9412Z" fill="#1A1A1A"/>
<path d="M22.5656 15.071C22.7476 14.4438 22.8752 13.7935 22.9431 13.1256C19.4472 13.4783 15.9508 13.4569 12.4552 13.0611C11.602 14.2166 10.8052 15.4044 10.0646 16.6247C12.2981 17.6741 15.1555 17.7319 17.7717 17.1514C19.1784 16.8393 20.4673 16.3521 21.4915 15.7794C21.9074 15.5468 22.2655 15.308 22.5656 15.071Z" fill="#1A1A1A"/>
</svg>
