<svg width="24" height="24" viewBox="0 0 24 24" fill="none" xmlns="http://www.w3.org/2000/svg">
<path fill-rule="evenodd" clip-rule="evenodd" d="M23.0002 12C23.0002 18.0751 18.0754 23 12.0002 23C5.92511 23 1.00024 18.0751 1.00024 12C1.00024 5.92487 5.92511 1 12.0002 1C18.0754 1 23.0002 5.92487 23.0002 12ZM12.0002 21C14.5197 21 16.7974 19.9647 18.431 18.2964C15.5701 18.8841 12.2663 18.8288 9.55175 17.4907C9.05238 18.3548 8.58054 19.2348 8.13622 20.1306C9.30701 20.688 10.6172 21 12.0002 21ZM18.2719 16.2854C18.9452 16.136 19.5916 15.9464 20.1949 15.7266C20.5418 14.9649 20.7857 14.1462 20.9087 13.2886C18.0908 13.4559 15.2728 13.3801 12.4553 13.0611C11.802 13.9459 11.1817 14.8497 10.5944 15.7725C12.8235 16.8085 15.6672 16.8633 18.2719 16.2854ZM17.9793 11.3749C18.9768 11.3754 19.9744 11.3441 20.9719 11.281C20.6654 7.40267 17.9003 4.21615 14.235 3.27963C16.1755 5.46384 17.7808 8.35379 17.9793 11.3749ZM11.132 3.04135C10.2669 3.12416 9.4375 3.32944 8.66143 3.63965C10.2154 5.99652 11.5589 8.47519 12.6917 11.0751C13.7845 11.1986 14.8772 11.2839 15.97 11.3311C15.7527 8.88259 14.3782 6.39243 12.5754 4.42569C12.1099 3.91793 11.6233 3.45347 11.132 3.04135ZM3.00025 12C3.00025 8.92667 4.54071 6.21313 6.89163 4.58941C7.44503 5.42177 7.97091 6.26999 8.46929 7.1341C5.95212 8.81658 4.25191 11.6517 3.33055 14.4244C3.11532 13.6531 3.00025 12.84 3.00025 12ZM4.67567 17.231C5.1712 17.9236 5.76253 18.543 6.43029 19.0698C7.69424 16.5462 9.16878 14.1439 10.8536 11.8634C10.414 10.8552 9.94152 9.86614 9.43601 8.89617C7.42407 10.3086 5.9547 12.7441 5.15284 15.2888C4.94583 15.9458 4.78692 16.5994 4.67567 17.231Z" fill="#1A1A1A"/>
</svg>
