<svg width="24" height="24" viewBox="0 0 24 24" fill="none" xmlns="http://www.w3.org/2000/svg">
<path d="M22.7228 8.39201C22.8679 8.57262 22.8619 8.82989 22.7145 9.00866L21.7459 10.1831C21.5335 10.4406 21.1332 10.4215 20.93 10.1568C18.8736 7.47736 15.6385 5.75 12 5.75C8.3614 5.75 5.12628 7.47736 3.06992 10.1568C2.86673 10.4215 2.4664 10.4406 2.25405 10.1831L1.28545 9.00866C1.13801 8.8299 1.13198 8.57262 1.27716 8.39201C3.79732 5.25671 7.66429 3.25 12 3.25C16.3356 3.25 20.2026 5.25671 22.7228 8.39201Z" fill="#1A1A1A"/>
<path d="M19.1797 12.7473C19.3038 12.925 19.2882 13.163 19.1503 13.3303L18.1775 14.5098C17.9433 14.7937 17.4893 14.7367 17.2932 14.4252C16.187 12.6678 14.2299 11.5 12 11.5C9.77003 11.5 7.81286 12.6678 6.70669 14.4252C6.51066 14.7367 6.05659 14.7937 5.82245 14.5098L4.84965 13.3303C4.71172 13.163 4.69612 12.925 4.82022 12.7473C6.4016 10.482 9.02771 9 12 9C14.9722 9 17.5983 10.482 19.1797 12.7473Z" fill="#1A1A1A"/>
<path d="M12 21C13.6568 21 15 19.6569 15 18C15 16.3431 13.6568 15 12 15C10.3431 15 8.99996 16.3431 8.99996 18C8.99996 19.6569 10.3431 21 12 21Z" fill="#1A1A1A"/>
</svg>
