<svg width="24" height="24" viewBox="0 0 24 24" fill="none" xmlns="http://www.w3.org/2000/svg">
<path fill-rule="evenodd" clip-rule="evenodd" d="M12 23C18.0751 23 23 18.0751 23 12C23 5.92487 18.0751 1 12 1C5.92487 1 1 5.92487 1 12C1 18.0751 5.92487 23 12 23ZM19.6635 8.06046C19.833 8.22156 19.8582 8.48058 19.7311 8.67689L19.0476 9.73328C18.8671 10.0122 18.4696 10.0405 18.233 9.80717C16.6304 8.22596 14.4292 7.25 12 7.25C9.5708 7.25 7.36955 8.22596 5.76696 9.80717C5.53045 10.0405 5.13292 10.0122 4.95242 9.73328L4.26887 8.67689C4.14185 8.48058 4.16702 8.22156 4.33649 8.06046C6.33168 6.16389 9.02992 5 12 5C14.9701 5 17.6683 6.16389 19.6635 8.06046ZM17.1701 11.9724C17.3223 12.1328 17.3372 12.3767 17.217 12.5624L16.5402 13.6083C16.3423 13.9142 15.8898 13.9136 15.6479 13.641C14.7549 12.6344 13.4515 12 12 12C10.5485 12 9.24513 12.6344 8.35207 13.641C8.11024 13.9136 7.65774 13.9142 7.45978 13.6083L6.78299 12.5624C6.66284 12.3767 6.67768 12.1328 6.82989 11.9724C8.12827 10.6036 9.96445 9.75 12 9.75C14.0355 9.75 15.8717 10.6036 17.1701 11.9724ZM14.37 17C14.37 18.3117 13.3067 19.375 11.995 19.375C10.6833 19.375 9.62 18.3117 9.62 17C9.62 15.6883 10.6833 14.625 11.995 14.625C13.3067 14.625 14.37 15.6883 14.37 17Z" fill="#1A1A1A"/>
</svg>
